SplineFontDB: 3.0
FontName: NovaSlim
FullName: NovaSlim
FamilyName: NovaSlim
Weight: Regular
Copyright: wmk69 (wmk96@o2.pl)\nSIL Open Font License v.1.1
Version: 1.22
ItalicAngle: 0
UnderlinePosition: -81
UnderlineWidth: 122
Ascent: 1511
Descent: 537
LayerCount: 2
Layer: 0 1 "Warstwa t+AUIA-a"  1
Layer: 1 1 "Plan pierwszy"  0
XUID: [1021 783 23647091 4786306]
FSType: 0
OS2Version: 3
OS2_WeightWidthSlopeOnly: 0
OS2_UseTypoMetrics: 1
CreationTime: 1260698820
ModificationTime: 1306680169
PfmFamily: 33
TTFWeight: 500
TTFWidth: 5
LineGap: 0
VLineGap: 0
Panose: 2 12 6 4 2 2 2 6 2 4
OS2TypoAscent: 2072
OS2TypoAOffset: 0
OS2TypoDescent: -484
OS2TypoDOffset: 0
OS2TypoLinegap: 0
OS2WinAscent: 2072
OS2WinAOffset: 0
OS2WinDescent: 484
OS2WinDOffset: 0
HheadAscent: 2072
HheadAOffset: 0
HheadDescent: -484
HheadDOffset: 0
OS2SubXSize: 1434
OS2SubYSize: 1331
OS2SubXOff: 0
OS2SubYOff: 287
OS2SupXSize: 1434
OS2SupYSize: 1331
OS2SupXOff: 0
OS2SupYOff: 977
OS2StrikeYSize: 102
OS2StrikeYPos: 512
OS2Vendor: '    '
OS2CodePages: 20000093.00000000
OS2UnicodeRanges: 8000002f.4000204b.00000000.00000000
Lookup: 258 0 0 "'kern' Kerning poziomy w tablicy 0"  {"Podtablica 'kern' Kerning poziomy w tablicy 0"  } ['kern' ('DFLT' <'dflt' > 'grek' <'dflt' > 'latn' <'dflt' > ) ]
DEI: 91125
KernClass2: 28 18 "Podtablica 'kern' Kerning poziomy w tablicy 0" 
 352 A C G M N O Q S Agrave Aacute Acircumflex Atilde Adieresis Aring Ccedilla Ntilde Ograve Oacute Ocircumflex Otilde Odieresis Oslash Amacron Abreve Aogonek Cacute Ccircumflex Cdotaccent Ccaron Gcircumflex Gbreve Gdotaccent Gcommaaccent Nacute Ncommaaccent Ncaron Eng Omacron Obreve Ohungarumlaut OE Sacute Scircumflex Scedilla Scaron uni01E4 Scommaaccent
 12 B germandbls
 19 D Eth Dcaron Dcroat
 83 E F AE Egrave Eacute Ecircumflex Edieresis Emacron Ebreve Edotaccent Eogonek Ecaron

StartChar: .notdef
Encoding: 65536 -1 0
Width: 844
Flags: W
HStem: 0 68<218 626> 1297 68<218 626>
VStem: 150 68<68 1297> 626 68<68 1297>
LayerCount: 2
Fore
SplineSet
150 0 m 1,0,-1
 150 1365 l 1,1,-1
 694 1365 l 1,2,-1
 694 0 l 1,3,-1
 150 0 l 1,0,-1
218 68 m 1,4,-1
 626 68 l 1,5,-1
 626 1297 l 1,6,-1
 218 1297 l 1,7,-1
 218 68 l 1,4,-1
EndSplineSet
Validated: 1
EndChar

StartChar: exclam
Encoding: 33 33 4
Width: 600
GlyphClass: 2
Flags: W
HStem: 0 264<209.191 390.809> 1491 20G<353.056 398>
VStem: 170 260<39.7072 224.293> 200 198<404 1422>
LayerCount: 2
Fore
SplineSet
170 132 m 128,-1,1
 170 187 170 187 208 225.5 c 128,-1,2
 246 264 246 264 300 264 c 128,-1,3
 354 264 354 264 392 225.5 c 128,-1,4
 430 187 430 187 430 132 c 128,-1,5
 430 77 430 77 392 38.5 c 128,-1,6
 354 0 354 0 300 0 c 128,-1,7
 246 0 246 0 208 38.5 c 128,-1,0
 170 77 170 77 170 132 c 128,-1,1
198 1422 m 1,8,-1
 398 1511 l 1,9,-1
 398 404 l 1,10,-1
 200 312 l 1,11,-1
 198 1422 l 1,8,-1
EndSplineSet
Validated: 16385
EndChar

StartChar: quotedbl
Encoding: 34 34 5
Width: 972
GlyphClass: 2
Flags: W
HStem: 985 530
VStem: 223 200<1063 1449> 549 200<1066 1452>
LayerCount: 2
Fore
SplineSet
749 1515 m 1,0,-1
 749 1066 l 1,1,-1
 549 985 l 1,2,-1
 549 1452 l 1,3,-1
 749 1515 l 1,0,-1
423 1512 m 1,4,-1
 423 1063 l 1,5,-1
 223 982 l 1,6,-1
 223 1449 l 1,7,-1
 423 1512 l 1,4,-1
EndSplineSet
Validated: 16385
EndChar

StartChar: numbersign
Encoding: 35 35 6
Width: 1355
GlyphClass: 2
Flags: W
HStem: 493 198<241 416 614 742 940 1113> 819 198<240 415 613 741 939 1112>
VStem: 416 198<318 493 691 819 1017 1190> 742 198<317 492 690 818 1016 1189>
LayerCount: 2
Fore
SplineSet
614 318 m 1,0,-1
 416 228 l 1,1,-1
 416 493 l 1,2,-1
 151 493 l 1,3,-1
 241 691 l 1,4,-1
 416 691 l 1,5,-1
 415 819 l 1,6,-1
 150 819 l 1,7,-1
 240 1017 l 1,8,-1
 415 1017 l 1,9,-1
 415 1190 l 1,10,-1
 613 1282 l 1,11,-1
 613 1017 l 1,12,-1
 741 1016 l 1,13,-1
 741 1189 l 1,14,-1
 939 1281 l 1,15,-1
 939 1016 l 1,16,-1
 1204 1016 l 1,17,-1
 1112 818 l 1,18,-1
 939 818 l 1,19,-1
 940 690 l 1,20,-1
 1205 690 l 1,21,-1
 1113 492 l 1,22,-1
 940 492 l 1,23,-1
 940 317 l 1,24,-1
 742 227 l 1,25,-1
 742 492 l 1,26,-1
 614 493 l 1,27,-1
 614 318 l 1,0,-1
614 691 m 1,28,-1
 742 690 l 1,29,-1
 741 818 l 1,30,-1
 613 819 l 1,31,-1
 614 691 l 1,28,-1
EndSplineSet
Validated: 16385
EndChar

StartChar: dollar
Encoding: 36 36 7
Width: 1287
GlyphClass: 2
Flags: W
VStem: 150 202<285.016 514> 199 194<1081 1284.98> 515 197<-102 8.86401 120 710 978 1405 1488.47 1598> 827 194<1088 1297.32> 939 198<284.819 604.477>
DStem2: 472 992 364 830 0.943765 -0.330618<-81.2586 45.2105 319.738 535.071>
LayerCount: 2
Fore
SplineSet
150 514 m 1,0,-1
 350 608 l 1,1,-1
 352 497 l 2,2,3
 356 258 356 258 438 176 c 0,4,5
 473 141 473 141 515 120 c 1,6,-1
 515 778 l 1,7,-1
 364 830 l 1,8,9
 223 894 223 894 200 1081 c 1,10,-1
 199 1098 l 1,11,12
 199 1266 199 1266 320 1389 c 0,13,14
 405 1476 405 1476 515 1501 c 1,15,-1
 515 1598 l 1,16,-1
 713 1687 l 1,17,-1
 713 1499 l 1,18,19
 813 1473 813 1473 901 1393 c 0,20,21
 1021 1284 1021 1284 1021 1106 c 2,22,-1
 1021 1088 l 1,23,-1
 830 1003 l 1,24,-1
 827 1111 l 2,25,26
 822 1305 822 1305 763 1366 c 0,27,28
 740 1390 740 1390 713 1405 c 1,29,-1
 713 911 l 1,30,31
 941 828 941 828 943 827 c 0,32,33
 1121 738 1121 738 1136 531 c 1,34,-1
 1137 490 l 1,35,36
 1137 286 1137 286 992 142 c 1,37,38
 873 22 873 22 712 1 c 1,39,-1
 712 -102 l 1,40,-1
 515 -194 l 1,41,-1
 515 13 l 1,42,43
 392 45 392 45 295 141 c 1,44,45
 150 287 150 287 150 490 c 2,46,-1
 150 514 l 1,0,-1
939 428 m 1,47,48
 938 610 938 610 824 672 c 1,49,-1
 712 710 l 1,50,-1
 712 97 l 1,51,52
 793 115 793 115 858 180 c 0,53,54
 939 261 939 261 939 428 c 1,47,48
393 1168 m 0,55,56
 393 1018 393 1018 472 992 c 2,57,-1
 515 978 l 1,58,-1
 515 1412 l 1,59,60
 482 1397 482 1397 458 1374 c 0,61,62
 393 1312 393 1312 393 1168 c 0,55,56
EndSplineSet
Validated: 1
EndChar

StartChar: percent
Encoding: 37 37 8
Width: 1731
GlyphClass: 2
Flags: W
HStem: 0 84<1160.61 1389.39> 579 81<1163.34 1386.66> 852 84<341.612 570.388> 1431 81<344.337 567.663>
VStem: 120 162<1015.98 1347.15> 630 162<1015.98 1347.15> 939 162<163.985 495.15> 1449 162<163.985 495.15>
DStem2: 340 -96 519 -180 0.435903 0.899994<2.42717 1984.44>
LayerCount: 2
Fore
SplineSet
340 -96 m 1,0,-1
 1205 1690 l 1,1,-1
 1385 1608 l 1,2,-1
 519 -180 l 1,3,-1
 340 -96 l 1,0,-1
1101 331.5 m 128,-1,5
 1101 182 1101 182 1152 133 c 128,-1,6
 1203 84 1203 84 1275 84 c 128,-1,7
 1347 84 1347 84 1398 133 c 128,-1,8
 1449 182 1449 182 1449 331.5 c 128,-1,9
 1449 481 1449 481 1398 530 c 128,-1,10
 1347 579 1347 579 1275 579 c 128,-1,11
 1203 579 1203 579 1152 530 c 128,-1,4
 1101 481 1101 481 1101 331.5 c 128,-1,5
939 330 m 128,-1,13
 939 467 939 467 1037.5 563.5 c 128,-1,14
 1136 660 1136 660 1275 660 c 128,-1,15
 1414 660 1414 660 1512.5 563.5 c 128,-1,16
 1611 467 1611 467 1611 330 c 128,-1,17
 1611 193 1611 193 1512.5 96.5 c 128,-1,18
 1414 0 1414 0 1275 0 c 128,-1,19
 1136 0 1136 0 1037.5 96.5 c 128,-1,12
 939 193 939 193 939 330 c 128,-1,13
282 1183.5 m 128,-1,21
 282 1034 282 1034 333 985 c 128,-1,22
 384 936 384 936 456 936 c 128,-1,23
 528 936 528 936 579 985 c 128,-1,24
 630 1034 630 1034 630 1183.5 c 128,-1,25
 630 1333 630 1333 579 1382 c 128,-1,26
 528 1431 528 1431 456 1431 c 128,-1,27
 384 1431 384 1431 333 1382 c 128,-1,20
 282 1333 282 1333 282 1183.5 c 128,-1,21
120 1182 m 128,-1,29
 120 1319 120 1319 218.5 1415.5 c 128,-1,30
 317 1512 317 1512 456 1512 c 128,-1,31
 595 1512 595 1512 693.5 1415.5 c 128,-1,32
 792 1319 792 1319 792 1182 c 128,-1,33
 792 1045 792 1045 693.5 948.5 c 128,-1,34
 595 852 595 852 456 852 c 128,-1,35
 317 852 317 852 218.5 948.5 c 128,-1,28
 120 1045 120 1045 120 1182 c 128,-1,29
EndSplineSet
Validated: 16385
EndChar

StartChar: ampersand
Encoding: 38 38 9
Width: 1681
GlyphClass: 2
Flags: W
HStem: 0 21G<1326.22 1386.02> 21 117<511.503 655> 788 115<535.856 664> 1386 104<538.008 867>
VStem: 150 206<307.639 670.703> 262 194<983.812 1304.63>
DStem2: 655 138 698 20 0.704008 0.710192<0 416.688 615.887 1059.93> 808 904 664 788 0.663623 -0.748067<0 434.004 560.921 1031.95>
LayerCount: 2
Fore
SplineSet
808 904 m 1,0,-1
 1090 574 l 1,1,-1
 1406 886 l 1,2,-1
 1495 824 l 1,3,-1
 1166 487 l 1,4,-1
 1531 89 l 1,5,-1
 1344 0 l 1,6,-1
 1031 352 l 1,7,-1
 698 20 l 1,8,-1
 626 21 l 2,9,10
 396 24 396 24 275 145 c 0,11,12
 150 271 150 271 150 462 c 0,13,14
 150 661 150 661 273 796 c 0,15,16
 315 842 315 842 366 874 c 1,17,-1
 348 893 l 1,18,19
 262 989 262 989 262 1138 c 0,20,21
 262 1264 262 1264 348 1376 c 0,22,23
 436 1490 436 1490 670 1490 c 2,24,-1
 918 1490 l 1,25,-1
 867 1386 l 1,26,-1
 674 1386 l 1,27,28
 518 1374 518 1374 476 1260 c 1,29,30
 456 1220 456 1220 456 1161 c 0,31,32
 456 1156 456 1156 456 1150 c 0,33,34
 456 1108 456 1108 476 1036 c 0,35,36
 509 919 509 919 653 903 c 1,37,-1
 808 904 l 1,0,-1
664 788 m 1,38,-1
 638 788 l 2,39,40
 444 788 444 788 398 664 c 0,41,42
 356 551 356 551 356 484 c 0,43,44
 356 481 356 481 356 478 c 0,45,46
 356 371 356 371 420 274 c 1,47,48
 494 158 494 158 628 138 c 1,49,-1
 655 138 l 1,50,-1
 961 438 l 1,51,-1
 664 788 l 1,38,-1
EndSplineSet
Validated: 16385
EndChar

StartChar: quotesingle
Encoding: 39 39 10
Width: 500
GlyphClass: 2
Flags: W
HStem: 982 530
VStem: 150 200<1063 1449>
LayerCount: 2
Fore
SplineSet
350 1512 m 1,0,-1
 350 1063 l 1,1,-1
 150 982 l 1,2,-1
 150 1449 l 1,3,-1
 350 1512 l 1,0,-1
EndSplineSet
Validated: 1
EndChar

StartChar: parenleft
Encoding: 40 40 11
Width: 657
GlyphClass: 2
Flags: W
VStem: 150 189<368.388 1148.85>
LayerCount: 2
Fore
SplineSet
150 763 m 0,0,1
 150 989 150 989 217 1241 c 0,2,3
 262 1407 262 1407 360 1586 c 0,4,5
 371 1606 371 1606 387 1637 c 0,6,7
 399 1660 399 1660 495 1813 c 1,8,-1
 554 1774 l 1,9,10
 516 1684 516 1684 479 1594 c 1,11,12
 468 1571 468 1571 444 1489 c 1,13,14
 391 1318 391 1318 371 1189 c 0,15,16
 339 983 339 983 339 766 c 0,17,18
 339 509 339 509 377 334 c 0,19,20
 410 180 410 180 464 1 c 0,21,22
 482 -60 482 -60 482 -59 c 1,23,24
 536 -206 536 -206 557 -260 c 1,25,-1
 486 -293 l 1,26,27
 478 -291 478 -291 387 -110 c 0,28,29
 383 -102 383 -102 360 -59 c 0,30,31
 275 99 275 99 217 287 c 0,32,33
 150 502 150 502 150 763 c 0,0,1
EndSplineSet
Validated: 1
EndChar

StartChar: parenright
Encoding: 41 41 12
Width: 657
GlyphClass: 2
Flags: W
VStem: 368 189<368.388 1148.85>
LayerCount: 2
Fore
SplineSet
557 763 m 0,0,1
 557 502 557 502 490 287 c 0,2,3
 432 99 432 99 347 -59 c 0,4,5
 324 -102 324 -102 320 -110 c 0,6,7
 229 -291 229 -291 221 -293 c 1,8,-1
 150 -260 l 1,9,10
 171 -206 171 -206 225 -59 c 1,11,12
 225 -60 225 -60 243 1 c 0,13,14
 297 180 297 180 330 334 c 0,15,16
 368 509 368 509 368 766 c 0,17,18
 368 983 368 983 336 1189 c 0,19,20
 316 1318 316 1318 263 1489 c 1,21,22
 239 1571 239 1571 228 1594 c 1,23,24
 191 1684 191 1684 153 1774 c 1,25,-1
 212 1813 l 1,26,27
 308 1660 308 1660 320 1637 c 0,28,29
 336 1606 336 1606 347 1586 c 0,30,31
 445 1407 445 1407 490 1241 c 0,32,33
 557 989 557 989 557 763 c 0,0,1
EndSplineSet
Validated: 1
EndChar

StartChar: asterisk
Encoding: 42 42 13
Width: 1190
GlyphClass: 2
Flags: W
HStem: 1492 20G<650.957 694>
VStem: 496 198<679 879 1222 1420>
DStem2: 325 1321 146 1196 0.865645 -0.500658<0 197.59 540.8 740.536> 146 905 323 779 0.865645 0.500658<90.1364 289.872 633.082 830.673>
LayerCount: 2
Fore
SplineSet
694 679 m 1,0,-1
 496 589 l 1,1,-1
 496 879 l 1,2,-1
 323 779 l 1,3,-1
 146 905 l 1,4,-1
 397 1050 l 1,5,-1
 146 1196 l 1,6,-1
 325 1321 l 1,7,-1
 496 1222 l 1,8,-1
 496 1420 l 1,9,-1
 694 1512 l 1,10,-1
 694 1222 l 1,11,-1
 865 1321 l 1,12,-1
 1044 1196 l 1,13,-1
 793 1050 l 1,14,-1
 1044 905 l 1,15,-1
 867 779 l 1,16,-1
 694 879 l 1,17,-1
 694 679 l 1,0,-1
EndSplineSet
Validated: 16385
EndChar

StartChar: plus
Encoding: 43 43 14
Width: 1083
GlyphClass: 2
Flags: W
HStem: 600 198<170 442 640 911>
VStem: 442 198<328 600 798 1068>
LayerCount: 2
Fore
SplineSet
640 328 m 1,0,-1
 442 238 l 1,1,-1
 442 600 l 1,2,-1
 80 600 l 1,3,-1
 170 798 l 1,4,-1
 442 798 l 1,5,-1
 442 1068 l 1,6,-1
 640 1160 l 1,7,-1
 640 798 l 1,8,-1
 1003 798 l 1,9,-1
 911 600 l 1,10,-1
 640 600 l 1,11,-1
 640 328 l 1,0,-1
EndSplineSet
Validated: 1
EndChar

StartChar: comma
Encoding: 44 44 15
Width: 608
GlyphClass: 2
Flags: W
HStem: -262 542
VStem: 110 348
DStem2: 110 -177 299 -262 0.328601 0.944469<0 464.751>
LayerCount: 2
Fore
SplineSet
299 -262 m 1,0,-1
 110 -177 l 1,1,-1
 269 280 l 1,2,-1
 458 194 l 1,3,-1
 299 -262 l 1,0,-1
EndSplineSet
Validated: 16385
EndChar

StartChar: hyphen
Encoding: 45 45 16
Width: 1083
GlyphClass: 2
Flags: W
HStem: 600 198<170 911>
LayerCount: 2
Fore
SplineSet
170 798 m 1,0,-1
 1003 798 l 1,1,-1
 911 600 l 1,2,-1
 80 600 l 1,3,-1
 170 798 l 1,0,-1
EndSplineSet
Validated: 1
EndChar

StartChar: period
Encoding: 46 46 17
Width: 560
GlyphClass: 2
Flags: W
HStem: 0 264<189.191 370.809>
VStem: 150 260<39.7072 224.293>
LayerCount: 2
Fore
SplineSet
150 132 m 128,-1,1
 150 187 150 187 188 225.5 c 128,-1,2
 226 264 226 264 280 264 c 128,-1,3
 334 264 334 264 372 225.5 c 128,-1,4
 410 187 410 187 410 132 c 128,-1,5
 410 77 410 77 372 38.5 c 128,-1,6
 334 0 334 0 280 0 c 128,-1,7
 226 0 226 0 188 38.5 c 128,-1,0
 150 77 150 77 150 132 c 128,-1,1
EndSplineSet
Validated: 1
EndChar

StartChar: slash
Encoding: 47 47 18
Width: 1065
GlyphClass: 2
Flags: W
DStem2: 10 -96 189 -180 0.435903 0.899994<2.42717 1984.44>
LayerCount: 2
Fore
SplineSet
10 -96 m 1,0,-1
 875 1690 l 1,1,-1
 1055 1608 l 1,2,-1
 189 -180 l 1,3,-1
 10 -96 l 1,0,-1
EndSplineSet
Validated: 1
EndChar

StartChar: zero
Encoding: 48 48 19
Width: 1288
GlyphClass: 2
Flags: W
HStem: 0 94<486.605 796.979> 1410 100<491.878 800.395>
VStem: 150 198<288.97 1218.89> 936 201<288.129 1226.65>
LayerCount: 2
Fore
SplineSet
348 500 m 2,0,1
 348 267 348 267 434 180.5 c 128,-1,2
 520 94 520 94 642 94 c 0,3,4
 766 94 766 94 850 181 c 0,5,6
 930 265 930 265 936 500 c 1,7,-1
 936 1010 l 2,8,9
 936 1239 936 1239 852 1324 c 0,10,11
 766 1410 766 1410 644 1410 c 0,12,13
 529 1410 529 1410 436 1324 c 0,14,15
 348 1242 348 1242 348 1010 c 2,16,-1
 348 500 l 2,0,1
150 494 m 2,17,-1
 151 1016 l 2,18,19
 151 1220 151 1220 295.5 1365 c 128,-1,20
 440 1510 440 1510 644 1510 c 128,-1,21
 848 1510 848 1510 993 1365 c 256,22,23
 1138 1220 1138 1220 1138 1016 c 2,24,-1
 1137 494 l 1,25,26
 1134 287 1134 287 993 145 c 0,27,28
 848 0 848 0 644 0 c 128,-1,29
 440 0 440 0 295 145 c 128,-1,30
 150 290 150 290 150 494 c 2,17,-1
EndSplineSet
Validated: 16385
EndChar

StartChar: one
Encoding: 49 49 20
Width: 782
GlyphClass: 2
Flags: W
HStem: 0 21G<333.969 377.043> 1491 20G<487.949 532>
VStem: 334 198<92 1293>
DStem2: 10 1274 56 1173 0.910546 0.413409<0.130825 301.05>
LayerCount: 2
Fore
SplineSet
532 92 m 1,0,-1
 334 0 l 1,1,-1
 332 1293 l 1,2,-1
 56 1173 l 1,3,-1
 10 1274 l 1,4,-1
 532 1511 l 1,5,-1
 532 92 l 1,0,-1
EndSplineSet
Validated: 1
EndChar

StartChar: two
Encoding: 50 50 21
Width: 1345
GlyphClass: 2
Flags: W
HStem: 21 194<472 1107> 1414 97<510.976 829.575>
VStem: 184 202<989 1213.65> 975 197<885.32 1251.4>
DStem2: 711 699 662 502 0.803098 0.595847<-357.857 333.895>
LayerCount: 2
Fore
SplineSet
975 1070 m 0,0,1
 975 1234 975 1234 882 1328 c 0,2,3
 796 1414 796 1414 674 1414 c 0,4,5
 537 1414 537 1414 466 1328 c 0,6,7
 386 1231 386 1231 386 1011 c 2,8,-1
 386 989 l 1,9,-1
 186 899 l 1,10,-1
 184 1018 l 1,11,12
 184 1207 184 1207 329 1359 c 128,-1,13
 474 1511 474 1511 678 1511 c 128,-1,14
 882 1511 882 1511 1027 1383 c 128,-1,15
 1172 1255 1172 1255 1172 1051 c 1,16,-1
 1172 1037 l 1,17,18
 1171 894 1171 894 1034 778 c 1,19,20
 821 619 821 619 662 502 c 1,21,22
 506 376 506 376 472 215 c 1,23,-1
 1195 217 l 1,24,-1
 1107 21 l 1,25,-1
 150 21 l 1,26,-1
 235 213 l 1,27,28
 338 420 338 420 711 699 c 1,29,-1
 884 832 l 2,30,31
 975 902 975 902 975 1070 c 0,0,1
EndSplineSet
Validated: 1
EndChar

StartChar: three
Encoding: 51 51 22
Width: 1287
GlyphClass: 2
Flags: W
HStem: 4 107<490.211 800.854> 1302 189<275 815>
VStem: 150 202<292.511 531> 940 197<291.67 688.25>
DStem2: 508 876 698 960 0.579931 0.814665<178.619 524.272>
LayerCount: 2
Fore
SplineSet
150 531 m 5,0,-1
 352 623 l 1,1,-1
 352 504 l 1,2,3
 364 270 364 270 437 197 c 0,4,5
 523 111 523 111 645 111 c 128,-1,6
 767 111 767 111 853 198 c 1,7,8
 940 283 940 283 940 504 c 2,9,-1
 940 521 l 1,10,11
 932 638 932 638 876 723 c 0,12,13
 815 816 815 816 744 847 c 0,14,15
 696 868 696 868 636 874 c 0,16,17
 606 877 606 877 526 877 c 1,18,-1
 508 876 l 1,19,-1
 815 1301 l 1,20,-1
 181 1302 l 1,21,-1
 275 1491 l 1,22,-1
 1076 1491 l 1,23,-1
 698 960 l 1,24,-1
 758 950 l 2,25,26
 815 941 815 941 871 918 c 0,27,28
 947 890 947 890 1017 815 c 0,29,30
 1125 700 1125 700 1136 538 c 1,31,-1
 1137 497 l 1,32,33
 1137 293 1137 293 992.5 148.5 c 128,-1,34
 848 4 848 4 644 4 c 0,35,36
 437 4 437 4 295 148 c 0,37,38
 150 295 150 295 150 497 c 2,39,-1
 150 531 l 5,0,-1
EndSplineSet
Validated: 1
EndChar

StartChar: four
Encoding: 52 52 23
Width: 1174
GlyphClass: 2
Flags: W
HStem: 0 21G<734.948 778.111> 390 116<238 734 932 1020> 1492 20G<888.556 932.98>
VStem: 736 196<90 387 507 1233>
LayerCount: 2
Fore
SplineSet
734 387 m 1,0,-1
 50 388 l 1,1,-1
 103 504 l 1,2,-1
 733 1422 l 1,3,-1
 933 1512 l 1,4,-1
 932 507 l 1,5,-1
 1074 506 l 1,6,-1
 1020 390 l 1,7,-1
 930 390 l 1,8,-1
 929 90 l 1,9,-1
 735 0 l 1,10,-1
 734 387 l 1,0,-1
238 506 m 1,11,-1
 736 504 l 1,12,-1
 736 1233 l 1,13,-1
 238 506 l 1,11,-1
EndSplineSet
Validated: 16385
EndChar

StartChar: five
Encoding: 53 53 24
Width: 1247
GlyphClass: 2
Flags: W
HStem: 4 98<465.881 776.537> 864 110<377.654 769.898> 1309 182<457 999>
VStem: 130 202<292.511 531> 920 197<292.289 706.365>
DStem2: 211 777 358 924 0.238052 0.971252<177.768 575.267> 358 924 319 813 0.961524 0.274721<0 222.052>
LayerCount: 2
Fore
SplineSet
130 531 m 1,0,-1
 329 615 l 1,1,-1
 332 504 l 1,2,3
 345 257 345 257 414 188 c 0,4,5
 500 102 500 102 622 102 c 128,-1,6
 744 102 744 102 830 188 c 0,7,8
 920 277 920 277 920 504 c 2,9,-1
 920 540 l 1,10,11
 916 658 916 658 854 742 c 0,12,13
 803 812 803 812 728 840 c 0,14,15
 664 864 664 864 610 864 c 0,16,17
 485 864 485 864 319 813 c 1,18,-1
 211 777 l 1,19,-1
 386 1491 l 1,20,-1
 1083 1493 l 1,21,-1
 999 1309 l 1,22,-1
 457 1309 l 1,23,-1
 358 924 l 1,24,-1
 470 956 l 1,25,26
 537 974 537 974 608 974 c 0,27,28
 724 974 724 974 803 951 c 0,29,30
 949 907 949 907 1034 798 c 0,31,32
 1113 697 1113 697 1116 538 c 1,33,-1
 1117 497 l 1,34,35
 1117 293 1117 293 972.5 148.5 c 128,-1,36
 828 4 828 4 624 4 c 0,37,38
 417 4 417 4 275 148 c 0,39,40
 130 295 130 295 130 497 c 2,41,-1
 130 531 l 1,0,-1
EndSplineSet
Validated: 1
EndChar

StartChar: six
Encoding: 54 54 25
Width: 1283
GlyphClass: 2
Flags: W
HStem: 0 105<492.161 795.468> 885 102<477.398 794.671> 1410 100<479.333 791.881>
VStem: 150 197<285.75 733.33 891 1220.92> 914 200<1116.26 1263.71> 927 206<280.818 697.266>
LayerCount: 2
Fore
SplineSet
347 512 m 0,0,1
 347 291 347 291 434 198 c 128,-1,2
 521 105 521 105 642 105 c 0,3,4
 761 105 761 105 850 192 c 1,5,6
 927 269 927 269 927 480 c 0,7,8
 927 717 927 717 847 798 c 0,9,10
 761 885 761 885 639 885 c 0,11,12
 500 885 500 885 431 798 c 0,13,14
 348 694 348 694 347 512 c 0,0,1
150 453 m 1,15,-1
 150 1016 l 2,16,17
 150 1220 150 1220 294.5 1365 c 128,-1,18
 439 1510 439 1510 643 1510 c 0,19,20
 854 1510 854 1510 992 1365 c 0,21,22
 1106 1246 1106 1246 1113 1138 c 2,23,-1
 1114 1123 l 1,24,-1
 914 1029 l 1,25,-1
 914 1059 l 2,26,27
 914 1253 914 1253 844 1323 c 0,28,29
 758 1410 758 1410 636 1410 c 0,30,31
 509 1410 509 1410 428 1323.5 c 128,-1,32
 347 1237 347 1237 347 1010 c 2,33,-1
 347 891 l 1,34,35
 475 987 475 987 639 987 c 0,36,37
 840 987 840 987 988 842 c 0,38,39
 1117 716 1117 716 1133 518 c 1,40,-1
 1133 505 l 1,41,-1
 1133 477 l 2,42,43
 1133 287 1133 287 992 145 c 0,44,45
 847 0 847 0 643 0 c 128,-1,46
 439 0 439 0 294 145 c 0,47,48
 163 276 163 276 150 453 c 1,15,-1
EndSplineSet
Validated: 1
EndChar

StartChar: seven
Encoding: 55 55 26
Width: 1047
GlyphClass: 2
Flags: W
HStem: 0 21G<138.137 170.308> 1302 190<143 852>
LayerCount: 2
Fore
SplineSet
415 133 m 1,0,-1
 127 0 l 1,1,-1
 852 1302 l 1,2,-1
 50 1302 l 1,3,-1
 143 1492 l 1,4,-1
 1027 1490 l 1,5,-1
 415 133 l 1,0,-1
EndSplineSet
Validated: 1
EndChar

StartChar: eight
Encoding: 56 56 27
Width: 1284
GlyphClass: 2
Flags: W
HStem: -3 95<486.105 795.468> 858 91<505.104 787.416> 1428 88<500.629 779.832>
VStem: 150 198<281.387 705.012> 228 194<1031.31 1318.28> 865 185<1019.85 1327.04> 928 206<278.843 702.5>
LayerCount: 2
Fore
SplineSet
637 858 m 0,0,1
 522 858 522 858 441 783 c 0,2,3
 348 697 348 697 348 497 c 17,4,5
 348 264 348 264 433 178 c 0,6,7
 519 92 519 92 641 92 c 0,8,9
 760 92 760 92 849 179 c 0,10,11
 928 257 928 257 928 477 c 0,12,13
 928 683 928 683 853 760 c 0,14,15
 757 858 757 858 637 858 c 0,0,1
491 1004 m 0,16,17
 554 949 554 949 644 949 c 0,18,19
 645 949 645 949 647 949 c 0,20,21
 743 949 743 949 809 1008 c 1,22,23
 865 1060 865 1060 865 1150 c 2,24,-1
 865 1180 l 2,25,26
 865 1311 865 1311 797 1372 c 0,27,28
 735 1428 735 1428 650 1428 c 0,29,30
 646 1428 646 1428 641 1428 c 0,31,32
 541 1428 541 1428 493 1378 c 0,33,34
 429 1310 429 1310 422 1180 c 1,35,-1
 422 1166 l 1,36,-1
 422 1147 l 1,37,38
 435 1053 435 1053 491 1004 c 0,16,17
379 896 m 1,39,40
 228 1003 228 1003 228 1142 c 2,41,-1
 228 1155 l 2,42,43
 228 1301 228 1301 349 1408.5 c 128,-1,44
 470 1516 470 1516 640 1516 c 0,45,46
 802 1516 802 1516 930 1412 c 0,47,48
 1050 1315 1050 1315 1050 1162 c 2,49,-1
 1050 1135 l 2,50,51
 1050 1011 1050 1011 911 892 c 1,52,53
 942 880 942 880 989 839 c 0,54,55
 1117 728 1117 728 1134 515 c 1,56,-1
 1134 502 l 1,57,-1
 1134 474 l 2,58,59
 1134 284 1134 284 993 142 c 0,60,61
 848 -3 848 -3 644 -3 c 128,-1,62
 440 -3 440 -3 295 142 c 0,63,64
 161 276 161 276 151 450 c 0,65,66
 150 467 150 467 150 483 c 0,67,68
 153 596 153 596 181 672 c 0,69,70
 238 828 238 828 366 891 c 1,71,-1
 379 896 l 1,39,40
EndSplineSet
Validated: 1
EndChar

StartChar: nine
Encoding: 57 57 28
Width: 1283
GlyphClass: 2
Flags: W
HStem: 0 100<491.119 803.667> 523 102<488.329 808.881> 1405 105<487.532 796.895>
VStem: 150 206<812.734 1229.18> 170 199<243.448 393.299> 936 197<289.08 619 781.46 1225.2>
LayerCount: 2
Fore
SplineSet
936 964 m 1,0,-1
 936 1010 l 2,1,2
 936 1231 936 1231 849 1318 c 0,3,4
 763 1405 763 1405 641 1405 c 0,5,6
 522 1405 522 1405 433 1318 c 1,7,8
 356 1241 356 1241 356 1030 c 0,9,10
 356 793 356 793 436 712 c 0,11,12
 522 625 522 625 644 625 c 0,13,14
 788 625 788 625 852 712 c 0,15,16
 923 808 923 808 936 964 c 1,0,-1
1133 1057 m 1,17,-1
 1133 494 l 2,18,19
 1133 290 1133 290 988.5 145 c 128,-1,20
 844 0 844 0 640 0 c 0,21,22
 429 0 429 0 291 145 c 0,23,24
 177 264 177 264 170 372 c 2,25,-1
 169 387 l 1,26,-1
 369 481 l 1,27,-1
 369 451 l 2,28,29
 369 257 369 257 439 187 c 0,30,31
 525 100 525 100 647 100 c 0,32,33
 774 100 774 100 855 186.5 c 128,-1,34
 936 273 936 273 936 500 c 2,35,-1
 936 619 l 1,36,37
 808 523 808 523 644 523 c 0,38,39
 443 523 443 523 295 668 c 0,40,41
 166 794 166 794 150 992 c 1,42,-1
 150 1005 l 1,43,-1
 150 1033 l 2,44,45
 150 1223 150 1223 291 1365 c 0,46,47
 436 1510 436 1510 640 1510 c 128,-1,48
 844 1510 844 1510 989 1365 c 0,49,50
 1120 1234 1120 1234 1133 1057 c 1,17,-1
EndSplineSet
Validated: 16385
EndChar

StartChar: colon
Encoding: 58 58 29
Width: 562
GlyphClass: 2
Flags: W
HStem: 0 264<191.191 372.809> 554 264<189.191 370.809>
VStem: 152 260<39.7072 224.293 593.707 778.293>
LayerCount: 2
Fore
SplineSet
152 132 m 128,-1,1
 152 187 152 187 190 225.5 c 128,-1,2
 228 264 228 264 282 264 c 128,-1,3
 336 264 336 264 374 225.5 c 128,-1,4
 412 187 412 187 412 132 c 128,-1,5
 412 77 412 77 374 38.5 c 128,-1,6
 336 0 336 0 282 0 c 128,-1,7
 228 0 228 0 190 38.5 c 128,-1,0
 152 77 152 77 152 132 c 128,-1,1
150 686 m 128,-1,9
 150 741 150 741 188 779.5 c 128,-1,10
 226 818 226 818 280 818 c 128,-1,11
 334 818 334 818 372 779.5 c 128,-1,12
 410 741 410 741 410 686 c 128,-1,13
 410 631 410 631 372 592.5 c 128,-1,14
 334 554 334 554 280 554 c 128,-1,15
 226 554 226 554 188 592.5 c 128,-1,8
 150 631 150 631 150 686 c 128,-1,9
EndSplineSet
Validated: 16385
EndChar

StartChar: semicolon
Encoding: 59 59 30
Width: 562
GlyphClass: 2
Flags: W
HStem: 554 264<189.191 370.809>
VStem: 150 260<593.707 778.293>
DStem2: 49 -165 238 -250 0.328601 0.944469<0 464.751>
LayerCount: 2
Fore
SplineSet
238 -250 m 1,0,-1
 49 -165 l 1,1,-1
 208 292 l 1,2,-1
 397 206 l 1,3,-1
 238 -250 l 1,0,-1
150 686 m 128,-1,5
 150 741 150 741 188 779.5 c 128,-1,6
 226 818 226 818 280 818 c 128,-1,7
 334 818 334 818 372 779.5 c 128,-1,8
 410 741 410 741 410 686 c 128,-1,9
 410 631 410 631 372 592.5 c 128,-1,10
 334 554 334 554 280 554 c 128,-1,11
 226 554 226 554 188 592.5 c 128,-1,4
 150 631 150 631 150 686 c 128,-1,5
EndSplineSet
Validated: 16385
EndChar

StartChar: less
Encoding: 60 60 31
Width: 1118
GlyphClass: 2
Flags: W
DStem2: 316 714 80 599 0.889737 -0.456474<0 736.222> 152 754 316 714 0.849658 0.527335<118.25 861.862>
LayerCount: 2
Fore
SplineSet
152 754 m 1,0,-1
 898 1217 l 1,1,-1
 951 1101 l 1,2,-1
 316 714 l 1,3,-1
 968 372 l 1,4,-1
 885 186 l 1,5,-1
 80 599 l 1,6,-1
 152 754 l 1,0,-1
EndSplineSet
Validated: 16385
EndChar

StartChar: equal
Encoding: 61 61 32
Width: 1084
GlyphClass: 2
Flags: W
HStem: 436 198<171 912> 762 198<170 911>
LayerCount: 2
Fore
SplineSet
170 960 m 1,0,-1
 1003 960 l 1,1,-1
 911 762 l 1,2,-1
 80 762 l 1,3,-1
 170 960 l 1,0,-1
171 634 m 1,4,-1
 1004 634 l 1,5,-1
 912 436 l 1,6,-1
 81 436 l 1,7,-1
 171 634 l 1,4,-1
EndSplineSet
Validated: 1
EndChar

StartChar: greater
Encoding: 62 62 33
Width: 1118
GlyphClass: 2
Flags: W
DStem2: 233 1217 150 1031 0.889737 -0.456474<11.0559 747.278> 167 302 220 186 0.849658 0.527335<0 743.611>
LayerCount: 2
Fore
SplineSet
966 649 m 1,0,-1
 220 186 l 1,1,-1
 167 302 l 1,2,-1
 802 689 l 1,3,-1
 150 1031 l 1,4,-1
 233 1217 l 1,5,-1
 1038 804 l 1,6,-1
 966 649 l 1,0,-1
EndSplineSet
Validated: 19457
EndChar

StartChar: question
Encoding: 63 63 34
Width: 1287
GlyphClass: 2
Flags: W
HStem: 0 264<517.191 698.809> 1425 89<486.605 795.03>
VStem: 150 202<992 1216.65> 478 260<39.7072 224.293> 528 129<354.316 521.433> 940 196<885.605 1231.67>
LayerCount: 2
Fore
SplineSet
478 132 m 128,-1,1
 478 187 478 187 516 225.5 c 128,-1,2
 554 264 554 264 608 264 c 128,-1,3
 662 264 662 264 700 225.5 c 128,-1,4
 738 187 738 187 738 132 c 128,-1,5
 738 77 738 77 700 38.5 c 128,-1,6
 662 0 662 0 608 0 c 128,-1,7
 554 0 554 0 516 38.5 c 128,-1,0
 478 77 478 77 478 132 c 128,-1,1
152 902 m 1,8,-1
 150 1021 l 1,9,10
 150 1210 150 1210 295 1362 c 128,-1,11
 440 1514 440 1514 644 1514 c 128,-1,12
 848 1514 848 1514 992.5 1369.5 c 128,-1,13
 1137 1225 1137 1225 1137 1021 c 1,14,-1
 1136 980 l 1,15,16
 1119 821 1119 821 957 713 c 0,17,18
 799 608 799 608 737 558 c 0,19,20
 657 494 657 494 657 427 c 0,21,22
 657 402 657 402 664 375 c 1,23,-1
 670 355 l 1,24,-1
 530 290 l 1,25,-1
 528 340 l 1,26,27
 528 343 l 0,28,29
 528 557 528 557 672 670 c 1,30,-1
 832 812 l 1,31,32
 938 910 938 910 940 1004 c 1,33,-1
 940 1014 l 1,34,35
 940 1248 940 1248 850 1338 c 0,36,37
 764 1425 764 1425 642 1425 c 128,-1,38
 520 1425 520 1425 434 1339 c 0,39,40
 352 1257 352 1257 352 1014 c 2,41,-1
 352 992 l 1,42,-1
 152 902 l 1,8,-1
EndSplineSet
Validated: 1
EndChar

StartChar: at
Encoding: 64 64 35
Width: 1206
GlyphClass: 2
Flags: W
HStem: -390 94<486.605 797.574> 0 21G<655.5 757.444 864 907.636> 1020 100<491.72 774.192>
VStem: 150 198<-101.03 828.889> 398 208<194.031 389> 864 192<88 552 654 893.503>
LayerCount: 2
Fore
SplineSet
603 389 m 1,0,1
 603 332 603 332 606 276 c 0,2,3
 612 162 612 162 642 128 c 0,4,5
 673 93 673 93 702 90 c 0,6,7
 711 89 711 89 720 90 c 0,8,9
 772 95 772 95 833 180 c 1,10,-1
 748 0 l 1,11,12
 733 0 733 0 718 0 c 0,13,14
 593 0 593 0 508 94 c 0,15,16
 398 215 398 215 398 402 c 2,17,-1
 398 420 l 1,18,-1
 863 654 l 1,19,-1
 862 721 l 1,20,21
 857 901 857 901 788 964 c 0,22,23
 727 1020 727 1020 640 1020 c 0,24,25
 529 1020 529 1020 436 934 c 0,26,27
 348 852 348 852 348 620 c 2,28,-1
 348 110 l 2,29,30
 348 -123 348 -123 434 -209.5 c 128,-1,31
 520 -296 520 -296 642 -296 c 0,32,33
 754 -296 754 -296 834 -224 c 1,34,-1
 958 -277 l 1,35,36
 824 -390 824 -390 644 -390 c 0,37,38
 440 -390 440 -390 295 -245 c 128,-1,39
 150 -100 150 -100 150 104 c 2,40,-1
 151 626 l 2,41,42
 151 830 151 830 295.5 975 c 128,-1,43
 440 1120 440 1120 644 1120 c 0,44,45
 814 1120 814 1120 935 997 c 0,46,47
 1056 873 1056 873 1056 712 c 2,48,-1
 1056 88 l 1,49,-1
 864 0 l 1,50,-1
 864 395 l 1,51,-1
 864 552 l 1,52,-1
 603 389 l 1,0,1
EndSplineSet
Validated: 16385
EndChar

StartChar: A
Encoding: 65 65 36
Width: 1387
GlyphClass: 2
Flags: W
HStem: 0 21G<200.98 244.043 985.96 1029.04> 506 116<399 984> 1410 100<541.34 850.097>
VStem: 201 198<92 506 622 1224.03> 985 202<92 506 622 1222.59>
LayerCount: 2
Fore
SplineSet
397 1010 m 2,0,-1
 397 622 l 1,1,-1
 984 622 l 1,2,-1
 985 1010 l 1,3,4
 985 1010 985 1010 985 1015 c 0,5,6
 985 1239 985 1239 901 1324 c 0,7,8
 816 1410 816 1410 693 1410 c 0,9,10
 578 1410 578 1410 485 1324 c 0,11,12
 397 1243 397 1243 397 1010 c 2,0,-1
201 0 m 1,13,-1
 200 1016 l 2,14,15
 200 1220 200 1220 345 1365 c 128,-1,16
 490 1510 490 1510 694 1510 c 128,-1,17
 898 1510 898 1510 1043 1365 c 0,18,19
 1187 1221 1187 1221 1187 1019 c 2,20,-1
 1187 1016 l 1,21,-1
 1184 92 l 1,22,-1
 986 0 l 1,23,-1
 985 506 l 1,24,-1
 399 506 l 1,25,-1
 399 92 l 1,26,-1
 201 0 l 1,13,-1
EndSplineSet
Validated: 1
EndChar

StartChar: B
Encoding: 66 66 37
Width: 1308
GlyphClass: 2
Flags: W
HStem: 22 116<398 874.789> 764 114<398 782.125> 1368 120<400 811.219>
VStem: 200 198<138 764 878 1368> 888 191<1001.74 1288.82> 988 200<249.988 623.274>
LayerCount: 2
Fore
SplineSet
709 765 m 2,0,-1
 398 764 l 1,1,-1
 398 138 l 1,2,-1
 709 137 l 2,3,4
 848 137 848 137 924 223 c 0,5,6
 988 295 988 295 988 419 c 0,7,8
 988 442 988 442 986 464 c 0,9,10
 976 591 976 591 921 658 c 1,11,12
 831 765 831 765 709 765 c 2,0,-1
1188 429 m 0,13,14
 1188 264 1188 264 1064 149 c 1,15,16
 938 23 938 23 716 23 c 2,17,-1
 200 22 l 1,18,-1
 200 1402 l 1,19,-1
 400 1488 l 1,20,-1
 672 1488 l 2,21,22
 873 1488 873 1488 992 1370 c 0,23,24
 1079 1284 1079 1284 1079 1167 c 0,25,26
 1079 1153 1079 1153 1078 1138 c 0,27,28
 1067 980 1067 980 912 876 c 1,29,-1
 836 832 l 1,30,31
 928 814 928 814 1030 752 c 0,32,33
 1188 656 1188 656 1188 429 c 0,13,14
842 1291 m 1,34,35
 793 1367 793 1367 664 1367 c 2,36,-1
 397 1368 l 1,37,-1
 398 878 l 1,38,-1
 685 877 l 1,39,40
 760 884 760 884 838 981 c 0,41,42
 888 1043 888 1043 888 1156 c 0,43,44
 888 1158 888 1158 888 1160 c 0,45,46
 888 1242 888 1242 842 1291 c 1,34,35
EndSplineSet
Validated: 1
EndChar

StartChar: C
Encoding: 67 67 38
Width: 1388
GlyphClass: 2
Flags: W
HStem: 0 99<542.745 856.775> 1410 100<542.155 851.001>
VStem: 200 199<288.52 1218.89> 986 202<292.905 506.671 992 1221.48>
LayerCount: 2
Fore
SplineSet
986 500 m 1,0,-1
 1188 594 l 1,1,-1
 1187 494 l 2,2,3
 1185 288 1185 288 1043 145 c 0,4,5
 899 0 899 0 694 0 c 0,6,7
 490 0 490 0 345 145 c 256,8,9
 200 290 200 290 200 494 c 2,10,-1
 201 1016 l 2,11,12
 201 1220 201 1220 346 1365 c 128,-1,13
 491 1510 491 1510 694 1510 c 0,14,15
 898 1510 898 1510 1043 1365 c 256,16,17
 1188 1220 1188 1220 1188 1016 c 2,18,-1
 1188 992 l 1,19,-1
 988 898 l 1,20,-1
 986 1010 l 2,21,22
 982 1241 982 1241 902 1324 c 0,23,24
 819 1410 819 1410 694 1410 c 0,25,26
 579 1410 579 1410 486 1324 c 0,27,28
 398 1242 398 1242 398 1010 c 2,29,-1
 399 499 l 2,30,31
 399 267 399 267 487 186 c 0,32,33
 582 99 582 99 695 99 c 0,34,35
 831 99 831 99 903 186 c 0,36,37
 988 287 988 287 988 468 c 0,38,39
 988 493 988 493 986 500 c 1,0,-1
EndSplineSet
Validated: 1
EndChar

StartChar: D
Encoding: 68 68 39
Width: 1408
GlyphClass: 2
Flags: W
HStem: 22 116<398 869.016> 1375 115<397 879.309>
VStem: 200 198<138 1374> 1001 206<298.883 1223.78>
LayerCount: 2
Fore
SplineSet
708 1375 m 1,0,-1
 397 1374 l 1,1,-1
 398 138 l 1,2,-1
 709 138 l 2,3,4
 874 138 874 138 940 264 c 0,5,6
 998 375 998 375 1001 494 c 1,7,-1
 1003 1015 l 2,8,9
 1003 1138 1003 1138 952 1248 c 0,10,11
 893 1375 893 1375 710 1375 c 2,12,-1
 708 1375 l 1,0,-1
397 1492 m 1,13,-1
 713 1490 l 1,14,15
 938 1490 938 1490 1063 1365 c 0,16,17
 1208 1220 1208 1220 1208 1016 c 2,18,-1
 1207 494 l 1,19,20
 1204 287 1204 287 1063 146 c 0,21,22
 940 23 940 23 714 23 c 2,23,-1
 200 22 l 1,24,-1
 200 1402 l 1,25,-1
 397 1492 l 1,13,-1
EndSplineSet
Validated: 1
EndChar

StartChar: E
Encoding: 69 69 40
Width: 1100
GlyphClass: 2
Flags: W
HStem: 22 116<398 996> 696 118<398 907> 1374 117<398 903>
VStem: 200 198<138 696 814 1374>
LayerCount: 2
Fore
SplineSet
398 1374 m 1,0,-1
 398 814 l 1,1,-1
 958 814 l 1,2,-1
 907 696 l 1,3,-1
 398 696 l 1,4,-1
 398 138 l 1,5,-1
 1050 138 l 1,6,-1
 996 22 l 1,7,-1
 200 22 l 1,8,-1
 200 1402 l 1,9,-1
 398 1491 l 1,10,-1
 958 1490 l 1,11,-1
 903 1373 l 1,12,-1
 398 1374 l 1,0,-1
EndSplineSet
Validated: 1
EndChar

StartChar: F
Encoding: 70 70 41
Width: 1058
GlyphClass: 2
Flags: W
HStem: 0 21G<202.957 246.371> 696 118<398 907> 1371 120<399 904>
VStem: 203 195<89 696 814 1371>
LayerCount: 2
Fore
SplineSet
398 1491 m 1,0,-1
 958 1490 l 1,1,-1
 904 1371 l 1,2,-1
 399 1371 l 1,3,-1
 398 814 l 1,4,-1
 958 814 l 1,5,-1
 907 696 l 1,6,-1
 398 696 l 1,7,-1
 396 89 l 1,8,-1
 203 0 l 1,9,-1
 200 1402 l 1,10,-1
 398 1491 l 1,0,-1
EndSplineSet
Validated: 19457
EndChar

StartChar: G
Encoding: 71 71 42
Width: 1388
GlyphClass: 2
Flags: W
HStem: 0 99<542.34 857.339> 696 120<698 986> 1410 100<541.84 850.799>
VStem: 200 199<288.52 1221.48> 986 202<292.407 698 992 1221.48>
LayerCount: 2
Fore
SplineSet
398 1010 m 2,0,-1
 399 499 l 2,1,2
 399 267 399 267 487 186 c 0,3,4
 580 99 580 99 695 99 c 0,5,6
 835 99 835 99 903 186 c 0,7,8
 987 293 987 293 987 469 c 0,9,10
 987 485 987 485 986 500 c 1,11,-1
 986 698 l 1,12,-1
 640 696 l 1,13,-1
 698 816 l 1,14,-1
 1178 816 l 1,15,-1
 1187 494 l 1,16,17
 1184 287 1184 287 1043 145 c 0,18,19
 898 0 898 0 694 0 c 128,-1,20
 490 0 490 0 345 145 c 256,21,22
 200 290 200 290 200 494 c 2,23,-1
 201 1016 l 2,24,25
 201 1220 201 1220 345 1365 c 0,26,27
 490 1510 490 1510 694 1510 c 128,-1,28
 898 1510 898 1510 1043 1365 c 256,29,30
 1188 1220 1188 1220 1188 1016 c 2,31,-1
 1188 992 l 1,32,-1
 988 898 l 1,33,-1
 986 1010 l 2,34,35
 982 1241 982 1241 902 1324 c 0,36,37
 818 1410 818 1410 694 1410 c 0,38,39
 579 1410 579 1410 486 1324 c 0,40,41
 398 1242 398 1242 398 1010 c 2,0,-1
EndSplineSet
Validated: 1
EndChar

StartChar: H
Encoding: 72 72 43
Width: 1389
GlyphClass: 2
Flags: W
HStem: 0 21G<200 243.111 993.943 1036.64> 696 116<400 990> 1492 20G<354 398 1144 1188.99>
VStem: 200 198<90 696 812 1422> 994 194<91 696 812 1423>
LayerCount: 2
Fore
SplineSet
394 90 m 1,0,-1
 200 0 l 1,1,-1
 200 1422 l 1,2,-1
 398 1512 l 1,3,-1
 398 812 l 1,4,-1
 990 812 l 1,5,-1
 991 1423 l 1,6,-1
 1189 1511 l 1,7,-1
 1188 91 l 1,8,-1
 994 0 l 1,9,-1
 992 696 l 1,10,-1
 400 696 l 1,11,-1
 394 90 l 1,0,-1
EndSplineSet
Validated: 1
EndChar

StartChar: I
Encoding: 73 73 44
Width: 598
GlyphClass: 2
Flags: W
HStem: 0 21G<200 244.545> 1492 20G<354 397.972>
VStem: 200 196<88 1422>
LayerCount: 2
Fore
SplineSet
396 88 m 1,0,-1
 200 0 l 1,1,-1
 200 1422 l 1,2,-1
 398 1512 l 1,3,-1
 396 88 l 1,0,-1
EndSplineSet
Validated: 1
EndChar

StartChar: J
Encoding: 74 74 45
Width: 1074
GlyphClass: 2
Flags: W
HStem: 0 86<330.486 594.78> 1490 20G<830 873.964>
VStem: 50 194<215.138 412> 678 194<226.735 1420>
LayerCount: 2
Fore
SplineSet
678 403 m 2,0,-1
 678 422 l 1,1,-1
 676 1420 l 1,2,-1
 874 1510 l 1,3,-1
 872 414 l 2,4,5
 872 246 872 246 751 123 c 256,6,7
 630 0 630 0 460 0 c 0,8,9
 302 0 302 0 170 119 c 0,10,11
 50 228 50 228 50 406 c 2,12,-1
 50 412 l 1,13,-1
 242 496 l 1,14,-1
 244 401 l 2,15,16
 248 205 248 205 314 142 c 1,17,18
 375 86 375 86 462 86 c 0,19,20
 560 86 560 86 618 150 c 0,21,22
 678 215 678 215 678 403 c 2,0,-1
EndSplineSet
Validated: 16385
EndChar

StartChar: K
Encoding: 75 75 46
Width: 1306
GlyphClass: 2
Flags: W
HStem: 0 21G<200 243.556 914 957.146> 843 79<647.12 800.799> 1490 20G<353 398 994.099 1039.06>
VStem: 200 196<90 725.329 828 1422> 914 192<89 727.076>
DStem2: 398 828 646 922 0.666922 0.745128<235.439 920.648>
LayerCount: 2
Fore
SplineSet
914 534 m 2,0,1
 914 692 914 692 832 778 c 1,2,3
 772 843 772 843 656 843 c 0,4,5
 561 843 561 843 478 770 c 0,6,7
 396 698 396 698 396 535 c 0,8,9
 396 533 396 533 396 531 c 2,10,-1
 396 90 l 1,11,-1
 200 0 l 1,12,-1
 200 1422 l 1,13,-1
 398 1510 l 1,14,-1
 398 828 l 1,15,-1
 1012 1514 l 1,16,-1
 1104 1446 l 1,17,-1
 646 922 l 1,18,19
 877 911 877 911 986 818 c 1,20,21
 1106 719 1106 719 1106 531 c 2,22,-1
 1106 89 l 1,23,-1
 914 0 l 1,24,25
 914 18 914 18 914 214 c 2,26,-1
 914 534 l 2,0,1
EndSplineSet
Validated: 1
EndChar

StartChar: L
Encoding: 76 76 47
Width: 1055
GlyphClass: 2
Flags: W
HStem: 22 116<398 996> 1492 20G<354 398>
VStem: 200 198<138 1422>
LayerCount: 2
Fore
SplineSet
200 1422 m 1,0,-1
 398 1512 l 1,1,-1
 398 138 l 1,2,-1
 1050 138 l 1,3,-1
 996 22 l 1,4,-1
 200 22 l 1,5,-1
 200 1422 l 1,0,-1
EndSplineSet
Validated: 1
EndChar

StartChar: M
Encoding: 77 77 48
Width: 2177
GlyphClass: 2
Flags: W
HStem: 0 21G<200.02 243.043 986 1029.04 1772 1816.57> 1410 100<542.34 849.503 1311.74 1649.39>
VStem: 200 198<92 1218.89> 986 198<92 1264.48> 1772 205<92 1217.87>
LayerCount: 2
Fore
SplineSet
1184 1020 m 2,0,-1
 1184 92 l 1,1,-1
 986 0 l 1,2,-1
 986 1010 l 2,3,4
 986 1239 986 1239 902 1324 c 0,5,6
 816 1410 816 1410 694 1410 c 0,7,8
 579 1410 579 1410 486 1324 c 0,9,10
 398 1242 398 1242 398 1010 c 2,11,-1
 398 92 l 1,12,-1
 200 0 l 1,13,-1
 201 1016 l 2,14,15
 201 1220 201 1220 346 1365 c 128,-1,16
 491 1510 491 1510 695 1510 c 0,17,18
 905 1510 905 1510 1044 1365 c 0,19,20
 1067 1341 1067 1341 1086 1317 c 1,21,22
 1107 1343 1107 1343 1131 1367 c 0,23,24
 1276 1512 1276 1512 1480 1512 c 128,-1,25
 1684 1512 1684 1512 1829 1367 c 0,26,27
 1973 1223 1973 1223 1974 1018 c 2,28,-1
 1977 92 l 1,29,-1
 1772 0 l 1,30,-1
 1772 1020 l 2,31,32
 1772 1249 1772 1249 1688 1334 c 0,33,34
 1602 1420 1602 1420 1480 1420 c 0,35,36
 1365 1420 1365 1420 1272 1334 c 0,37,38
 1184 1253 1184 1253 1184 1020 c 2,0,-1
EndSplineSet
Validated: 1
EndChar

StartChar: N
Encoding: 78 78 49
Width: 1390
GlyphClass: 2
Flags: W
HStem: 0 21G<200.02 243.043 986 1029.87> 1410 100<542.34 850.895>
VStem: 200 198<92 1219.38> 986 204<93 1216.1>
LayerCount: 2
Fore
SplineSet
398 1010 m 2,0,-1
 398 92 l 1,1,-1
 200 0 l 1,2,-1
 201 1016 l 2,3,4
 201 1220 201 1220 346 1365 c 256,5,6
 491 1510 491 1510 695 1510 c 128,-1,7
 899 1510 899 1510 1044 1365 c 0,8,9
 1188 1220 1188 1220 1188 1016 c 2,10,-1
 1190 93 l 1,11,-1
 986 0 l 1,12,-1
 986 1010 l 2,13,14
 986 1240 986 1240 902 1324 c 0,15,16
 816 1410 816 1410 694 1410 c 0,17,18
 579 1410 579 1410 486 1324 c 0,19,20
 398 1243 398 1243 398 1010 c 2,0,-1
EndSplineSet
Validated: 1
EndChar

StartChar: O
Encoding: 79 79 50
Width: 1388
GlyphClass: 2
Flags: W
HStem: 0 94<536.605 846.979> 1410 100<541.878 850.395>
VStem: 200 198<288.97 1218.89> 986 201<288.129 1226.65>
LayerCount: 2
Fore
SplineSet
398 500 m 2,0,1
 398 267 398 267 484 180.5 c 128,-1,2
 570 94 570 94 692 94 c 0,3,4
 816 94 816 94 900 181 c 0,5,6
 980 265 980 265 986 500 c 1,7,-1
 986 1010 l 2,8,9
 986 1239 986 1239 902 1324 c 0,10,11
 816 1410 816 1410 694 1410 c 0,12,13
 579 1410 579 1410 486 1324 c 0,14,15
 398 1242 398 1242 398 1010 c 2,16,-1
 398 500 l 2,0,1
200 494 m 2,17,-1
 201 1016 l 2,18,19
 201 1220 201 1220 345.5 1365 c 128,-1,20
 490 1510 490 1510 694 1510 c 128,-1,21
 898 1510 898 1510 1043 1365 c 256,22,23
 1188 1220 1188 1220 1188 1016 c 2,24,-1
 1187 494 l 1,25,26
 1184 287 1184 287 1043 145 c 0,27,28
 898 0 898 0 694 0 c 128,-1,29
 490 0 490 0 345 145 c 128,-1,30
 200 290 200 290 200 494 c 2,17,-1
EndSplineSet
Validated: 1
EndChar

StartChar: P
Encoding: 80 80 51
Width: 1332
GlyphClass: 2
Flags: W
HStem: 0 21G<201.971 245.111> 524 113<401 855.005> 1375 112<398 858.047>
VStem: 202 196<90 524 637 1375> 1010 202<813.365 1202.49>
LayerCount: 2
Fore
SplineSet
202 0 m 1,0,-1
 200 1402 l 1,1,-1
 398 1487 l 1,2,-1
 716 1487 l 1,3,-1
 719 1487 l 2,4,5
 935 1487 935 1487 1071 1352 c 1,6,7
 1212 1210 1212 1210 1212 1019 c 0,8,9
 1212 1015 1212 1015 1212 1011 c 0,10,11
 1212 818 1212 818 1065 670 c 1,12,13
 920 526 920 526 716 525 c 2,14,-1
 398 524 l 1,15,-1
 396 90 l 1,16,-1
 202 0 l 1,0,-1
1010 1020 m 16,17,18
 1010 1023 l 0,19,20
 1010 1141 1010 1141 937 1251 c 0,21,22
 854 1376 854 1376 709 1376 c 2,23,-1
 398 1375 l 1,24,-1
 401 637 l 1,25,-1
 712 638 l 2,26,27
 843 638 843 638 933 753 c 24,28,29
 1009 850 1009 850 1010 1020 c 16,17,18
EndSplineSet
Validated: 1
EndChar

StartChar: Q
Encoding: 81 81 52
Width: 1388
GlyphClass: 2
Flags: W
HStem: 0 94<536.605 738.95> 1410 100<541.917 850.395>
VStem: 200 198<288.97 1218.89> 986 201<288.129 1226.65>
LayerCount: 2
Fore
SplineSet
200 494 m 2,0,-1
 201 1016 l 2,1,2
 201 1220 201 1220 346 1365 c 0,3,4
 490 1510 490 1510 694 1510 c 128,-1,5
 898 1510 898 1510 1043 1365 c 128,-1,6
 1188 1220 1188 1220 1188 1016 c 2,7,-1
 1187 494 l 1,8,9
 1184 287 1184 287 1043 145 c 0,10,11
 1018 120 1018 120 992 100 c 1,12,-1
 1146 -27 l 1,13,-1
 1028 -162 l 1,14,-1
 822 16 l 1,15,16
 761 0 761 0 694 0 c 0,17,18
 490 0 490 0 345 145 c 128,-1,19
 200 290 200 290 200 494 c 2,0,-1
398 500 m 2,20,21
 398 267 398 267 484 180.5 c 128,-1,22
 570 94 570 94 692 94 c 0,23,24
 711 94 711 94 729 96 c 1,25,-1
 719 105 l 1,26,-1
 834 231 l 1,27,-1
 898 178 l 1,28,-1
 900 181 l 1,29,30
 980 265 980 265 986 500 c 1,31,-1
 986 1010 l 2,32,33
 986 1239 986 1239 902 1324 c 0,34,35
 816 1410 816 1410 694 1410 c 0,36,37
 579 1410 579 1410 486 1324 c 0,38,39
 398 1242 398 1242 398 1010 c 2,40,-1
 398 500 l 2,20,21
EndSplineSet
Validated: 1
EndChar

StartChar: R
Encoding: 82 82 53
Width: 1357
GlyphClass: 2
Flags: W
HStem: 0 21G<200.986 244.596 989.391 1045.29> 524 114<396 671> 1375 112<396 865.748>
VStem: 201 195<89 524 638 1375> 1008 199<813.52 1202.78>
DStem2: 886 555 671 525 0.533326 -0.84591<0 531.346>
LayerCount: 2
Fore
SplineSet
396 1375 m 1,0,-1
 396 638 l 1,1,-1
 707 639 l 2,2,3
 850 639 850 639 941 773 c 0,4,5
 1008 873 1008 873 1008 1001 c 0,6,7
 1008 1010 l 1,8,9
 1005 1151 1005 1151 928 1268 c 0,10,11
 856 1376 856 1376 707 1376 c 2,12,-1
 396 1375 l 1,0,-1
395 89 m 1,13,-1
 201 0 l 1,14,-1
 200 1402 l 1,15,-1
 396 1488 l 1,16,-1
 396 1487 l 1,17,-1
 714 1487 l 1,18,-1
 717 1487 l 2,19,20
 943 1487 943 1487 1063 1368 c 1,21,22
 1207 1223 1207 1223 1207 1019 c 128,-1,23
 1207 815 1207 815 1063 670 c 1,24,25
 983 591 983 591 886 555 c 1,26,-1
 1186 85 l 1,27,-1
 1002 0 l 1,28,-1
 671 525 l 1,29,-1
 396 524 l 1,30,-1
 395 89 l 1,13,-1
EndSplineSet
Validated: 1
EndChar

StartChar: S
Encoding: 83 83 54
Width: 1327
GlyphClass: 2
Flags: W
HStem: -3 93<511.425 820.627> 1430 82<499.593 756.171>
VStem: 170 202<285.016 514> 219 190<1081 1284.18> 847 194<1088 1297.32> 959 198<284.67 602.637>
DStem2: 492 992 384 830 0.936913 -0.349564<-86.6678 549.989>
LayerCount: 2
Fore
SplineSet
170 514 m 1,0,-1
 370 608 l 1,1,-1
 372 497 l 2,2,3
 376 258 376 258 458 176 c 0,4,5
 544 90 544 90 666 90 c 0,6,7
 787 90 787 90 878 180 c 0,8,9
 959 260 959 260 959 430 c 0,10,-1
 959 434 l 0,11,12
 959 611 959 611 845 658 c 1,13,-1
 384 830 l 1,14,15
 243 894 243 894 220 1081 c 1,16,-1
 219 1098 l 1,17,18
 219 1266 219 1266 340 1389 c 128,-1,19
 461 1512 461 1512 631 1512 c 0,20,21
 790 1512 790 1512 921 1393 c 0,22,23
 1041 1284 1041 1284 1041 1106 c 2,24,-1
 1041 1088 l 1,25,-1
 850 1003 l 1,26,-1
 847 1111 l 2,27,28
 842 1305 842 1305 783 1366 c 0,29,30
 722 1430 722 1430 626 1430 c 0,31,32
 541 1430 541 1430 478 1374 c 0,33,34
 409 1313 409 1313 409 1185 c 0,35,36
 409 1180 409 1180 409 1174 c 0,37,38
 409 1021 409 1021 492 992 c 0,39,40
 571 964 571 964 939 832 c 0,41,42
 1137 761 1137 761 1157 507 c 1,43,-1
 1157 490 l 1,44,45
 1157 286 1157 286 1012.5 141.5 c 128,-1,46
 868 -3 868 -3 664 -3 c 128,-1,47
 460 -3 460 -3 315 141 c 1,48,49
 170 287 170 287 170 490 c 2,50,-1
 170 514 l 1,0,-1
EndSplineSet
Validated: 1
EndChar

StartChar: T
Encoding: 84 84 55
Width: 993
GlyphClass: 2
Flags: W
HStem: 0 21G<392.942 435.609> 1375 114<54 389 589 937>
VStem: 393 196<92 1375>
LayerCount: 2
Fore
SplineSet
589 92 m 1,0,-1
 393 0 l 1,1,-1
 389 1375 l 1,2,-1
 5 1375 l 1,3,-1
 54 1489 l 1,4,-1
 988 1491 l 1,5,-1
 937 1375 l 1,6,-1
 589 1375 l 1,7,-1
 589 92 l 1,0,-1
EndSplineSet
Validated: 1
EndChar

StartChar: U
Encoding: 85 85 56
Width: 1388
GlyphClass: 2
Flags: W
HStem: -2 94<539.403 852.717> 1491 20G<359.652 403.98 1142.56 1187.02>
VStem: 201 202<286.821 1419> 991 197<287.016 1421>
LayerCount: 2
Fore
SplineSet
991 498 m 1,0,-1
 987 1421 l 1,1,-1
 1187 1511 l 1,2,-1
 1188 492 l 2,3,4
 1188 289 1188 289 1043 143 c 0,5,6
 899 -2 899 -2 695 -2 c 128,-1,7
 491 -2 491 -2 346 143 c 0,8,9
 201 287 201 287 201 492 c 2,10,-1
 200 1419 l 1,11,-1
 404 1511 l 1,12,-1
 403 498 l 2,13,14
 403 265 403 265 489 178 c 0,15,16
 574 92 574 92 697 92 c 0,17,18
 821 92 821 92 905 179 c 0,19,20
 985 263 985 263 991 498 c 1,0,-1
EndSplineSet
Validated: 1
EndChar

StartChar: V
Encoding: 86 86 57
Width: 1064
GlyphClass: 2
Flags: W
HStem: 0 21G<421.11 469.892> 1491 20G<132.897 182.81 958.469 1020.29>
DStem2: 177 1511 5 1433 0.282492 -0.95927<26.2343 1329.79> 548 234 605 83 0.309672 0.950843<0 1340.14>
LayerCount: 2
Fore
SplineSet
605 83 m 1,0,-1
 427 0 l 1,1,-1
 5 1433 l 1,2,-1
 177 1511 l 1,3,-1
 548 234 l 1,4,-1
 965 1511 l 1,5,-1
 1059 1477 l 1,6,-1
 605 83 l 1,0,-1
EndSplineSet
Validated: 1
EndChar

StartChar: W
Encoding: 87 87 58
Width: 2180
GlyphClass: 2
Flags: W
HStem: -2 96<544.637 847.979 1328.1 1641.06> 1490 20G<360.914 404.862 1150.43 1194.9 1935.56 1979.98>
VStem: 202 196<286.52 1418> 986 204<247.715 1418> 1778 201<289.025 1420>
LayerCount: 2
Fore
SplineSet
398 500 m 1,0,1
 398 291 398 291 483.5 192.5 c 128,-1,2
 569 94 569 94 692 94 c 0,3,4
 816 94 816 94 900 181 c 0,5,6
 980 265 980 265 986 500 c 1,7,-1
 990 1418 l 1,8,-1
 1195 1510 l 1,9,-1
 1190 500 l 1,10,-1
 1190 495 l 2,11,12
 1190 266 1190 266 1276 180 c 128,-1,13
 1362 94 1362 94 1484 94 c 0,14,15
 1608 94 1608 94 1692 181 c 0,16,17
 1772 265 1772 265 1778 500 c 1,18,-1
 1780 1420 l 1,19,-1
 1980 1510 l 1,20,-1
 1979 495 l 2,21,22
 1979 290 1979 290 1834 146 c 0,23,24
 1688 1 1688 1 1485 1 c 0,25,26
 1281 1 1281 1 1136 146 c 0,27,28
 1112 170 1112 170 1092 196 c 1,29,30
 1071 169 1071 169 1045 143 c 0,31,32
 900 -2 900 -2 696 -2 c 128,-1,33
 492 -2 492 -2 347 143 c 256,34,35
 202 288 202 288 202 492 c 2,36,-1
 200 1418 l 1,37,-1
 405 1511 l 1,38,-1
 398 500 l 1,0,1
EndSplineSet
Validated: 1
EndChar

StartChar: X
Encoding: 88 88 59
Width: 1111
GlyphClass: 2
Flags: W
HStem: 0 21G<163.875 203.262 828.767 882.544> 1492 20G<222.595 278.539 899.87 936.455>
DStem2: 268 1512 100 1438 0.457082 -0.889424<0 671.385 929.589 1605.8> 102 64 192 0 0.487997 0.872845<0 678.941 979.16 1641.18>
LayerCount: 2
Fore
SplineSet
100 1438 m 1,0,-1
 268 1512 l 1,1,-1
 581 918 l 1,2,-1
 911 1511 l 1,3,-1
 995 1445 l 1,4,-1
 641 798 l 1,5,-1
 1011 79 l 1,6,-1
 839 0 l 1,7,-1
 531 602 l 1,8,-1
 192 0 l 1,9,-1
 102 64 l 1,10,-1
 469 710 l 1,11,-1
 100 1438 l 1,0,-1
EndSplineSet
Validated: 1
EndChar

StartChar: Y
Encoding: 89 89 60
Width: 1392
GlyphClass: 2
Flags: W
HStem: 0 21G<598.957 643.545> 1491 21G<360.596 404 1146.61 1191.82>
VStem: 200 204<739.033 1418> 599 196<88 471.196> 992 195<739.529 1422>
LayerCount: 2
Fore
SplineSet
992 956 m 1,0,-1
 990 1422 l 1,1,-1
 1192 1511 l 1,2,-1
 1187 946 l 2,3,4
 1185 740 1185 740 1042 597 c 0,5,6
 934 489 934 489 795 462 c 1,7,-1
 795 88 l 1,8,-1
 599 0 l 1,9,-1
 598 461 l 1,10,11
 457 488 457 488 345 597 c 0,12,13
 200 739 200 739 200 946 c 2,14,-1
 200 1418 l 1,15,-1
 404 1512 l 1,16,-1
 404 956 l 2,17,18
 404 723 404 723 490 636.5 c 128,-1,19
 576 550 576 550 698 550 c 0,20,21
 822 550 822 550 906 637 c 0,22,23
 986 721 986 721 992 956 c 1,0,-1
EndSplineSet
Validated: 1
EndChar

StartChar: Z
Encoding: 90 90 61
Width: 1233
GlyphClass: 2
Flags: W
HStem: 23 116<418 1024> 1375 116<286 818>
DStem2: 150 23 418 139 0.442438 0.896799<222.602 1509.81>
LayerCount: 2
Fore
SplineSet
418 139 m 1,0,-1
 1083 137 l 1,1,-1
 1024 23 l 1,2,-1
 150 23 l 1,3,-1
 818 1377 l 1,4,-1
 233 1375 l 1,5,-1
 286 1491 l 1,6,-1
 1082 1491 l 1,7,-1
 418 139 l 1,0,-1
EndSplineSet
Validated: 1
EndChar

StartChar: bracketleft
Encoding: 91 91 62
Width: 715
GlyphClass: 2
Flags: W
HStem: -297 116<356 652> 1695 120<347 651>
VStem: 150 206<-181 1695>
LayerCount: 2
Fore
SplineSet
356 -181 m 1,0,-1
 704 -179 l 1,1,-1
 652 -293 l 1,2,-1
 150 -297 l 1,3,-1
 150 1725 l 1,4,-1
 347 1815 l 1,5,-1
 705 1812 l 1,6,-1
 651 1696 l 1,7,-1
 347 1695 l 1,8,-1
 356 -181 l 1,0,-1
EndSplineSet
Validated: 1
EndChar

StartChar: backslash
Encoding: 92 92 63
Width: 1065
GlyphClass: 2
Flags: W
DStem2: 190 1690 10 1608 0.435903 -0.899994<0 1982.02>
LayerCount: 2
Fore
SplineSet
1055 -96 m 1,0,-1
 876 -180 l 1,1,-1
 10 1608 l 1,2,-1
 190 1690 l 1,3,-1
 1055 -96 l 1,0,-1
EndSplineSet
Validated: 1
EndChar

StartChar: bracketright
Encoding: 93 93 64
Width: 715
GlyphClass: 2
Flags: W
HStem: -294 116<64 368> 1699 116<63 359>
VStem: 368 197<-177 1699>
LayerCount: 2
Fore
SplineSet
359 1699 m 1,0,-1
 11 1697 l 1,1,-1
 63 1811 l 1,2,-1
 565 1815 l 1,3,-1
 565 -207 l 1,4,-1
 368 -297 l 1,5,-1
 10 -294 l 1,6,-1
 64 -178 l 1,7,-1
 368 -177 l 1,8,-1
 359 1699 l 1,0,-1
EndSplineSet
Validated: 1
EndChar

StartChar: asciicircum
Encoding: 94 94 65
Width: 1180
GlyphClass: 2
Flags: W
HStem: 1062 456
LayerCount: 2
Fore
SplineSet
80 1168 m 1,0,-1
 605 1518 l 1,1,-1
 1100 1168 l 1,2,-1
 926 1062 l 1,3,-1
 581 1281 l 1,4,-1
 224 1065 l 1,5,-1
 80 1168 l 1,0,-1
EndSplineSet
Validated: 1
EndChar

StartChar: underscore
Encoding: 95 95 66
Width: 1092
GlyphClass: 2
Flags: W
HStem: -537 196<172 922>
LayerCount: 2
Fore
SplineSet
172 -341 m 1,0,-1
 1012 -341 l 1,1,-1
 922 -537 l 1,2,-1
 80 -537 l 1,3,-1
 172 -341 l 1,0,-1
EndSplineSet
Validated: 1
EndChar

StartChar: grave
Encoding: 96 96 67
Width: 752
GlyphClass: 2
Flags: W
HStem: 987 522
VStem: 150 452
DStem2: 242 1509 150 1311 0.743294 -0.668965<64.072 484.33>
LayerCount: 2
Fore
SplineSet
242 1509 m 1,0,-1
 602 1185 l 1,1,-1
 510 987 l 1,2,-1
 150 1311 l 1,3,-1
 242 1509 l 1,0,-1
EndSplineSet
Validated: 16385
EndChar

StartChar: a
Encoding: 97 97 68
Width: 1083
GlyphClass: 2
Flags: W
HStem: -4 84<414.375 651.277> 1032 88<411.028 675.978>
VStem: 130 194<230.302 892.42> 762 191<90 898.155>
LayerCount: 2
Fore
SplineSet
760 397 m 2,0,-1
 758 719 l 2,1,2
 757 905 757 905 698 968 c 1,3,4
 640 1032 640 1032 542 1032 c 0,5,6
 457 1032 457 1032 394 976 c 0,7,8
 324 913 324 913 324 721 c 2,9,-1
 324 567 l 1,10,-1
 326 395 l 2,11,12
 328 199 328 199 396 136 c 0,13,14
 456 80 456 80 544 80 c 0,15,16
 636 80 636 80 730 183 c 1,17,-1
 644 0 l 1,18,19
 605 -4 605 -4 535 -4 c 0,20,21
 374 -4 374 -4 253 119 c 0,22,23
 133 241 133 241 132 410 c 2,24,-1
 130 706 l 1,25,26
 130 874 130 874 251 997 c 128,-1,27
 372 1120 372 1120 542 1120 c 0,28,29
 709 1120 709 1120 832 1001 c 0,30,31
 952 886 952 886 952 714 c 2,32,-1
 953 90 l 1,33,-1
 762 0 l 1,34,35
 762 0 762 0 760 397 c 2,0,-1
EndSplineSet
Validated: 16385
EndChar

StartChar: b
Encoding: 98 98 69
Width: 1104
GlyphClass: 2
Flags: W
HStem: -4 84<433.816 693.606> 1032 88<430.215 695.978> 1491 20G<304.484 348.089>
VStem: 150 194<230.302 945.084 1061 1420> 780 194<215.64 896.513>
LayerCount: 2
Fore
SplineSet
346 395 m 2,0,1
 348 199 348 199 416 136 c 0,2,3
 477 80 477 80 564 80 c 0,4,5
 662 80 662 80 720 144 c 1,6,7
 780 208 780 208 780 391 c 0,8,9
 780 394 780 394 780 397 c 2,10,-1
 778 719 l 2,11,12
 777 905 777 905 718 968 c 1,13,14
 660 1032 660 1032 562 1032 c 0,15,16
 477 1032 477 1032 414 976 c 0,17,18
 344 913 344 913 344 721 c 2,19,-1
 344 567 l 1,20,-1
 346 395 l 2,0,1
150 1420 m 1,21,-1
 348 1511 l 1,22,-1
 350 1061 l 1,23,24
 444 1120 444 1120 562 1120 c 0,25,26
 729 1120 729 1120 852 1001 c 0,27,28
 971 886 971 886 972 714 c 2,29,-1
 974 402 l 1,30,31
 974 231 974 231 854 115 c 0,32,33
 731 -4 731 -4 564 -4 c 0,34,35
 394 -4 394 -4 273 119 c 0,36,37
 153 241 153 241 152 410 c 2,38,-1
 150 706 l 1,39,-1
 150 1420 l 1,21,-1
EndSplineSet
Validated: 16385
EndChar

StartChar: c
Encoding: 99 99 70
Width: 1084
GlyphClass: 2
Flags: W
HStem: -4 88<413.809 687.309> 1034 86<407.251 671.764>
VStem: 130 194<228.403 893.018> 760 194<215.243 404 704 900.28>
LayerCount: 2
Fore
SplineSet
760 404 m 1,0,-1
 954 490 l 1,1,-1
 954 402 l 2,2,3
 954 231 954 231 834 115 c 0,4,5
 711 -4 711 -4 544 -4 c 0,6,7
 374 -4 374 -4 253 119 c 128,-1,8
 132 242 132 242 132 410 c 1,9,-1
 130 706 l 1,10,11
 130 874 130 874 251 997 c 128,-1,12
 372 1120 372 1120 542 1120 c 0,13,14
 700 1120 700 1120 832 1001 c 0,15,16
 952 892 952 892 952 714 c 2,17,-1
 952 704 l 1,18,-1
 758 617 l 1,19,-1
 758 719 l 2,20,21
 758 904 758 904 696 970 c 1,22,23
 638 1034 638 1034 540 1034 c 0,24,25
 451 1034 451 1034 392 978 c 0,26,27
 324 913 324 913 324 721 c 2,28,-1
 324 567 l 1,29,-1
 326 395 l 2,30,31
 328 205 328 205 398 140 c 0,32,33
 459 84 459 84 546 84 c 0,34,35
 646 84 646 84 712 148 c 0,36,37
 760 195 760 195 760 397 c 2,38,-1
 760 404 l 1,0,-1
EndSplineSet
Validated: 16385
EndChar

StartChar: d
Encoding: 100 100 71
Width: 1104
GlyphClass: 2
Flags: W
HStem: -4 84<413.816 673.606> 1032 88<411.028 676.229> 1490 20G<909 954>
VStem: 130 194<230.302 892.42> 760 194<215.64 945.31 1063 1422>
LayerCount: 2
Fore
SplineSet
326 395 m 2,0,1
 328 199 328 199 396 136 c 0,2,3
 457 80 457 80 544 80 c 0,4,5
 642 80 642 80 700 144 c 1,6,7
 760 208 760 208 760 391 c 0,8,9
 760 394 760 394 760 397 c 2,10,-1
 758 719 l 2,11,12
 757 905 757 905 698 968 c 1,13,14
 640 1032 640 1032 542 1032 c 0,15,16
 457 1032 457 1032 394 976 c 0,17,18
 324 913 324 913 324 721 c 2,19,-1
 324 567 l 1,20,-1
 326 395 l 2,0,1
753 1063 m 1,21,-1
 756 1422 l 1,22,-1
 954 1510 l 1,23,-1
 954 402 l 2,24,25
 954 231 954 231 834 115 c 0,26,27
 711 -4 711 -4 544 -4 c 0,28,29
 374 -4 374 -4 253 119 c 0,30,31
 133 241 133 241 132 410 c 2,32,-1
 130 706 l 1,33,34
 130 874 130 874 251 997 c 128,-1,35
 372 1120 372 1120 542 1120 c 0,36,37
 658 1120 658 1120 753 1063 c 1,21,-1
EndSplineSet
Validated: 16385
EndChar

StartChar: e
Encoding: 101 101 72
Width: 1084
GlyphClass: 2
Flags: W
HStem: -4 90<412.808 691.452> 1022 98<406.274 675.077>
VStem: 130 194<528 891.579> 760 194<215.302 406 722 900.845>
DStem2: 325 528 325 410 0.909819 0.415005<0 482.816>
LayerCount: 2
Fore
SplineSet
952 696 m 1,0,-1
 325 410 l 1,1,-1
 326 395 l 2,2,3
 339 197 339 197 398 142 c 0,4,5
 459 86 459 86 546 86 c 0,6,7
 659 86 659 86 712 150 c 0,8,9
 760 208 760 208 760 397 c 2,10,-1
 760 406 l 1,11,-1
 954 495 l 1,12,-1
 954 402 l 2,13,14
 954 231 954 231 834 115 c 0,15,16
 711 -4 711 -4 544 -4 c 0,17,18
 374 -4 374 -4 253 119 c 0,19,20
 133 241 133 241 132 410 c 2,21,-1
 130 706 l 1,22,23
 130 874 130 874 251 997 c 128,-1,24
 372 1120 372 1120 542 1120 c 0,25,26
 700 1120 700 1120 832 1001 c 0,27,28
 952 892 952 892 952 714 c 2,29,-1
 952 696 l 1,0,-1
748 722 m 1,30,31
 748 886 748 886 696 958 c 1,32,33
 638 1022 638 1022 540 1022 c 0,34,35
 451 1022 451 1022 392 966 c 0,36,37
 324 901 324 901 324 726 c 0,38,39
 324 724 324 724 324 721 c 2,40,-1
 325 528 l 1,41,-1
 748 722 l 1,30,31
EndSplineSet
Validated: 16385
EndChar

StartChar: f
Encoding: 102 102 73
Width: 691
GlyphClass: 2
Flags: W
HStem: 0 21G<150.055 192.609> 988 116<347 625> 1423 88<400.412 576.588>
VStem: 153 194<92 988 1104 1309.33>
LayerCount: 2
Fore
SplineSet
150 0 m 1,0,-1
 153 1096 l 2,1,2
 154 1285 154 1285 255 1398 c 128,-1,3
 356 1511 356 1511 496 1511 c 2,4,-1
 504 1511 l 2,5,6
 612 1511 612 1511 681 1436 c 1,7,-1
 602 1255 l 1,8,9
 603 1271 603 1271 603 1296 c 0,10,11
 603 1341 603 1341 585 1370 c 0,12,13
 552 1423 552 1423 492 1423 c 0,14,15
 430 1423 430 1423 392 1371 c 0,16,17
 347 1310 347 1310 347 1111 c 2,18,-1
 347 1104 l 1,19,-1
 679 1104 l 1,20,-1
 625 988 l 1,21,-1
 347 988 l 9,22,-1
 346 92 l 17,23,-1
 150 0 l 1,0,-1
EndSplineSet
Validated: 1
EndChar

StartChar: g
Encoding: 103 103 74
Width: 1104
GlyphClass: 2
Flags: W
HStem: -400 84<411.213 669.83> -7 87<412.809 677.2> 1032 85<412.058 674.959>
VStem: 130 194<227.302 888.593> 760 194<-171.714 54 164.353 892.952>
LayerCount: 2
Fore
SplineSet
760 -1 m 2,0,-1
 760 22 l 1,1,-1
 760 54 l 1,2,3
 663 -7 663 -7 544 -7 c 0,4,5
 374 -7 374 -7 253 116 c 0,6,7
 133 238 133 238 132 407 c 2,8,-1
 130 703 l 1,9,10
 130 871 130 871 251 994 c 128,-1,11
 372 1117 372 1117 542 1117 c 0,12,13
 709 1117 709 1117 832 998 c 0,14,15
 951 883 951 883 952 711 c 2,16,-1
 954 399 l 2,17,18
 954 384 954 384 953 368 c 1,19,-1
 954 14 l 2,20,21
 954 -155 954 -155 833 -277 c 0,22,23
 711 -400 711 -400 550 -400 c 0,24,25
 546 -400 546 -400 542 -400 c 0,26,27
 367 -385 367 -385 252 -279 c 1,28,-1
 331 -98 l 1,29,30
 339 -196 339 -196 386 -252 c 1,31,32
 444 -316 444 -316 542 -316 c 0,33,34
 629 -316 629 -316 690 -260 c 0,35,36
 760 -197 760 -197 760 -1 c 2,0,-1
326 395 m 2,37,38
 328 199 328 199 396 136 c 0,39,40
 457 80 457 80 544 80 c 0,41,42
 642 80 642 80 700 144 c 1,43,44
 760 208 760 208 760 391 c 0,45,46
 760 394 760 394 760 397 c 2,47,-1
 758 719 l 2,48,49
 757 905 757 905 698 968 c 1,50,51
 640 1032 640 1032 542 1032 c 0,52,53
 457 1032 457 1032 394 976 c 0,54,55
 324 913 324 913 324 721 c 2,56,-1
 324 567 l 1,57,-1
 326 395 l 2,37,38
EndSplineSet
Validated: 16385
EndChar

StartChar: h
Encoding: 104 104 75
Width: 1108
GlyphClass: 2
Flags: W
HStem: 0 21G<153.944 197.146 785.861 829.146> 1032 88<433.924 698.978> 1490 20G<301.667 344.956>
VStem: 154 192<89 942.9 1055 1420> 786 192<89 893.824>
LayerCount: 2
Fore
SplineSet
978 89 m 1,0,-1
 786 0 l 1,1,-1
 781 719 l 2,2,3
 780 905 780 905 721 968 c 1,4,5
 663 1032 663 1032 565 1032 c 0,6,7
 481 1032 481 1032 417 976 c 0,8,9
 346 915 346 915 346 720 c 2,10,-1
 346 89 l 1,11,-1
 154 0 l 1,12,-1
 150 1420 l 1,13,-1
 345 1510 l 1,14,-1
 344 1055 l 1,15,16
 442 1120 442 1120 565 1120 c 0,17,18
 732 1120 732 1120 855 1001 c 0,19,20
 974 886 974 886 975 714 c 2,21,-1
 978 89 l 1,0,-1
EndSplineSet
Validated: 16385
EndChar

StartChar: i
Encoding: 105 105 76
Width: 498
GlyphClass: 2
Flags: W
HStem: 0 21G<150.019 193.043> 1100 20G<300.333 347.019> 1248 264<158.191 339.809>
VStem: 119 260<1287.71 1472.29> 150 198<92 1036>
LayerCount: 2
Fore
SplineSet
119 1380 m 128,-1,1
 119 1435 119 1435 157 1473.5 c 128,-1,2
 195 1512 195 1512 249 1512 c 128,-1,3
 303 1512 303 1512 341 1473.5 c 128,-1,4
 379 1435 379 1435 379 1380 c 128,-1,5
 379 1325 379 1325 341 1286.5 c 128,-1,6
 303 1248 303 1248 249 1248 c 128,-1,7
 195 1248 195 1248 157 1286.5 c 128,-1,0
 119 1325 119 1325 119 1380 c 128,-1,1
348 92 m 1,8,-1
 150 0 l 1,9,-1
 151 1036 l 1,10,-1
 347 1120 l 1,11,-1
 348 92 l 1,8,-1
EndSplineSet
Validated: 16385
EndChar

StartChar: j
Encoding: 106 106 77
Width: 497
GlyphClass: 2
Flags: W
HStem: -395 96<26 93.7344> 1100 20G<300.333 347> 1248 264<158.191 339.809>
VStem: 119 260<1287.71 1472.29> 154 193<-174.043 1036>
LayerCount: 2
Fore
SplineSet
119 1380 m 128,-1,1
 119 1435 119 1435 157 1473.5 c 128,-1,2
 195 1512 195 1512 249 1512 c 128,-1,3
 303 1512 303 1512 341 1473.5 c 128,-1,4
 379 1435 379 1435 379 1380 c 128,-1,5
 379 1325 379 1325 341 1286.5 c 128,-1,6
 303 1248 303 1248 249 1248 c 128,-1,7
 195 1248 195 1248 157 1286.5 c 128,-1,0
 119 1325 119 1325 119 1380 c 128,-1,1
26 -299 m 17,8,9
 51 -292 51 -292 88 -260 c 0,10,11
 154 -203 154 -203 154 2 c 2,12,-1
 154 23 l 1,13,-1
 151 1036 l 1,14,-1
 347 1120 l 1,15,-1
 347 14 l 2,16,17
 347 -155 347 -155 226 -277 c 0,18,19
 128 -376 128 -376 5 -395 c 9,20,21
 26 -299 l 17,8,9
EndSplineSet
Validated: 1
EndChar

StartChar: k
Encoding: 107 107 78
Width: 1102
GlyphClass: 2
Flags: W
HStem: 0 21G<151.972 194.637 779.892 822.667> 1102 20G<858.415 899.321> 1492 20G<296.581 340.975>
VStem: 152 192<91 591.17 712 1426> 780 192<90 550.013>
DStem2: 340 712 566 758 0.799119 0.601172<208.255 679.655>
LayerCount: 2
Fore
SplineSet
344 371 m 2,0,-1
 346 91 l 1,1,-1
 152 0 l 1,2,-1
 150 1426 l 1,3,-1
 341 1512 l 1,4,-1
 340 712 l 1,5,-1
 885 1122 l 1,6,-1
 943 1041 l 1,7,-1
 566 758 l 1,8,9
 765 737 765 737 850 655 c 0,10,11
 969 540 969 540 970 368 c 2,12,-1
 972 90 l 1,13,-1
 780 0 l 1,14,-1
 778 369 l 2,15,16
 777 555 777 555 718 618 c 1,17,18
 660 682 660 682 562 682 c 0,19,20
 465 682 465 682 414 626 c 0,21,22
 344 549 344 549 344 386 c 0,23,24
 344 385 344 385 344 371 c 2,0,-1
EndSplineSet
Validated: 16385
EndChar

StartChar: l
Encoding: 108 108 79
Width: 494
GlyphClass: 2
Flags: W
HStem: 0 21G<150 192.198> 1491 20G<300.889 343.972>
VStem: 150 192<91 1421>
LayerCount: 2
Fore
SplineSet
342 91 m 1,0,-1
 150 0 l 1,1,-1
 150 1421 l 1,2,-1
 344 1511 l 1,3,-1
 342 91 l 1,0,-1
EndSplineSet
Validated: 1
EndChar

StartChar: m
Encoding: 109 109 80
Width: 1715
GlyphClass: 2
Flags: W
HStem: 0 21G<133.887 177.636 762.861 805.418 1393.83 1436.92> 1032 88<411.028 674.618 1029.47 1314.57>
VStem: 134 192<88 898.422> 763 193<91 938.358> 1394 191<89 901.824>
LayerCount: 2
Fore
SplineSet
1582 722 m 2,0,-1
 1585 89 l 1,1,-1
 1394 0 l 1,2,-1
 1388 727 l 2,3,4
 1386 915 1386 915 1328 976 c 1,5,6
 1270 1040 1270 1040 1172 1040 c 0,7,8
 1087 1040 1087 1040 1024 984 c 0,9,10
 954 921 954 921 954 729 c 2,11,-1
 956 91 l 1,12,-1
 763 0 l 1,13,-1
 758 719 l 2,14,15
 757 904 757 904 698 968 c 0,16,17
 640 1032 640 1032 542 1032 c 0,18,19
 457 1032 457 1032 394 976 c 0,20,21
 324 913 324 913 324 721 c 2,22,-1
 326 88 l 1,23,-1
 134 0 l 1,24,-1
 130 706 l 2,25,26
 130 874 130 874 251 997 c 128,-1,27
 372 1120 372 1120 542 1120 c 0,28,29
 713 1120 713 1120 832 1001 c 0,30,31
 844 989 844 989 855 977 c 1,32,33
 867 991 867 991 881 1005 c 0,34,35
 1004 1128 1004 1128 1172 1128 c 0,36,37
 1339 1128 1339 1128 1462 1009 c 0,38,39
 1581 894 1581 894 1582 722 c 2,0,-1
EndSplineSet
Validated: 16385
EndChar

StartChar: n
Encoding: 110 110 81
Width: 1085
GlyphClass: 2
Flags: W
HStem: 0 21G<135.83 178.667 758.972 802.077> 1032 88<410.918 675.978>
VStem: 130 194<90 893.446> 759 196<91 893.824>
LayerCount: 2
Fore
SplineSet
955 91 m 1,0,-1
 759 0 l 1,1,-1
 758 719 l 2,2,3
 758 905 758 905 698 968 c 1,4,5
 640 1032 640 1032 542 1032 c 0,6,7
 456 1032 456 1032 394 976 c 0,8,9
 324 913 324 913 324 726 c 0,10,11
 324 724 324 724 324 721 c 2,12,-1
 328 90 l 1,13,-1
 136 0 l 1,14,-1
 130 706 l 1,15,16
 130 874 130 874 251 997 c 128,-1,17
 372 1120 372 1120 542 1120 c 0,18,19
 709 1120 709 1120 832 1001 c 0,20,21
 951 886 951 886 952 714 c 2,22,-1
 955 91 l 1,0,-1
EndSplineSet
Validated: 16385
EndChar

StartChar: o
Encoding: 111 111 82
Width: 1084
GlyphClass: 2
Flags: W
HStem: -4 84<413.816 673.606> 1032 88<411.028 675.978>
VStem: 130 194<228.236 892.42> 760 194<215.64 896.513>
LayerCount: 2
Fore
SplineSet
326 395 m 2,0,1
 328 199 328 199 396 136 c 0,2,3
 457 80 457 80 544 80 c 0,4,5
 642 80 642 80 700 144 c 1,6,7
 760 208 760 208 760 391 c 0,8,9
 760 394 760 394 760 397 c 2,10,-1
 758 719 l 2,11,12
 757 905 757 905 698 968 c 1,13,14
 640 1032 640 1032 542 1032 c 0,15,16
 457 1032 457 1032 394 976 c 0,17,18
 324 913 324 913 324 721 c 2,19,-1
 324 567 l 1,20,-1
 326 395 l 2,0,1
954 402 m 1,21,22
 954 231 954 231 834 115 c 0,23,24
 711 -4 711 -4 544 -4 c 0,25,26
 374 -4 374 -4 253 119 c 128,-1,27
 132 242 132 242 132 410 c 1,28,-1
 130 706 l 1,29,30
 130 874 130 874 251 997 c 128,-1,31
 372 1120 372 1120 542 1120 c 0,32,33
 709 1120 709 1120 832 1001 c 0,34,35
 951 886 951 886 952 714 c 2,36,-1
 954 402 l 1,21,22
EndSplineSet
Validated: 16385
EndChar

StartChar: p
Encoding: 112 112 83
Width: 1104
GlyphClass: 2
Flags: W
HStem: -398 21G<155.892 200.494> -4 84<434.282 693.413> 1032 88<430.834 695.799>
VStem: 150 194<-309 53 172.837 899.885> 780 194<222.777 885.698>
LayerCount: 2
Fore
SplineSet
346 395 m 2,0,1
 348 199 348 199 416 136 c 0,2,3
 477 80 477 80 564 80 c 0,4,5
 662 80 662 80 720 144 c 1,6,7
 780 208 780 208 780 391 c 0,8,9
 780 394 780 394 780 397 c 2,10,-1
 778 719 l 2,11,12
 777 905 777 905 718 968 c 1,13,14
 660 1032 660 1032 562 1032 c 0,15,16
 477 1032 477 1032 414 976 c 0,17,18
 344 913 344 913 344 721 c 2,19,-1
 344 567 l 1,20,-1
 346 395 l 2,0,1
150 714 m 2,21,22
 150 885 150 885 270 1001 c 0,23,24
 393 1120 393 1120 560 1120 c 0,25,26
 730 1120 730 1120 851 997 c 0,27,28
 971 875 971 875 972 706 c 2,29,-1
 974 410 l 1,30,31
 974 242 974 242 853 119 c 128,-1,32
 732 -4 732 -4 562 -4 c 0,33,34
 446 -4 446 -4 351 53 c 1,35,-1
 354 -309 l 1,36,-1
 156 -398 l 1,37,-1
 150 714 l 2,21,22
EndSplineSet
Validated: 16385
EndChar

StartChar: q
Encoding: 113 113 84
Width: 1104
GlyphClass: 2
Flags: HW
HStem: -399 21G<750.177 789.435> -6 86<412.615 676.872> 1032 86<410.834 674.78>
VStem: 130 194<216.582 899.885> 760 194<-93.1859 53 164.353 883.769>
LayerCount: 2
Fore
SplineSet
326 395 m 2,0,1
 328 199 328 199 396 136 c 0,2,3
 457 80 457 80 544 80 c 0,4,5
 642 80 642 80 700 144 c 1,6,7
 760 208 760 208 760 391 c 2,8,-1
 760 397 l 1,9,-1
 758 719 l 2,10,11
 757 905 757 905 698 968 c 1,12,13
 640 1032 640 1032 542 1032 c 0,14,15
 457 1032 457 1032 394 976 c 0,16,17
 324 913 324 913 324 721 c 2,18,-1
 324 567 l 1,19,-1
 326 395 l 2,0,1
750 -399 m 1,20,-1
 754 53 l 1,21,22
 660 -6 660 -6 542 -6 c 0,23,24
 375 -6 375 -6 252 113 c 0,25,26
 133 228 133 228 132 400 c 2,27,-1
 130 712 l 1,28,29
 130 883 130 883 250 999 c 0,30,31
 373 1118 373 1118 540 1118 c 0,32,33
 710 1118 710 1118 831 995 c 0,34,35
 951 873 951 873 952 704 c 2,36,-1
 954 408 l 1,37,-1
 952 -93 l 1,38,-1
 1099 -24 l 1,39,-1
 1099 -222 l 1,40,-1
 750 -399 l 1,20,-1
EndSplineSet
Validated: 19457
EndChar

StartChar: r
Encoding: 114 114 85
Width: 686
GlyphClass: 2
Flags: W
HStem: 0 21G<150.085 192.609> 1032 88<400.412 576.588>
VStem: 153 194<92 920.783>
LayerCount: 2
Fore
SplineSet
150 0 m 1,0,-1
 153 705 l 2,1,2
 154 895 154 895 255 1007 c 0,3,4
 356 1120 356 1120 496 1120 c 0,5,6
 497 1120 497 1120 504 1120 c 0,7,8
 612 1120 612 1120 681 1045 c 1,9,-1
 602 864 l 1,10,11
 603 880 603 880 603 905 c 0,12,13
 603 950 603 950 585 979 c 8,14,15
 552 1032 552 1032 492 1032 c 0,16,17
 430 1032 430 1032 392 980 c 0,18,19
 347 919 347 919 347 720 c 2,20,-1
 347 697 l 1,21,-1
 346 92 l 1,22,-1
 150 0 l 1,0,-1
EndSplineSet
Validated: 1
EndChar

StartChar: s
Encoding: 115 115 86
Width: 1016
GlyphClass: 2
Flags: W
HStem: 0 106<388.437 658.566> 1012 94<393.517 619.789>
VStem: 120 196<190.406 356> 166 169<718.683 932.562> 674 192<796 949.125> 734 162<197.158 416.4>
DStem2: 460 678 378 517 0.967661 -0.252254<-121.584 322.688>
LayerCount: 2
Fore
SplineSet
120 356 m 1,0,-1
 312 442 l 1,1,-1
 316 352 l 2,2,3
 321 250 321 250 354 190 c 0,4,5
 402 106 402 106 514 106 c 0,6,7
 605 106 605 106 658 148 c 0,8,9
 734 208 734 208 734 309 c 0,10,11
 734 425 734 425 612 456 c 1,12,-1
 378 517 l 2,13,14
 192 565 192 565 169 719 c 1,15,16
 166 749 166 749 166 759 c 0,17,18
 166 889 166 889 248 986 c 0,19,20
 349 1106 349 1106 511 1106 c 0,21,22
 688 1106 688 1106 784 998 c 0,23,24
 866 906 866 906 866 814 c 2,25,-1
 866 796 l 1,26,-1
 674 711 l 1,27,-1
 674 754 l 2,28,29
 674 906 674 906 636 951 c 0,30,31
 585 1012 585 1012 508 1012 c 0,32,33
 433 1012 433 1012 392 968 c 24,34,35
 335 908 335 908 335 832 c 0,36,37
 335 718 335 718 444 683 c 1,38,-1
 460 678 l 1,39,-1
 669 627 l 1,40,41
 788 599 788 599 842 538 c 128,-1,42
 896 477 896 477 896 377 c 0,43,44
 896 226 896 226 791 110 c 0,45,46
 691 -0 691 -0 528 -0 c 0,47,48
 522 -0 522 -0 516 0 c 0,49,50
 341 -0 341 -0 226 113 c 0,51,52
 120 218 120 218 120 338 c 2,53,-1
 120 356 l 1,0,-1
EndSplineSet
Validated: 1
EndChar

StartChar: t
Encoding: 116 116 87
Width: 798
GlyphClass: 2
Flags: W
HStem: 0 21G<302.919 344.739> 990 113<58 299 493 740> 1492 20G<447.889 491>
VStem: 299 192<92 990 1104 1422>
LayerCount: 2
Fore
SplineSet
495 92 m 1,0,-1
 303 0 l 1,1,-1
 299 991 l 1,2,-1
 5 990 l 1,3,-1
 58 1104 l 1,4,-1
 299 1104 l 1,5,-1
 297 1422 l 1,6,-1
 491 1512 l 1,7,-1
 491 1103 l 1,8,-1
 793 1103 l 1,9,-1
 740 991 l 1,10,-1
 493 990 l 1,11,-1
 495 92 l 1,0,-1
EndSplineSet
Validated: 1
EndChar

StartChar: u
Encoding: 117 117 88
Width: 1084
GlyphClass: 2
Flags: W
HStem: 0 82<416.708 673.413> 1100 20G<277.439 325.028 906.857 954>
VStem: 132 194<220.059 1038> 760 194<228.433 1036>
LayerCount: 2
Fore
SplineSet
130 1038 m 1,0,-1
 325 1120 l 1,1,-1
 326 397 l 2,2,3
 326 204 326 204 396 138 c 0,4,5
 455 82 455 82 544 82 c 0,6,7
 642 82 642 82 700 146 c 1,8,9
 760 210 760 210 760 393 c 0,10,11
 760 396 760 396 760 399 c 2,12,-1
 756 1036 l 1,13,-1
 954 1120 l 1,14,-1
 954 414 l 2,15,16
 954 246 954 246 833 123 c 128,-1,17
 712 0 712 0 542 0 c 0,18,19
 375 0 375 0 252 119 c 0,20,21
 132 235 132 235 132 406 c 2,22,-1
 130 1038 l 1,0,-1
EndSplineSet
Validated: 16385
EndChar

StartChar: v
Encoding: 118 118 89
Width: 1064
GlyphClass: 2
Flags: W
HStem: 0 21G<457.615 509.333> 1100 20G<162.75 214.996 924.537 971.231>
DStem2: 207 1120 30 1040 0.386629 -0.922235<5.34542 1010.04> 582 182 648 84 0.365184 0.930935<0 989.872>
LayerCount: 2
Fore
SplineSet
648 84 m 1,0,-1
 466 0 l 1,1,-1
 30 1040 l 1,2,-1
 207 1120 l 1,3,-1
 582 182 l 1,4,-1
 932 1120 l 1,5,-1
 1034 1068 l 1,6,-1
 648 84 l 1,0,-1
EndSplineSet
Validated: 16385
EndChar

StartChar: w
Encoding: 119 119 90
Width: 1712
GlyphClass: 2
Flags: W
HStem: 0 82<415.768 674.712 1047.4 1299.33> 1100 20G<281.149 322.168 907.349 952.055 1534.42 1580.06>
VStem: 134 194<219.32 1026> 762 192<172.351 1034> 1388 194<226.777 1034>
CounterMasks: 1 38
LayerCount: 2
Fore
SplineSet
134 406 m 1,0,-1
 130 1026 l 1,1,-1
 322 1120 l 1,2,-1
 328 406 l 2,3,4
 329 199 329 199 396 138 c 0,5,6
 458 82 458 82 544 82 c 0,7,8
 642 82 642 82 700 146 c 1,9,10
 762 212 762 212 762 402 c 2,11,12
 762 402 762 402 762 408 c 2,13,-1
 760 1034 l 1,14,-1
 952 1120 l 1,15,-1
 954 399 l 2,16,17
 954 204 954 204 1024 140 c 0,18,19
 1085 84 1085 84 1172 84 c 0,20,21
 1270 84 1270 84 1328 148 c 1,22,23
 1388 212 1388 212 1388 395 c 2,24,-1
 1388 410 l 1,25,-1
 1384 1034 l 1,26,-1
 1580 1120 l 1,27,-1
 1582 414 l 2,28,29
 1582 246 1582 246 1461 123 c 128,-1,30
 1340 0 1340 0 1170 0 c 0,31,32
 999 0 999 0 880 119 c 0,33,34
 866 133 866 133 854 145 c 1,35,36
 847 136 847 136 834 123 c 0,37,38
 706 0 706 0 544 0 c 0,39,40
 377 0 377 0 254 119 c 0,41,42
 134 234 134 234 134 406 c 1,0,-1
EndSplineSet
Validated: 16385
EndChar

StartChar: x
Encoding: 120 120 91
Width: 972
GlyphClass: 2
Flags: W
HStem: 0 21G<86.9032 128.747 706.82 765> 1100 20G<167.892 229.059 832.201 881.571>
DStem2: 30 62 114 0 0.614146 0.789192<2.65833 2.65833 779.176 1337.34> 216 1120 38 1046 0.54617 -0.837674<0 523.106 693.71 1213.46>
LayerCount: 2
Fore
SplineSet
38 1046 m 1,0,-1
 216 1120 l 1,1,-1
 502 682 l 1,2,-1
 848 1120 l 1,3,-1
 942 1064 l 1,4,-1
 564 594 l 1,5,-1
 900 80 l 1,6,-1
 720 0 l 1,7,-1
 434 434 l 1,8,-1
 114 0 l 1,9,-1
 30 62 l 1,10,-1
 370 528 l 1,11,-1
 38 1046 l 1,0,-1
EndSplineSet
Validated: 16385
EndChar

StartChar: y
Encoding: 121 121 92
Width: 1103
GlyphClass: 2
Flags: W
HStem: -394 84<407.213 665.83> 0 80<415.339 671.22> 1101 20G<281.402 325.892 908.682 952.945>
VStem: 130 195<216.607 1034> 756 194<-165.714 61 159.69 1032>
LayerCount: 2
Fore
SplineSet
756 5 m 2,0,-1
 756 24 l 1,1,-1
 756 61 l 1,2,3
 660 0 660 0 540 0 c 0,4,5
 373 0 373 0 250 119 c 1,6,7
 130 233 130 233 130 403 c 2,8,9
 130 403 130 403 130 406 c 2,10,-1
 132 1034 l 1,11,-1
 326 1121 l 1,12,-1
 323 567 l 1,13,-1
 325 395 l 2,14,15
 327 199 327 199 395 136 c 0,16,17
 455 80 455 80 543 80 c 0,18,19
 641 80 641 80 699 144 c 0,20,21
 759 209 759 209 759 397 c 2,22,-1
 758 1032 l 1,23,-1
 953 1120 l 1,24,-1
 950 20 l 2,25,26
 950 -149 950 -149 829 -271 c 0,27,28
 707 -394 707 -394 546 -394 c 0,29,30
 542 -394 542 -394 538 -394 c 0,31,32
 363 -379 363 -379 248 -273 c 1,33,-1
 327 -92 l 1,34,35
 335 -190 335 -190 382 -246 c 1,36,37
 440 -310 440 -310 538 -310 c 0,38,39
 625 -310 625 -310 686 -254 c 0,40,41
 756 -191 756 -191 756 5 c 2,0,-1
EndSplineSet
Validated: 16385
EndChar

StartChar: z
Encoding: 122 122 93
Width: 1031
GlyphClass: 2
Flags: W
HStem: 12 114<358 881> 988 116<207 656>
DStem2: 100 12 358 126 0.490768 0.87129<225.945 1124.12>
LayerCount: 2
Fore
SplineSet
358 126 m 1,0,-1
 931 126 l 1,1,-1
 881 10 l 1,2,-1
 100 12 l 1,3,-1
 656 989 l 1,4,-1
 155 988 l 1,5,-1
 207 1104 l 1,6,-1
 910 1106 l 1,7,-1
 358 126 l 1,0,-1
EndSplineSet
Validated: 1
EndChar

StartChar: braceleft
Encoding: 123 123 94
Width: 959
GlyphClass: 2
Flags: W
HStem: -272 83<528.468 788.501> 689 120<76 246> 1703 84<531.17 789.787>
VStem: 246 194<-48.2852 689 809 1557.12>
LayerCount: 2
Fore
SplineSet
653 -272 m 0,0,1
 510 -272 510 -272 373 -150 c 0,2,3
 246 -37 246 -37 246 136 c 0,4,5
 246 138 246 138 246 141 c 2,6,-1
 247 238 l 1,7,-1
 246 689 l 1,8,-1
 10 689 l 1,9,-1
 76 809 l 1,10,-1
 246 809 l 1,11,-1
 247 1373 l 2,12,13
 247 1542 247 1542 368 1664 c 0,14,15
 490 1787 490 1787 651 1787 c 0,16,17
 655 1787 655 1787 659 1787 c 0,18,19
 834 1772 834 1772 949 1666 c 1,20,-1
 870 1485 l 1,21,22
 862 1583 862 1583 815 1639 c 1,23,24
 757 1703 757 1703 659 1703 c 0,25,26
 572 1703 572 1703 511 1647 c 0,27,28
 441 1584 441 1584 441 1388 c 2,29,-1
 440 126 l 2,30,31
 440 -70 440 -70 510 -133 c 0,32,33
 572 -189 572 -189 658 -189 c 0,34,35
 756 -189 756 -189 814 -125 c 1,36,37
 861 -69 861 -69 869 29 c 1,38,-1
 948 -152 l 1,39,40
 813 -272 813 -272 653 -272 c 0,0,1
EndSplineSet
Validated: 1
EndChar

StartChar: bar
Encoding: 124 124 95
Width: 537
GlyphClass: 2
Flags: W
VStem: 170 196<-98 1602>
LayerCount: 2
Fore
SplineSet
366 -98 m 1,0,-1
 170 -190 l 1,1,-1
 170 1602 l 1,2,-1
 368 1691 l 1,3,-1
 366 -98 l 1,0,-1
EndSplineSet
Validated: 1
EndChar

StartChar: braceright
Encoding: 125 125 96
Width: 959
GlyphClass: 2
Flags: W
HStem: -272 84<169.213 427.83> 706 120<713 883> 1704 83<170.499 430.532>
VStem: 519 194<-42.1182 706 826 1563.29>
LayerCount: 2
Fore
SplineSet
306 1787 m 0,0,1
 449 1787 449 1787 586 1665 c 0,2,3
 713 1552 713 1552 713 1379 c 0,4,5
 713 1377 713 1377 713 1374 c 2,6,-1
 712 1277 l 1,7,-1
 713 826 l 1,8,-1
 949 826 l 1,9,-1
 883 706 l 1,10,-1
 713 706 l 1,11,-1
 712 142 l 2,12,13
 712 -27 712 -27 591 -149 c 0,14,15
 469 -272 469 -272 308 -272 c 0,16,17
 304 -272 304 -272 300 -272 c 0,18,19
 125 -257 125 -257 10 -151 c 1,20,-1
 89 30 l 1,21,22
 97 -68 97 -68 144 -124 c 1,23,24
 202 -188 202 -188 300 -188 c 0,25,26
 387 -188 387 -188 448 -132 c 0,27,28
 518 -69 518 -69 518 127 c 2,29,-1
 519 1389 l 2,30,31
 519 1585 519 1585 449 1648 c 0,32,33
 387 1704 387 1704 301 1704 c 0,34,35
 203 1704 203 1704 145 1640 c 1,36,37
 98 1584 98 1584 90 1486 c 1,38,-1
 11 1667 l 1,39,40
 146 1787 146 1787 306 1787 c 0,0,1
EndSplineSet
Validated: 1
EndChar

StartChar: asciitilde
Encoding: 126 126 97
Width: 1116
GlyphClass: 2
Flags: W
HStem: 527 184<659.36 828.277> 676 183<307.308 474>
DStem2: 416 846 379 670 0.930468 -0.366372<4.91525 387.713>
LayerCount: 2
Fore
SplineSet
379 670 m 2,0,1
 365 676 365 676 354 676 c 0,2,3
 305 674 305 674 285 580 c 1,4,-1
 80 506 l 1,5,-1
 83 541 l 1,6,-1
 86 571 l 1,7,8
 112 846 112 846 342 859 c 0,9,10
 360 860 360 860 373 858 c 0,11,12
 388 856 388 856 416 846 c 0,13,14
 609 777 609 777 746 719 c 0,15,16
 765 711 765 711 780 711 c 0,17,18
 828 712 828 712 833 787 c 0,19,20
 834 802 834 802 834 808 c 1,21,-1
 1036 880 l 1,22,-1
 1035 845 l 1,23,-1
 1031 795 l 2,24,25
 1010 527 1010 527 796 527 c 0,26,27
 779 527 779 527 760 529 c 0,28,29
 727 532 727 532 699 544 c 2,30,-1
 379 670 l 2,0,1
EndSplineSet
Validated: 16385
EndChar

StartChar: exclamdown
Encoding: 161 161 99
Width: 600
GlyphClass: 2
Flags: W
HStem: 0 21G<202 246.944> 1248 264<209.191 390.809>
VStem: 170 260<1287.71 1472.29> 202 200<89 1108>
LayerCount: 2
Fore
SplineSet
430 1380 m 128,-1,1
 430 1325 430 1325 392 1286.5 c 128,-1,2
 354 1248 354 1248 300 1248 c 128,-1,3
 246 1248 246 1248 208 1286.5 c 128,-1,4
 170 1325 170 1325 170 1380 c 128,-1,5
 170 1435 170 1435 208 1473.5 c 128,-1,6
 246 1512 246 1512 300 1512 c 128,-1,7
 354 1512 354 1512 392 1473.5 c 128,-1,0
 430 1435 430 1435 430 1380 c 128,-1,1
402 89 m 1,8,-1
 202 0 l 1,9,-1
 202 1108 l 1,10,-1
 400 1200 l 1,11,-1
 402 89 l 1,8,-1
EndSplineSet
Validated: 16385
EndChar

StartChar: cent
Encoding: 162 162 100
Width: 1124
GlyphClass: 2
Flags: W
VStem: 150 194<230.302 893.018> 464 196<-128 19.1641 107 1012 1095.96 1266> 780 194<214.6 397 702 905.874>
CounterMasks: 1 e0
LayerCount: 2
Fore
SplineSet
780 397 m 1,0,-1
 972 484 l 1,1,-1
 974 402 l 1,2,3
 974 231 974 231 854 115 c 0,4,5
 768 32 768 32 661 7 c 1,6,-1
 662 -128 l 1,7,-1
 464 -220 l 1,8,-1
 465 7 l 1,9,10
 357 34 357 34 273 119 c 0,11,12
 153 241 153 241 152 410 c 2,13,-1
 150 706 l 1,14,15
 150 874 150 874 271 997 c 0,16,17
 356 1083 356 1083 464 1109 c 1,18,-1
 462 1266 l 1,19,-1
 660 1354 l 1,20,-1
 660 1108 l 1,21,22
 768 1080 768 1080 852 1001 c 1,23,24
 972 902 972 902 972 714 c 2,25,-1
 972 702 l 1,26,-1
 780 613 l 1,27,-1
 778 719 l 2,28,29
 775 904 775 904 716 970 c 0,30,31
 692 997 692 997 660 1012 c 1,32,-1
 661 99 l 1,33,34
 707 116 707 116 732 148 c 1,35,36
 780 206 780 206 780 382 c 2,37,-1
 780 397 l 1,0,-1
465 107 m 1,38,-1
 464 1014 l 1,39,40
 436 1001 436 1001 412 978 c 0,41,42
 344 913 344 913 344 721 c 2,43,-1
 344 567 l 1,44,-1
 346 395 l 2,45,46
 348 205 348 205 418 140 c 0,47,48
 440 120 440 120 465 107 c 1,38,-1
EndSplineSet
Validated: 16385
EndChar

StartChar: sterling
Encoding: 163 163 101
Width: 1069
GlyphClass: 2
Flags: W
HStem: 0 116<102 179 374 996> 590 113<110 179 374 720> 1418 93<453.05 721.498>
VStem: 179 195<116 589 703 1282.08> 808 194<1087 1294.86>
LayerCount: 2
Fore
SplineSet
179 116 m 1,0,-1
 179 590 l 1,1,-1
 57 590 l 1,2,-1
 110 703 l 1,3,-1
 179 703 l 1,4,-1
 180 1097 l 2,5,6
 180 1268 180 1268 301 1388 c 0,7,8
 424 1511 424 1511 592 1511 c 0,9,10
 750 1511 750 1511 882 1392 c 0,11,12
 1002 1283 1002 1283 1002 1105 c 2,13,-1
 1002 1087 l 1,14,-1
 810 1004 l 1,15,-1
 808 1110 l 1,16,17
 801 1294 801 1294 744 1354 c 0,18,19
 684 1418 684 1418 588 1418 c 0,20,21
 495 1418 495 1418 440 1362 c 0,22,23
 378 1298 378 1298 374 1112 c 1,24,-1
 374 703 l 1,25,-1
 773 702 l 1,26,-1
 720 589 l 1,27,-1
 374 589 l 1,28,-1
 374 116 l 1,29,-1
 1049 116 l 1,30,-1
 996 0 l 1,31,-1
 50 0 l 1,32,-1
 102 116 l 1,33,-1
 179 116 l 1,0,-1
EndSplineSet
Validated: 16385
EndChar

StartChar: currency
Encoding: 164 164 102
Width: 1542
GlyphClass: 2
Flags: W
HStem: 267 119<632.611 894.147> 1136 115<632.799 893.83>
VStem: 280 204<558.852 963.861> 1042 203<559.566 960.374>
DStem2: 354 1256 150 1179 0.744078 -0.668093<0 159.658 1104.95 1292.59> 150 336 354 259 0.741942 0.670464<99.7304 262.081 1214.01 1396.95>
LayerCount: 2
Fore
SplineSet
484 761 m 0,0,1
 484 608 484 608 566 497 c 128,-1,2
 648 386 648 386 762 386 c 0,3,4
 877 386 877 386 960 497 c 0,5,6
 1042 607 1042 607 1042 756 c 2,7,-1
 1042 760 l 1,8,9
 1041 917 1041 917 960 1025 c 0,10,11
 877 1136 877 1136 763 1136 c 0,12,13
 648 1135 648 1135 566 1025.5 c 128,-1,14
 484 916 484 916 484 761 c 0,0,1
280 759 m 0,15,16
 280 942 280 942 344 1006 c 2,17,-1
 345 1007 l 1,18,-1
 150 1179 l 1,19,-1
 354 1256 l 1,20,-1
 473 1153 l 1,21,22
 495 1170 495 1170 520 1185 c 0,23,24
 633 1251 633 1251 763 1251 c 0,25,26
 890 1251 890 1251 1004 1185 c 0,27,28
 1030 1170 1030 1170 1053 1153 c 1,29,-1
 1187 1272 l 1,30,-1
 1392 1197 l 1,31,-1
 1179 1008 l 1,32,-1
 1180 1006 l 2,33,34
 1244 879 1244 879 1245 759 c 1,35,-1
 1245 755 l 2,36,37
 1245 626 1245 626 1181 513 c 1,38,-1
 1392 324 l 1,39,-1
 1187 249 l 1,40,-1
 1054 366 l 1,41,42
 1030 348 1030 348 1004 333 c 0,43,44
 892 267 892 267 762 267 c 0,45,46
 633 267 633 267 520 333 c 0,47,48
 496 347 496 347 474 364 c 1,49,-1
 354 259 l 1,50,-1
 150 336 l 1,51,-1
 346 510 l 1,52,-1
 344 512 l 1,53,54
 280 625 280 625 280 759 c 0,15,16
EndSplineSet
Validated: 16385
EndChar

StartChar: yen
Encoding: 165 165 103
Width: 1158
GlyphClass: 2
Flags: W
HStem: 0 21G<464.947 508.333> 377 114<228 420 674 852> 580 114<230 342 600 614 772 852> 1491 20G<182.255 226.225 1003.39 1047.56>
VStem: 464 196<90 377>
DStem2: 218 1511 50 1417 0.371045 -0.928615<24.9543 804.688>
LayerCount: 2
Fore
SplineSet
660 90 m 1,0,-1
 465 0 l 1,1,-1
 464 375 l 1,2,-1
 464 377 l 1,3,-1
 174 377 l 1,4,-1
 228 491 l 1,5,-1
 420 491 l 1,6,-1
 386 580 l 1,7,-1
 174 580 l 1,8,-1
 230 695 l 1,9,-1
 342 694 l 1,10,-1
 50 1417 l 1,11,-1
 218 1511 l 1,12,-1
 554 694 l 1,13,-1
 660 694 l 1,14,-1
 1012 1512 l 1,15,-1
 1108 1458 l 1,16,-1
 772 694 l 1,17,-1
 910 694 l 1,18,-1
 852 580 l 1,19,-1
 712 580 l 1,20,-1
 674 491 l 1,21,-1
 908 491 l 1,22,-1
 852 377 l 1,23,-1
 660 377 l 1,24,-1
 660 90 l 1,0,-1
614 580 m 1,25,-1
 600 580 l 1,26,-1
 606 562 l 1,27,-1
 614 580 l 1,25,-1
EndSplineSet
Validated: 16385
EndChar

StartChar: brokenbar
Encoding: 166 166 104
Width: 539
GlyphClass: 2
Flags: W
VStem: 171 196<-98 581 908 1602>
LayerCount: 2
Fore
SplineSet
170 818 m 1,0,-1
 171 1602 l 1,1,-1
 369 1691 l 1,2,-1
 367 908 l 1,3,-1
 170 818 l 1,0,-1
368 670 m 1,4,-1
 367 -98 l 1,5,-1
 171 -190 l 1,6,-1
 170 581 l 1,7,-1
 368 670 l 1,4,-1
EndSplineSet
Validated: 1
EndChar

StartChar: section
Encoding: 167 167 105
Width: 1104
GlyphClass: 2
Flags: W
HStem: -10 82<449.6 662.454> 1414 96<451.696 658.186>
VStem: 149 146<697.892 890.886> 201 192<133.641 300> 205 203<1131.13 1335.18> 726 177<166.283 362.069 1200 1342.89> 820 135<625.882 813.27>
DStem2: 522 1090 367 954 0.954628 -0.2978<-112.784 364.514> 755 558 531 432 0.95812 -0.286366<-481.524 0> 791 595 828 527 0.697355 0.716726<-25.0603 78.3601>
LayerCount: 2
Fore
SplineSet
201 300 m 1,0,-1
 393 385 l 1,1,-1
 393 342 l 2,2,3
 393 197 393 197 426 142 c 0,4,5
 467 73 467 73 544 72 c 0,6,7
 547 72 547 72 550 72 c 0,8,9
 619 72 619 72 667 116 c 24,10,11
 726 171 726 171 726 245 c 0,12,13
 726 369 726 369 596 413 c 1,14,-1
 531 432 l 2,15,16
 325 490 325 490 320 490 c 0,17,18
 288 490 288 490 227 542 c 0,19,20
 168 596 168 596 153 682 c 0,21,22
 149 705 149 705 149 732 c 1,23,24
 150 755 150 755 151 772 c 0,25,26
 157 878 157 878 267 973 c 1,27,-1
 278 985 l 1,28,29
 223 1037 223 1037 210 1116 c 0,30,31
 205 1146 205 1146 205 1175 c 0,32,33
 206 1294 206 1294 288 1390 c 0,34,35
 390 1510 390 1510 551 1510 c 0,36,37
 748 1510 748 1510 834 1398 c 0,38,39
 906 1304 906 1304 906 1218 c 2,40,-1
 906 1200 l 1,41,-1
 714 1113 l 1,42,-1
 714 1158 l 2,43,44
 714 1307 714 1307 672 1358 c 0,45,46
 626 1414 626 1414 559 1414 c 0,47,48
 552 1414 552 1414 552 1414 c 0,49,50
 469 1409 469 1409 439 1355 c 0,51,52
 408 1300 408 1300 408 1248 c 0,53,54
 408 1239 408 1239 409 1229 c 0,55,56
 420 1124 420 1124 522 1090 c 1,57,-1
 533 1086 l 2,58,-1
 795 1014 l 1,59,60
 846 997 846 997 880 970 c 1,61,62
 945 915 945 915 954 818 c 0,63,64
 955 807 955 807 955 795 c 0,65,66
 955 755 955 755 945 708 c 0,67,68
 927 624 927 624 840 539 c 1,69,-1
 828 527 l 1,70,71
 883 475 883 475 897 396 c 0,72,73
 903 363 903 363 903 332 c 0,74,75
 901 207 901 207 819 110 c 0,76,77
 716 -10 716 -10 556 -10 c 0,78,79
 348 -10 348 -10 274 90 c 0,80,81
 201 189 201 189 201 282 c 2,82,-1
 201 300 l 1,0,-1
755 558 m 1,83,84
 787 591 787 591 791 595 c 0,85,86
 820 636 820 636 820 684 c 0,87,88
 820 720 820 720 810 755 c 0,89,90
 788 828 788 828 710 847 c 1,91,-1
 367 954 l 1,92,93
 350 941 350 941 322 899 c 0,94,95
 298 863 298 863 295 813 c 0,96,97
 294 795 294 795 299 762 c 0,98,99
 305 703 305 703 397 665 c 1,100,-1
 755 558 l 1,83,84
EndSplineSet
Validated: 1
EndChar

StartChar: dieresis
Encoding: 168 168 106
Width: 996
GlyphClass: 2
Flags: W
HStem: 1218 294<166.411 379.589 616.411 829.589>
VStem: 120 306<1262.35 1467.65> 570 306<1265.35 1470.65>
LayerCount: 2
Fore
SplineSet
570 1368 m 128,-1,1
 570 1429 570 1429 615 1472 c 128,-1,2
 660 1515 660 1515 723 1515 c 128,-1,3
 786 1515 786 1515 831 1472 c 128,-1,4
 876 1429 876 1429 876 1368 c 128,-1,5
 876 1307 876 1307 831 1264 c 128,-1,6
 786 1221 786 1221 723 1221 c 128,-1,7
 660 1221 660 1221 615 1264 c 128,-1,0
 570 1307 570 1307 570 1368 c 128,-1,1
120 1365 m 128,-1,9
 120 1426 120 1426 165 1469 c 128,-1,10
 210 1512 210 1512 273 1512 c 128,-1,11
 336 1512 336 1512 381 1469 c 128,-1,12
 426 1426 426 1426 426 1365 c 128,-1,13
 426 1304 426 1304 381 1261 c 128,-1,14
 336 1218 336 1218 273 1218 c 128,-1,15
 210 1218 210 1218 165 1261 c 128,-1,8
 120 1304 120 1304 120 1365 c 128,-1,9
EndSplineSet
Validated: 16385
EndChar

StartChar: copyright
Encoding: 169 169 107
Width: 1261
GlyphClass: 2
Flags: W
HStem: 180 79<444.499 817.229> 354 72<513.798 743.549> 1098 70<513.09 738.914> 1251 80<441.931 819.969>
VStem: 80 74<566.018 943.982> 308 145<485.908 1033.6> 804 148<487.352 634 879 1036.4> 1106 75<560.265 949.908>
LayerCount: 2
Fore
SplineSet
631 1331 m 0,0,1
 741 1331 741 1331 841 1288 c 0,2,3
 937 1247 937 1247 1020 1161 c 0,4,5
 1100 1078 1100 1078 1141 975 c 0,6,7
 1181 874 1181 874 1181 754 c 0,8,9
 1181 638 1181 638 1141 535 c 0,10,11
 1103 437 1103 437 1020 350 c 0,12,13
 941 267 941 267 841 223 c 0,14,15
 743 180 743 180 631 180 c 0,16,17
 520 180 520 180 420 223 c 0,18,19
 324 264 324 264 241 350 c 0,20,21
 160 434 160 434 120 535 c 128,-1,22
 80 636 80 636 80 754 c 0,23,24
 80 873 80 873 120 975 c 128,-1,25
 160 1077 160 1077 241 1161 c 0,26,27
 322 1246 322 1246 420 1288.5 c 128,-1,28
 518 1331 518 1331 631 1331 c 0,0,1
631 1251 m 0,29,30
 533 1251 533 1251 450 1215 c 128,-1,31
 367 1179 367 1179 296 1105 c 0,32,33
 226 1032 226 1032 190 944 c 128,-1,34
 154 856 154 856 154 759 c 2,35,-1
 154 754 l 2,36,37
 154 655 154 655 190 566 c 0,38,39
 224 483 224 483 296 406 c 0,40,41
 366 332 366 332 449 296 c 0,42,43
 534 259 534 259 631 259 c 128,-1,44
 728 259 728 259 813 296 c 0,45,46
 896 332 896 332 967 406 c 0,47,48
 1036 478 1036 478 1071 565 c 128,-1,49
 1106 652 1106 652 1106 754 c 0,50,51
 1106 857 1106 857 1071 945 c 0,52,53
 1037 1031 1037 1031 967 1105 c 0,54,55
 898 1178 898 1178 813 1215 c 0,56,57
 728 1251 728 1251 631 1251 c 0,29,30
804 895 m 2,58,59
 801 1013 801 1013 751 1055 c 0,60,61
 700 1098 700 1098 626 1098 c 0,62,63
 550 1098 550 1098 501.5 1055 c 128,-1,64
 453 1012 453 1012 453 895 c 2,65,-1
 453 627 l 2,66,67
 453 512 453 512 504 469 c 0,68,69
 556 426 556 426 629 426 c 0,70,71
 705 426 705 426 754 469 c 0,72,73
 801 511 801 511 804 627 c 1,74,-1
 804 634 l 1,75,-1
 952 691 l 1,76,-1
 951 624 l 2,77,78
 949 510 949 510 857 432 c 1,79,80
 763 354 763 354 630 354 c 128,-1,81
 497 354 497 354 402 433 c 0,82,83
 308 512 308 512 308 624 c 2,84,-1
 309 898 l 2,85,86
 309 1010 309 1010 403 1089 c 128,-1,87
 497 1168 497 1168 629.5 1168 c 128,-1,88
 762 1168 762 1168 857 1089 c 256,89,90
 952 1010 952 1010 952 898 c 2,91,-1
 952 879 l 1,92,-1
 806 822 l 1,93,-1
 804 895 l 2,58,59
EndSplineSet
Validated: 16385
EndChar

StartChar: ordfeminine
Encoding: 170 170 108
Width: 1083
GlyphClass: 2
Flags: W
HStem: 474 198<170 911> 773 59<467.985 629> 1446 63<449.805 646.91>
VStem: 249 150<904.555 1373.71> 706 148<797 1382.11>
LayerCount: 2
Fore
SplineSet
170 672 m 1,0,-1
 1003 672 l 1,1,-1
 911 474 l 1,2,-1
 80 474 l 1,3,-1
 170 672 l 1,0,-1
250 1043 m 0,4,5
 249 1141 249 1141 249 1241 c 128,-1,6
 249 1341 249 1341 338 1425 c 128,-1,7
 427 1509 427 1509 552 1509 c 0,8,9
 675 1509 675 1509 765 1431 c 0,10,11
 854 1354 854 1354 854 1241 c 2,12,-1
 854 797 l 1,13,-1
 703 725 l 1,14,-1
 705 734 l 2,15,16
 706 738 706 738 706 816 c 0,17,18
 706 930 706 930 705 1035 c 2,19,-1
 703 1244 l 1,20,21
 700 1365 700 1365 658 1406 c 0,22,23
 617 1446 617 1446 549 1446 c 0,24,25
 485 1446 485 1446 445 1411 c 0,26,27
 399 1370 399 1370 399 1245 c 2,28,-1
 399 1145 l 1,29,-1
 401 1034 l 1,30,31
 416 876 416 876 497 842 c 0,32,33
 521 832 521 832 575 832 c 0,34,35
 600 832 600 832 643 860 c 2,36,-1
 701 898 l 1,37,-1
 629 773 l 1,38,-1
 626 773 l 1,39,40
 594 770 594 770 554 770 c 2,41,-1
 552 770 l 2,42,43
 429 770 429 770 340 851 c 256,44,45
 251 932 251 932 250 1043 c 0,4,5
EndSplineSet
Validated: 16385
EndChar

StartChar: guillemotleft
Encoding: 171 171 109
Width: 1116
GlyphClass: 2
Flags: W
DStem2: 342 702 120 687 0.577331 -0.81651<0 409.443> 120 687 342 702 0.5547 0.83205<135.624 553.313> 702 711 480 696 0.577331 -0.81651<0 409.443> 480 696 702 711 0.5547 0.83205<135.624 553.313>
LayerCount: 2
Fore
SplineSet
830 1221 m 1,0,-1
 924 1065 l 1,1,-1
 702 711 l 1,2,-1
 936 375 l 1,3,-1
 830 201 l 1,4,-1
 480 696 l 1,5,-1
 830 1221 l 1,0,-1
470 1212 m 1,6,-1
 564 1056 l 1,7,-1
 342 702 l 1,8,-1
 576 366 l 1,9,-1
 470 192 l 1,10,-1
 120 687 l 1,11,-1
 470 1212 l 1,6,-1
EndSplineSet
Validated: 16385
EndChar

StartChar: logicalnot
Encoding: 172 172 110
Width: 1083
GlyphClass: 2
Flags: W
HStem: 600 198<170 712>
VStem: 608 206<362 568>
LayerCount: 2
Fore
SplineSet
170 798 m 1,0,-1
 1003 798 l 1,1,-1
 814 362 l 1,2,-1
 608 362 l 1,3,-1
 712 600 l 1,4,-1
 80 600 l 1,5,-1
 170 798 l 1,0,-1
EndSplineSet
Validated: 1
EndChar

StartChar: uni00AD
Encoding: 173 173 111
Width: 1083
GlyphClass: 2
Flags: W
HStem: 600 198<170 911>
LayerCount: 2
Fore
SplineSet
170 798 m 1,0,-1
 1003 798 l 1,1,-1
 911 600 l 1,2,-1
 80 600 l 1,3,-1
 170 798 l 1,0,-1
EndSplineSet
Validated: 1
EndChar

StartChar: registered
Encoding: 174 174 112
Width: 1261
GlyphClass: 2
Flags: W
HStem: 180 79<444.47 817.074> 622 84<503 645> 1093 71<502 761.48> 1251 80<441.834 819.969>
VStem: 80 74<566.018 943.982> 371 131<365 622 706 1093> 839 129<769.733 1026.05> 1106 75<560.265 949.908>
DStem2: 789 644 645 623 0.552124 -0.833762<0 296.619>
LayerCount: 2
Fore
SplineSet
839 917 m 0,0,1
 839 972 839 972 799 1021 c 0,2,3
 741 1092 741 1092 670 1093 c 1,4,-1
 502 1093 l 1,5,-1
 502 706 l 1,6,-1
 670 707 l 2,7,8
 745 707 745 707 796 769 c 0,9,10
 839 821 839 821 839 917 c 0,0,1
503 1164 m 1,11,-1
 675 1164 l 1,12,-1
 677 1164 l 2,13,14
 797 1164 797 1164 882 1085 c 0,15,16
 968 1006 968 1006 968 893.5 c 128,-1,17
 968 781 968 781 882 702 c 0,18,19
 841 664 841 664 789 644 c 1,20,-1
 955 394 l 1,21,-1
 967 406 l 1,22,23
 1036 478 1036 478 1071 565 c 128,-1,24
 1106 652 1106 652 1106 754 c 0,25,26
 1106 857 1106 857 1071 945 c 0,27,28
 1037 1031 1037 1031 967 1105 c 0,29,30
 898 1178 898 1178 813 1215 c 0,31,32
 728 1251 728 1251 631 1251 c 0,33,34
 533 1251 533 1251 450 1215 c 128,-1,35
 367 1179 367 1179 296 1105 c 0,36,37
 226 1032 226 1032 190 944 c 128,-1,38
 154 856 154 856 154 759 c 2,39,-1
 154 754 l 2,40,41
 154 654 154 654 190 566 c 0,42,43
 225 481 225 481 296 406 c 0,44,45
 332 368 332 368 371 340 c 1,46,-1
 370 1123 l 1,47,-1
 503 1164 l 1,11,-1
631 1331 m 0,48,49
 741 1331 741 1331 841 1288 c 0,50,51
 937 1247 937 1247 1020 1161 c 0,52,53
 1100 1078 1100 1078 1141 975 c 0,54,55
 1181 874 1181 874 1181 754 c 0,56,57
 1181 638 1181 638 1141 535 c 0,58,59
 1103 437 1103 437 1020 350 c 0,60,61
 941 267 941 267 841 223 c 0,62,63
 743 180 743 180 631 180 c 0,64,65
 520 180 520 180 420 223 c 0,66,67
 324 264 324 264 241 350 c 0,68,69
 160 434 160 434 120 535 c 128,-1,70
 80 636 80 636 80 754 c 0,71,72
 80 874 80 874 120 975 c 128,-1,73
 160 1076 160 1076 241 1161 c 0,74,75
 323 1246 323 1246 420 1288.5 c 128,-1,76
 517 1331 517 1331 631 1331 c 0,48,49
889 339 m 1,77,-1
 843 324 l 1,78,-1
 645 623 l 1,79,-1
 503 622 l 1,80,-1
 503 365 l 1,81,-1
 395 324 l 1,82,83
 421 308 421 308 449 296 c 0,84,85
 535 259 535 259 631 259 c 0,86,87
 728 259 728 259 813 296 c 0,88,89
 852 313 852 313 889 339 c 1,77,-1
EndSplineSet
Validated: 16385
EndChar

StartChar: macron
Encoding: 175 175 113
Width: 1083
GlyphClass: 2
Flags: W
HStem: 1314 198<170 911>
LayerCount: 2
Fore
SplineSet
170 1512 m 1,0,-1
 1003 1512 l 1,1,-1
 911 1314 l 1,2,-1
 80 1314 l 1,3,-1
 170 1512 l 1,0,-1
EndSplineSet
Validated: 1
EndChar

StartChar: degree
Encoding: 176 176 114
Width: 912
GlyphClass: 2
Flags: W
HStem: 852 84<341.612 570.388> 1431 81<344.337 567.663>
VStem: 120 162<1015.98 1347.15> 630 162<1015.98 1347.15>
LayerCount: 2
Fore
SplineSet
282 1183.5 m 128,-1,1
 282 1034 282 1034 333 985 c 128,-1,2
 384 936 384 936 456 936 c 128,-1,3
 528 936 528 936 579 985 c 128,-1,4
 630 1034 630 1034 630 1183.5 c 128,-1,5
 630 1333 630 1333 579 1382 c 128,-1,6
 528 1431 528 1431 456 1431 c 128,-1,7
 384 1431 384 1431 333 1382 c 128,-1,0
 282 1333 282 1333 282 1183.5 c 128,-1,1
120 1182 m 128,-1,9
 120 1319 120 1319 218.5 1415.5 c 128,-1,10
 317 1512 317 1512 456 1512 c 128,-1,11
 595 1512 595 1512 693.5 1415.5 c 128,-1,12
 792 1319 792 1319 792 1182 c 128,-1,13
 792 1045 792 1045 693.5 948.5 c 128,-1,14
 595 852 595 852 456 852 c 128,-1,15
 317 852 317 852 218.5 948.5 c 128,-1,8
 120 1045 120 1045 120 1182 c 128,-1,9
EndSplineSet
Validated: 16385
EndChar

StartChar: plusminus
Encoding: 177 177 115
Width: 1084
GlyphClass: 2
Flags: W
HStem: 168 198<171 912> 741 198<170 442 640 911>
VStem: 442 198<468 741 939 1210>
LayerCount: 2
Fore
SplineSet
640 468 m 1,0,-1
 442 378 l 1,1,-1
 442 741 l 1,2,-1
 80 741 l 1,3,-1
 170 939 l 1,4,-1
 442 939 l 1,5,-1
 442 1210 l 1,6,-1
 640 1302 l 1,7,-1
 640 939 l 1,8,-1
 1003 939 l 1,9,-1
 911 741 l 1,10,-1
 640 741 l 1,11,-1
 640 468 l 1,0,-1
171 366 m 1,12,-1
 1004 366 l 1,13,-1
 912 168 l 1,14,-1
 81 168 l 1,15,-1
 171 366 l 1,12,-1
EndSplineSet
Validated: 16385
EndChar

StartChar: uni00B2
Encoding: 178 178 116
Width: 919
GlyphClass: 2
Flags: W
HStem: 709 124<333 712> 1440 69<353.821 557.754>
VStem: 169 134<1228 1385.99> 618 131<1154.08 1385.34>
LayerCount: 2
Fore
SplineSet
150 709 m 1,0,-1
 205 818 l 1,1,2
 285 958 285 958 468 1078 c 1,3,-1
 565 1147 l 2,4,5
 616 1183 616 1183 618 1257 c 1,6,-1
 618 1267 l 1,7,8
 616 1353 616 1353 567 1398 c 0,9,10
 521 1440 521 1440 456 1440 c 0,11,12
 389 1440 389 1440 345 1398 c 0,13,14
 303 1359 303 1359 303 1241 c 2,15,-1
 303 1228 l 1,16,-1
 170 1168 l 1,17,-1
 169 1244 l 2,18,19
 169 1247 169 1247 169 1249 c 0,20,21
 169 1354 169 1354 254 1432 c 0,22,23
 339 1509 339 1509 459 1509 c 128,-1,24
 579 1509 579 1509 664 1431.5 c 128,-1,25
 749 1354 749 1354 749 1244 c 1,26,27
 747 1136 747 1136 658 1087 c 0,28,29
 647 1081 647 1081 487 978 c 0,30,31
 381 910 381 910 351 863 c 0,32,33
 342 849 342 849 333 833 c 1,34,-1
 769 830 l 1,35,-1
 712 709 l 1,36,-1
 150 709 l 1,0,-1
EndSplineSet
Validated: 1
EndChar

StartChar: uni00B3
Encoding: 179 179 117
Width: 885
GlyphClass: 2
Flags: W
HStem: 697 74<339.522 548.933> 1168 47<444 513.479> 1389 123<225 504>
VStem: 150 135<822.892 991> 600 135<823.832 1107.76>
DStem2: 304 1150 444 1215 0.66745 0.744655<141.846 311.462>
LayerCount: 2
Fore
SplineSet
150 991 m 1,0,-1
 283 1043 l 1,1,-1
 285 971 l 1,2,3
 292 850 292 850 332 814 c 1,4,5
 378 771 378 771 444 771 c 0,6,7
 513 771 513 771 556 814 c 256,8,9
 599 857 599 857 600 960 c 1,10,11
 597 1097 597 1097 508 1148 c 0,12,13
 475 1167 475 1167 438 1168 c 0,14,15
 415 1169 415 1169 380 1164 c 1,16,-1
 304 1150 l 1,17,-1
 504 1389 l 1,18,-1
 161 1389 l 1,19,-1
 225 1512 l 1,20,-1
 712 1514 l 1,21,-1
 444 1215 l 1,22,-1
 502 1214 l 1,23,24
 543 1213 543 1213 586 1196 c 128,-1,25
 629 1179 629 1179 664 1142 c 0,26,27
 735 1067 735 1067 735 963 c 0,28,29
 735 857 735 857 649 776 c 0,30,31
 565 697 565 697 442 697 c 0,32,33
 321 697 321 697 236 775 c 0,34,35
 150 855 150 855 150 967 c 2,36,-1
 150 991 l 1,0,-1
EndSplineSet
Validated: 1
EndChar

StartChar: acute
Encoding: 180 180 118
Width: 752
GlyphClass: 2
Flags: W
HStem: 1023 522
VStem: 150 452
DStem2: 150 1221 242 1023 0.743294 0.668965<0 420.259>
LayerCount: 2
Fore
SplineSet
510 1545 m 1,0,-1
 602 1347 l 1,1,-1
 242 1023 l 1,2,-1
 150 1221 l 1,3,-1
 510 1545 l 1,0,-1
EndSplineSet
Validated: 16385
EndChar

StartChar: uni00B5
Encoding: 181 181 119
Width: 1126
GlyphClass: 2
Flags: W
HStem: 0 94<427.129 694.899> 1100 20G<301.149 342.167 929.149 970.5>
VStem: 152 196<-226 61 177.307 1026> 782 194<227.711 1026>
LayerCount: 2
Fore
SplineSet
342 1120 m 1,0,-1
 348 401 l 1,1,2
 352 218 352 218 406 158 c 0,3,4
 464 94 464 94 562 94 c 0,5,6
 646 94 646 94 710 150 c 0,7,8
 782 213 782 213 782 394 c 0,9,10
 782 396 782 396 782 399 c 2,11,-1
 778 1026 l 1,12,-1
 970 1120 l 1,13,14
 971 1076 971 1076 976 414 c 1,15,16
 976 246 976 246 855 123 c 128,-1,17
 734 0 734 0 564 0 c 0,18,19
 445 0 445 0 348 61 c 1,20,-1
 350 -226 l 1,21,-1
 152 -318 l 1,22,-1
 150 1026 l 1,23,-1
 342 1120 l 1,0,-1
EndSplineSet
Validated: 16385
EndChar

StartChar: paragraph
Encoding: 182 182 120
Width: 1124
GlyphClass: 2
Flags: W
HStem: 0 21G<772.089 814.162> 388 92<432.615 700.361> 1418 94<426.23 694.799>
VStem: 152 194<608.147 1297.85> 780 62<37 447 588.06 1232> 896 74<91 1273.25>
LayerCount: 2
Fore
SplineSet
346 789 m 1,0,1
 350 599 350 599 418 536 c 0,2,3
 479 480 479 480 566 480 c 0,4,5
 663 480 663 480 722 544 c 0,6,7
 780 607 780 607 780 779 c 0,8,9
 780 785 780 785 780 791 c 2,10,-1
 778 1113 l 1,11,12
 774 1290 774 1290 716 1354 c 256,13,14
 658 1418 658 1418 560 1418 c 128,-1,15
 462 1418 462 1418 410 1358 c 128,-1,16
 358 1298 358 1298 347 1151 c 1,17,-1
 344 926 l 1,18,-1
 346 789 l 1,0,1
896 59 m 1,19,-1
 898 1278 l 1,20,-1
 842 1232 l 1,21,-1
 850 37 l 1,22,-1
 772 0 l 1,23,-1
 774 447 l 1,24,25
 680 388 680 388 562 388 c 0,26,27
 395 388 395 388 272 507 c 0,28,29
 153 622 153 622 152 794 c 2,30,-1
 150 1106 l 1,31,32
 150 1277 150 1277 270 1393 c 0,33,34
 393 1512 393 1512 560 1512 c 0,35,36
 730 1512 730 1512 851 1389 c 0,37,38
 971 1267 971 1267 972 1098 c 2,39,-1
 974 802 l 1,40,-1
 970 91 l 1,41,-1
 896 59 l 1,19,-1
EndSplineSet
Validated: 16385
EndChar

StartChar: periodcentered
Encoding: 183 183 121
Width: 560
GlyphClass: 2
Flags: W
HStem: 562 264<189.191 370.809>
VStem: 150 260<601.707 786.293>
LayerCount: 2
Fore
SplineSet
150 694 m 128,-1,1
 150 749 150 749 188 787.5 c 128,-1,2
 226 826 226 826 280 826 c 128,-1,3
 334 826 334 826 372 787.5 c 128,-1,4
 410 749 410 749 410 694 c 128,-1,5
 410 639 410 639 372 600.5 c 128,-1,6
 334 562 334 562 280 562 c 128,-1,7
 226 562 226 562 188 600.5 c 128,-1,0
 150 639 150 639 150 694 c 128,-1,1
EndSplineSet
Validated: 1
EndChar

StartChar: cedilla
Encoding: 184 184 122
Width: 1222
GlyphClass: 2
Flags: W
HStem: -386 452
VStem: 436 350
LayerCount: 2
Fore
SplineSet
579 66 m 1,0,-1
 786 -142 l 1,1,-1
 562 -386 l 1,2,-1
 436 -256 l 1,3,-1
 552 -142 l 1,4,-1
 462 -50 l 1,5,-1
 579 66 l 1,0,-1
EndSplineSet
Validated: 1
EndChar

StartChar: uni00B9
Encoding: 185 185 123
Width: 480
GlyphClass: 2
Flags: W
VStem: 191 138<789 1376>
DStem2: 20 1364 42 1307 0.889788 0.456375<0 158.52>
LayerCount: 2
Fore
SplineSet
329 789 m 1,0,-1
 191 724 l 1,1,-1
 192 1376 l 1,2,-1
 42 1307 l 1,3,-1
 20 1364 l 1,4,-1
 330 1523 l 1,5,-1
 329 789 l 1,0,-1
EndSplineSet
Validated: 16385
EndChar

StartChar: ordmasculine
Encoding: 186 186 124
Width: 1083
GlyphClass: 2
Flags: W
HStem: 474 198<170 911> 760 72<437.604 642.609> 1441 74<433.559 641.039>
VStem: 237 150<902.638 1380.43> 693 150<889.397 1382.54>
LayerCount: 2
Fore
SplineSet
170 672 m 1,0,-1
 1003 672 l 1,1,-1
 911 474 l 1,2,-1
 80 474 l 1,3,-1
 170 672 l 1,0,-1
389 1030 m 2,4,5
 391 907 391 907 436 868 c 0,6,7
 478 832 478 832 540 832 c 0,8,9
 610 832 610 832 649 873 c 1,10,11
 693 912 693 912 693 1029 c 0,12,13
 693 1030 693 1030 693 1031 c 2,14,-1
 691 1244 l 2,15,16
 690 1357 690 1357 646 1400 c 0,17,18
 605 1441 605 1441 537 1441 c 0,19,20
 473 1441 473 1441 433 1405 c 0,21,22
 387 1364 387 1364 387 1246 c 2,23,-1
 387 1144 l 1,24,-1
 389 1030 l 2,4,5
238 1040 m 0,25,26
 237 1046 237 1046 237 1240 c 0,27,28
 237 1349 237 1349 326 1432 c 128,-1,29
 415 1515 415 1515 540 1515 c 0,30,31
 663 1515 663 1515 753 1435 c 0,32,33
 841 1357 841 1357 842 1241 c 2,34,-1
 843 1034 l 1,35,-1
 843 1031 l 2,36,37
 843 918 843 918 755 840 c 0,38,39
 664 760 664 760 541 760 c 0,40,41
 417 760 417 760 328 843 c 1,42,43
 260 905 260 905 238 1040 c 0,25,26
EndSplineSet
Validated: 16385
EndChar

StartChar: guillemotright
Encoding: 187 187 125
Width: 1116
GlyphClass: 2
Flags: W
DStem2: 286 1212 180 1038 0.577331 -0.81651<80.8758 490.319> 192 348 286 192 0.5547 0.83205<0 417.689> 646 1221 540 1047 0.577331 -0.81651<80.8758 490.319> 552 357 646 201 0.5547 0.83205<0 417.689>
LayerCount: 2
Fore
SplineSet
286 192 m 1,0,-1
 192 348 l 1,1,-1
 414 702 l 1,2,-1
 180 1038 l 1,3,-1
 286 1212 l 1,4,-1
 636 717 l 1,5,-1
 286 192 l 1,0,-1
646 201 m 1,6,-1
 552 357 l 1,7,-1
 774 711 l 1,8,-1
 540 1047 l 1,9,-1
 646 1221 l 1,10,-1
 996 726 l 1,11,-1
 646 201 l 1,6,-1
EndSplineSet
Validated: 16385
EndChar

StartChar: onequarter
Encoding: 188 188 126
Width: 1289
GlyphClass: 2
Flags: W
HStem: 173 76<702 984 1125 1167>
VStem: 281 138<799 1386> 984 141<0 173 249 573>
DStem2: 80 -132 252 -230 0.435992 0.899951<0 1989.13> 110 1374 132 1317 0.889788 0.456375<0 158.52> 618 249 702 249 0.667476 0.744631<56.068 485.557>
LayerCount: 2
Fore
SplineSet
80 -132 m 1,0,-1
 946 1660 l 1,1,-1
 1125 1572 l 1,2,-1
 252 -230 l 1,3,-1
 80 -132 l 1,0,-1
419 799 m 1,4,-1
 281 734 l 1,5,-1
 282 1386 l 1,6,-1
 132 1317 l 1,7,-1
 110 1374 l 1,8,-1
 420 1533 l 1,9,-1
 419 799 l 1,4,-1
702 249 m 1,10,-1
 984 249 l 1,11,-1
 984 573 l 1,12,-1
 702 249 l 1,10,-1
990 664 m 1,13,-1
 1125 725 l 1,14,-1
 1125 249 l 1,15,-1
 1209 249 l 1,16,-1
 1167 174 l 1,17,-1
 1125 174 l 1,18,-1
 1124 0 l 1,19,-1
 983 -64 l 1,20,-1
 984 173 l 1,21,-1
 584 173 l 1,22,-1
 618 249 l 1,23,-1
 990 664 l 1,13,-1
EndSplineSet
Validated: 16385
EndChar

StartChar: onehalf
Encoding: 189 189 127
Width: 1539
GlyphClass: 2
Flags: W
HStem: 0 124<983 1362> 731 69<1003.82 1207.75>
VStem: 309 138<813 1400> 819 134<519 676.989> 1268 131<445.084 676.335>
DStem2: 120 -132 292 -230 0.435992 0.899951<0 1989.13> 138 1388 160 1331 0.889788 0.456375<0 158.52>
LayerCount: 2
Fore
SplineSet
800 0 m 1,0,-1
 855 109 l 1,1,2
 935 249 935 249 1118 369 c 1,3,-1
 1215 438 l 2,4,5
 1266 474 1266 474 1268 548 c 1,6,-1
 1268 558 l 1,7,8
 1266 644 1266 644 1217 689 c 0,9,10
 1171 731 1171 731 1106 731 c 0,11,12
 1039 731 1039 731 995 689 c 0,13,14
 953 650 953 650 953 532 c 2,15,-1
 953 519 l 1,16,-1
 820 459 l 1,17,-1
 819 535 l 2,18,19
 819 538 819 538 819 540 c 0,20,21
 819 645 819 645 904 723 c 0,22,23
 989 800 989 800 1109 800 c 128,-1,24
 1229 800 1229 800 1314 722.5 c 128,-1,25
 1399 645 1399 645 1399 535 c 1,26,27
 1397 427 1397 427 1308 378 c 0,28,29
 1297 372 1297 372 1137 269 c 0,30,31
 1031 201 1031 201 1001 154 c 0,32,33
 992 140 992 140 983 124 c 1,34,-1
 1419 121 l 1,35,-1
 1362 0 l 1,36,-1
 800 0 l 1,0,-1
447 813 m 1,37,-1
 309 748 l 1,38,-1
 310 1400 l 1,39,-1
 160 1331 l 1,40,-1
 138 1388 l 1,41,-1
 448 1547 l 1,42,-1
 447 813 l 1,37,-1
120 -132 m 1,43,-1
 986 1660 l 1,44,-1
 1165 1572 l 1,45,-1
 292 -230 l 1,46,-1
 120 -132 l 1,43,-1
EndSplineSet
Validated: 1
EndChar

StartChar: threequarters
Encoding: 190 190 128
Width: 1560
GlyphClass: 2
Flags: W
HStem: 173 76<973 1255 1396 1438> 697 74<339.522 548.933> 1168 47<444 513.479> 1389 123<225 504>
VStem: 150 135<822.892 991> 600 135<823.832 1107.76> 1255 141<0 173 249 573>
DStem2: 304 1150 444 1215 0.66745 0.744655<141.846 311.462> 367 -133 539 -231 0.435992 0.899951<0 1989.13>
LayerCount: 2
Fore
SplineSet
150 991 m 1,0,-1
 283 1043 l 1,1,-1
 285 971 l 1,2,3
 292 850 292 850 332 814 c 1,4,5
 378 771 378 771 444 771 c 0,6,7
 513 771 513 771 556 814 c 256,8,9
 599 857 599 857 600 960 c 1,10,11
 597 1097 597 1097 508 1148 c 0,12,13
 475 1167 475 1167 438 1168 c 0,14,15
 415 1169 415 1169 380 1164 c 1,16,-1
 304 1150 l 1,17,-1
 504 1389 l 1,18,-1
 161 1389 l 1,19,-1
 225 1512 l 1,20,-1
 712 1514 l 1,21,-1
 444 1215 l 1,22,-1
 502 1214 l 1,23,24
 543 1213 543 1213 586 1196 c 128,-1,25
 629 1179 629 1179 664 1142 c 0,26,27
 735 1067 735 1067 735 963 c 0,28,29
 735 857 735 857 649 776 c 0,30,31
 565 697 565 697 442 697 c 0,32,33
 321 697 321 697 236 775 c 0,34,35
 150 855 150 855 150 967 c 2,36,-1
 150 991 l 1,0,-1
973 249 m 1,37,-1
 1255 249 l 1,38,-1
 1255 573 l 1,39,-1
 973 249 l 1,37,-1
1254 -64 m 1,40,-1
 1255 173 l 1,41,-1
 855 173 l 1,42,-1
 889 249 l 1,43,-1
 1261 664 l 1,44,-1
 1396 725 l 1,45,-1
 1396 249 l 1,46,-1
 1480 249 l 1,47,-1
 1438 174 l 1,48,-1
 1396 174 l 1,49,-1
 1395 0 l 1,50,-1
 1254 -64 l 1,40,-1
367 -133 m 1,51,-1
 1233 1659 l 1,52,-1
 1412 1571 l 1,53,-1
 539 -231 l 1,54,-1
 367 -133 l 1,51,-1
EndSplineSet
Validated: 1
EndChar

StartChar: questiondown
Encoding: 191 191 129
Width: 1287
GlyphClass: 2
Flags: W
HStem: 0 89<491.97 800.395> 1250 264<588.191 769.809>
VStem: 150 197<287.67 628.395> 549 260<1289.71 1474.29> 630 129<992.567 1159.68> 935 202<297.347 522>
LayerCount: 2
Fore
SplineSet
809 1382 m 128,-1,1
 809 1327 809 1327 771 1288.5 c 128,-1,2
 733 1250 733 1250 679 1250 c 128,-1,3
 625 1250 625 1250 587 1288.5 c 128,-1,4
 549 1327 549 1327 549 1382 c 128,-1,5
 549 1437 549 1437 587 1475.5 c 128,-1,6
 625 1514 625 1514 679 1514 c 128,-1,7
 733 1514 733 1514 771 1475.5 c 128,-1,0
 809 1437 809 1437 809 1382 c 128,-1,1
1135 612 m 1,8,-1
 1137 493 l 1,9,10
 1137 304 1137 304 992 152 c 128,-1,11
 847 0 847 0 643 0 c 128,-1,12
 439 0 439 0 294.5 144.5 c 128,-1,13
 150 289 150 289 150 493 c 1,14,-1
 151 534 l 1,15,16
 168 693 168 693 330 801 c 0,17,18
 488 906 488 906 550 956 c 0,19,20
 630 1020 630 1020 630 1087 c 0,21,22
 630 1112 630 1112 623 1139 c 1,23,-1
 617 1159 l 1,24,-1
 757 1224 l 1,25,-1
 759 1174 l 1,26,27
 759 1171 l 0,28,29
 759 957 759 957 615 844 c 1,30,-1
 455 702 l 1,31,32
 349 604 349 604 347 510 c 1,33,-1
 347 500 l 1,34,35
 347 266 347 266 437 176 c 0,36,37
 523 89 523 89 645 89 c 128,-1,38
 767 89 767 89 853 175 c 0,39,40
 935 257 935 257 935 500 c 2,41,-1
 935 522 l 1,42,-1
 1135 612 l 1,8,-1
EndSplineSet
Validated: 1
EndChar

StartChar: Agrave
Encoding: 192 192 130
Width: 1387
GlyphClass: 2
Flags: W
HStem: 0 21G<200.98 244.043 985.96 1029.04> 506 116<399 984> 1410 100<541.34 850.097>
VStem: 201 198<92 506 622 1224.03> 985 202<92 506 622 1222.59>
DStem2: 486 1980 356 1854 0.770645 -0.637264<0 384.967>
LayerCount: 2
Fore
SplineSet
486 1980 m 1,0,-1
 798 1722 l 1,1,-1
 668 1596 l 1,2,-1
 356 1854 l 1,3,-1
 486 1980 l 1,0,-1
397 1010 m 2,4,-1
 397 622 l 1,5,-1
 984 622 l 1,6,-1
 985 1010 l 1,7,8
 985 1010 985 1010 985 1015 c 0,9,10
 985 1239 985 1239 901 1324 c 0,11,12
 816 1410 816 1410 693 1410 c 0,13,14
 578 1410 578 1410 485 1324 c 0,15,16
 397 1243 397 1243 397 1010 c 2,4,-1
201 0 m 1,17,-1
 200 1016 l 2,18,19
 200 1220 200 1220 345 1365 c 128,-1,20
 490 1510 490 1510 694 1510 c 128,-1,21
 898 1510 898 1510 1043 1365 c 0,22,23
 1187 1221 1187 1221 1187 1019 c 2,24,-1
 1187 1016 l 1,25,-1
 1184 92 l 1,26,-1
 986 0 l 1,27,-1
 985 506 l 1,28,-1
 399 506 l 1,29,-1
 399 92 l 1,30,-1
 201 0 l 1,17,-1
EndSplineSet
Validated: 1
EndChar

StartChar: Aacute
Encoding: 193 193 131
Width: 1387
GlyphClass: 2
Flags: W
HStem: 0 21G<200.98 244.043 985.96 1029.04> 506 116<399 984> 1410 100<541.34 850.097>
VStem: 201 198<92 506 622 1224.03> 985 202<92 506 622 1222.59>
DStem2: 586 1722 716 1596 0.770645 0.637264<19.8886 404.856>
LayerCount: 2
Fore
SplineSet
898 1980 m 1,0,-1
 1028 1854 l 1,1,-1
 716 1596 l 1,2,-1
 586 1722 l 1,3,-1
 898 1980 l 1,0,-1
397 1010 m 2,4,-1
 397 622 l 1,5,-1
 984 622 l 1,6,-1
 985 1010 l 1,7,8
 985 1010 985 1010 985 1015 c 0,9,10
 985 1239 985 1239 901 1324 c 0,11,12
 816 1410 816 1410 693 1410 c 0,13,14
 578 1410 578 1410 485 1324 c 0,15,16
 397 1243 397 1243 397 1010 c 2,4,-1
201 0 m 1,17,-1
 200 1016 l 2,18,19
 200 1220 200 1220 345 1365 c 128,-1,20
 490 1510 490 1510 694 1510 c 128,-1,21
 898 1510 898 1510 1043 1365 c 0,22,23
 1187 1221 1187 1221 1187 1019 c 2,24,-1
 1187 1016 l 1,25,-1
 1184 92 l 1,26,-1
 986 0 l 1,27,-1
 985 506 l 1,28,-1
 399 506 l 1,29,-1
 399 92 l 1,30,-1
 201 0 l 1,17,-1
EndSplineSet
Validated: 1
EndChar

StartChar: Acircumflex
Encoding: 194 194 132
Width: 1387
GlyphClass: 2
Flags: W
HStem: 0 21G<200.98 244.043 985.96 1029.04> 506 116<399 984> 1410 100<541.34 850.097> 1752 234<591 825>
VStem: 201 198<92 506 622 1224.03> 985 202<92 506 622 1222.59>
LayerCount: 2
Fore
SplineSet
708 1752 m 1,0,-1
 526 1602 l 1,1,-1
 396 1728 l 1,2,-1
 708 1986 l 1,3,-1
 1020 1728 l 1,4,-1
 890 1602 l 1,5,-1
 708 1752 l 1,0,-1
397 1010 m 2,6,-1
 397 622 l 1,7,-1
 984 622 l 1,8,-1
 985 1010 l 1,9,10
 985 1010 985 1010 985 1015 c 0,11,12
 985 1239 985 1239 901 1324 c 0,13,14
 816 1410 816 1410 693 1410 c 0,15,16
 578 1410 578 1410 485 1324 c 0,17,18
 397 1243 397 1243 397 1010 c 2,6,-1
201 0 m 1,19,-1
 200 1016 l 2,20,21
 200 1220 200 1220 345 1365 c 128,-1,22
 490 1510 490 1510 694 1510 c 128,-1,23
 898 1510 898 1510 1043 1365 c 0,24,25
 1187 1221 1187 1221 1187 1019 c 2,26,-1
 1187 1016 l 1,27,-1
 1184 92 l 1,28,-1
 986 0 l 1,29,-1
 985 506 l 1,30,-1
 399 506 l 1,31,-1
 399 92 l 1,32,-1
 201 0 l 1,19,-1
EndSplineSet
Validated: 1
EndChar

StartChar: Atilde
Encoding: 195 195 133
Width: 1387
GlyphClass: 2
Flags: W
HStem: 0 21G<200.98 244.043 985.96 1029.04> 506 116<399 984> 1410 100<541.34 850.097> 1613 204<818.095 918.253> 1779 185<550.554 677.676>
VStem: 201 198<92 506 622 1224.03> 985 202<92 506 622 1222.59>
DStem2: 672 1938 624 1767 0.859047 -0.511898<0.354202 250.577>
LayerCount: 2
Fore
SplineSet
892 1817 m 1,0,1
 916 1818 916 1818 919 1871 c 0,2,3
 920 1889 920 1889 920 1892 c 1,4,-1
 1122 1964 l 1,5,-1
 1121 1929 l 1,6,-1
 1117 1879 l 2,7,8
 1096 1613 1096 1613 931 1613 c 0,9,10
 893 1613 893 1613 835 1646 c 0,11,12
 651 1750 651 1750 624 1767 c 0,13,14
 600 1782 600 1782 577 1779 c 0,15,16
 553 1776 553 1776 540 1685 c 1,17,-1
 335 1611 l 1,18,-1
 338 1646 l 1,19,-1
 341 1676 l 1,20,21
 368 1964 368 1964 583 1964 c 2,22,-1
 584 1964 l 2,23,24
 626 1964 626 1964 672 1938 c 1,25,-1
 818 1851 l 1,26,27
 880 1818 880 1818 892 1817 c 1,0,1
397 1010 m 2,28,-1
 397 622 l 1,29,-1
 984 622 l 1,30,-1
 985 1010 l 1,31,32
 985 1010 985 1010 985 1015 c 0,33,34
 985 1239 985 1239 901 1324 c 0,35,36
 816 1410 816 1410 693 1410 c 0,37,38
 578 1410 578 1410 485 1324 c 0,39,40
 397 1243 397 1243 397 1010 c 2,28,-1
201 0 m 1,41,-1
 200 1016 l 2,42,43
 200 1220 200 1220 345 1365 c 128,-1,44
 490 1510 490 1510 694 1510 c 128,-1,45
 898 1510 898 1510 1043 1365 c 0,46,47
 1187 1221 1187 1221 1187 1019 c 2,48,-1
 1187 1016 l 1,49,-1
 1184 92 l 1,50,-1
 986 0 l 1,51,-1
 985 506 l 1,52,-1
 399 506 l 1,53,-1
 399 92 l 1,54,-1
 201 0 l 1,41,-1
EndSplineSet
Validated: 1
EndChar

StartChar: Adieresis
Encoding: 196 196 134
Width: 1387
GlyphClass: 2
Flags: W
HStem: 0 21G<200.98 244.043 985.96 1029.04> 506 116<399 984> 1410 100<541.34 850.097> 1641 264<394.191 575.809 844.191 1025.81>
VStem: 201 198<92 506 622 1224.03> 355 260<1680.71 1865.29> 805 260<1683.71 1868.29> 985 202<92 506 622 1222.59>
LayerCount: 2
Fore
SplineSet
805 1776 m 128,-1,1
 805 1831 805 1831 843 1869.5 c 128,-1,2
 881 1908 881 1908 935 1908 c 128,-1,3
 989 1908 989 1908 1027 1869.5 c 128,-1,4
 1065 1831 1065 1831 1065 1776 c 128,-1,5
 1065 1721 1065 1721 1027 1682.5 c 128,-1,6
 989 1644 989 1644 935 1644 c 128,-1,7
 881 1644 881 1644 843 1682.5 c 128,-1,0
 805 1721 805 1721 805 1776 c 128,-1,1
355 1773 m 128,-1,9
 355 1828 355 1828 393 1866.5 c 128,-1,10
 431 1905 431 1905 485 1905 c 128,-1,11
 539 1905 539 1905 577 1866.5 c 128,-1,12
 615 1828 615 1828 615 1773 c 128,-1,13
 615 1718 615 1718 577 1679.5 c 128,-1,14
 539 1641 539 1641 485 1641 c 128,-1,15
 431 1641 431 1641 393 1679.5 c 128,-1,8
 355 1718 355 1718 355 1773 c 128,-1,9
397 1010 m 2,16,-1
 397 622 l 1,17,-1
 984 622 l 1,18,-1
 985 1010 l 1,19,20
 985 1010 985 1010 985 1015 c 0,21,22
 985 1239 985 1239 901 1324 c 0,23,24
 816 1410 816 1410 693 1410 c 0,25,26
 578 1410 578 1410 485 1324 c 0,27,28
 397 1243 397 1243 397 1010 c 2,16,-1
201 0 m 1,29,-1
 200 1016 l 2,30,31
 200 1220 200 1220 345 1365 c 128,-1,32
 490 1510 490 1510 694 1510 c 128,-1,33
 898 1510 898 1510 1043 1365 c 0,34,35
 1187 1221 1187 1221 1187 1019 c 2,36,-1
 1187 1016 l 1,37,-1
 1184 92 l 1,38,-1
 986 0 l 1,39,-1
 985 506 l 1,40,-1
 399 506 l 1,41,-1
 399 92 l 1,42,-1
 201 0 l 1,29,-1
EndSplineSet
Validated: 1
EndChar

StartChar: Aring
Encoding: 197 197 135
Width: 1387
GlyphClass: 2
Flags: W
HStem: 0 21G<200.98 244.043 985.96 1029.04> 506 116<399 984> 1410 100<541.34 850.097> 1600 141<619.808 772.366> 1930 142<612.25 771.975>
VStem: 201 198<92 506 622 1224.03> 449 148<1763.34 1916.17> 795 152<1762.89 1907.83> 985 202<92 506 622 1222.59>
LayerCount: 2
Fore
SplineSet
688 1930 m 0,0,1
 652 1930 652 1930 625 1902 c 0,2,3
 597 1873 597 1873 597 1836 c 0,4,5
 597 1797 597 1797 626 1769 c 128,-1,6
 655 1741 655 1741 696 1741 c 128,-1,7
 737 1741 737 1741 766 1768.5 c 128,-1,8
 795 1796 795 1796 795 1835 c 0,9,10
 795 1871 795 1871 766 1902 c 0,11,12
 740 1930 740 1930 688 1930 c 0,0,1
449 1843 m 0,13,14
 449 1903 449 1903 482 1954 c 0,15,16
 518 2010 518 2010 573 2040 c 1,17,18
 629 2072 629 2072 698 2072 c 0,19,20
 762 2072 762 2072 823 2040 c 0,21,22
 868 2017 868 2017 910 1953 c 0,23,24
 947 1896 947 1896 947 1830 c 0,25,26
 947 1770 947 1770 914 1718 c 0,27,28
 878 1662 878 1662 823 1631 c 128,-1,29
 768 1600 768 1600 698 1600 c 0,30,31
 637 1600 637 1600 573 1632 c 0,32,33
 510 1664 510 1664 477 1716 c 0,34,35
 449 1761 449 1761 449 1843 c 0,13,14
397 1010 m 2,36,-1
 397 622 l 1,37,-1
 984 622 l 1,38,-1
 985 1010 l 1,39,40
 985 1010 985 1010 985 1015 c 0,41,42
 985 1239 985 1239 901 1324 c 0,43,44
 816 1410 816 1410 693 1410 c 0,45,46
 578 1410 578 1410 485 1324 c 0,47,48
 397 1243 397 1243 397 1010 c 2,36,-1
201 0 m 1,49,-1
 200 1016 l 2,50,51
 200 1220 200 1220 345 1365 c 128,-1,52
 490 1510 490 1510 694 1510 c 128,-1,53
 898 1510 898 1510 1043 1365 c 0,54,55
 1187 1221 1187 1221 1187 1019 c 2,56,-1
 1187 1016 l 1,57,-1
 1184 92 l 1,58,-1
 986 0 l 1,59,-1
 985 506 l 1,60,-1
 399 506 l 1,61,-1
 399 92 l 1,62,-1
 201 0 l 1,49,-1
EndSplineSet
Validated: 1
EndChar

StartChar: AE
Encoding: 198 198 136
Width: 1887
GlyphClass: 2
Flags: W
HStem: 0 21G<200.98 244.043 985.971 1028.73> 22 116<1185 1783> 699 116<399 984 1186 1694> 1374 117<1185 1690> 1410 100<541.34 850.594>
VStem: 201 198<92 699 815 1224.03> 985 201<138 696 815 1265.19>
LayerCount: 2
Fore
SplineSet
1185 138 m 1,0,-1
 1837 138 l 1,1,-1
 1783 22 l 1,2,-1
 1033 22 l 1,3,-1
 986 0 l 1,4,-1
 985 699 l 1,5,-1
 399 699 l 1,6,-1
 399 92 l 1,7,-1
 201 0 l 1,8,-1
 200 1016 l 2,9,10
 200 1220 200 1220 345 1365 c 128,-1,11
 490 1510 490 1510 694 1510 c 0,12,13
 866 1510 866 1510 997 1406 c 1,14,-1
 1185 1491 l 1,15,-1
 1745 1490 l 1,16,-1
 1690 1373 l 1,17,-1
 1185 1374 l 1,18,-1
 1186 814 l 1,19,-1
 1745 814 l 1,20,-1
 1694 696 l 1,21,-1
 1186 696 l 1,22,-1
 1185 138 l 1,0,-1
397 1010 m 2,23,-1
 397 815 l 1,24,-1
 984 815 l 1,25,-1
 985 1010 l 1,26,-1
 985 1015 l 2,27,28
 985 1239 985 1239 901 1324 c 0,29,30
 816 1410 816 1410 693 1410 c 0,31,32
 578 1410 578 1410 485 1324 c 0,33,34
 397 1243 397 1243 397 1010 c 2,23,-1
EndSplineSet
Validated: 1
EndChar

StartChar: Ccedilla
Encoding: 199 199 137
Width: 1388
GlyphClass: 2
Flags: W
HStem: -395 21G<658.615 696.361> 1410 100<542.155 851.001>
VStem: 200 199<288.52 1218.89> 986 202<292.905 506.671 992 1221.48>
LayerCount: 2
Fore
SplineSet
986 500 m 1,0,-1
 1188 594 l 1,1,-1
 1187 494 l 2,2,3
 1185 288 1185 288 1043 145 c 0,4,5
 919 20 919 20 749 3 c 1,6,-1
 902 -151 l 1,7,-1
 678 -395 l 1,8,-1
 552 -265 l 1,9,-1
 668 -151 l 1,10,-1
 578 -59 l 1,11,-1
 640 3 l 1,12,13
 470 20 470 20 345 145 c 0,14,15
 200 290 200 290 200 494 c 2,16,-1
 201 1016 l 2,17,18
 201 1220 201 1220 346 1365 c 128,-1,19
 491 1510 491 1510 694 1510 c 0,20,21
 898 1510 898 1510 1043 1365 c 128,-1,22
 1188 1220 1188 1220 1188 1016 c 2,23,-1
 1188 992 l 1,24,-1
 988 898 l 1,25,-1
 986 1010 l 2,26,27
 982 1241 982 1241 902 1324 c 0,28,29
 819 1410 819 1410 694 1410 c 0,30,31
 579 1410 579 1410 486 1324 c 0,32,33
 398 1242 398 1242 398 1010 c 2,34,-1
 399 499 l 2,35,36
 399 267 399 267 487 186 c 0,37,38
 582 99 582 99 695 99 c 0,39,40
 830 99 830 99 903 186 c 0,41,42
 988 288 988 288 988 468 c 0,43,44
 988 493 988 493 986 500 c 1,0,-1
EndSplineSet
Validated: 1
EndChar

StartChar: Egrave
Encoding: 200 200 138
Width: 1100
GlyphClass: 2
Flags: W
HStem: 22 116<398 996> 696 118<398 907> 1374 117<398 903>
VStem: 200 198<138 696 814 1374>
DStem2: 486 1980 356 1854 0.770645 -0.637264<0 384.967>
LayerCount: 2
Fore
SplineSet
486 1980 m 1,0,-1
 798 1722 l 1,1,-1
 668 1596 l 1,2,-1
 356 1854 l 1,3,-1
 486 1980 l 1,0,-1
398 1374 m 1,4,-1
 398 814 l 1,5,-1
 958 814 l 1,6,-1
 907 696 l 1,7,-1
 398 696 l 1,8,-1
 398 138 l 1,9,-1
 1050 138 l 1,10,-1
 996 22 l 1,11,-1
 200 22 l 1,12,-1
 200 1402 l 1,13,-1
 398 1491 l 1,14,-1
 958 1490 l 1,15,-1
 903 1373 l 1,16,-1
 398 1374 l 1,4,-1
EndSplineSet
Validated: 1
EndChar

StartChar: Eacute
Encoding: 201 201 139
Width: 1100
GlyphClass: 2
Flags: W
HStem: 22 116<398 996> 696 118<398 907> 1374 117<398 903>
VStem: 200 198<138 696 814 1374>
DStem2: 586 1722 716 1596 0.770645 0.637264<19.8886 404.856>
LayerCount: 2
Fore
SplineSet
898 1980 m 1,0,-1
 1028 1854 l 1,1,-1
 716 1596 l 1,2,-1
 586 1722 l 1,3,-1
 898 1980 l 1,0,-1
398 1374 m 1,4,-1
 398 814 l 1,5,-1
 958 814 l 1,6,-1
 907 696 l 1,7,-1
 398 696 l 1,8,-1
 398 138 l 1,9,-1
 1050 138 l 1,10,-1
 996 22 l 1,11,-1
 200 22 l 1,12,-1
 200 1402 l 1,13,-1
 398 1491 l 1,14,-1
 958 1490 l 1,15,-1
 903 1373 l 1,16,-1
 398 1374 l 1,4,-1
EndSplineSet
Validated: 1
EndChar

StartChar: Ecircumflex
Encoding: 202 202 140
Width: 1100
GlyphClass: 2
Flags: W
HStem: 22 116<398 996> 696 118<398 907> 1374 117<398 903> 1752 234<591 825>
VStem: 200 198<138 696 814 1374>
LayerCount: 2
Fore
SplineSet
708 1752 m 1,0,-1
 526 1602 l 1,1,-1
 396 1728 l 1,2,-1
 708 1986 l 1,3,-1
 1020 1728 l 1,4,-1
 890 1602 l 1,5,-1
 708 1752 l 1,0,-1
398 1374 m 1,6,-1
 398 814 l 1,7,-1
 958 814 l 1,8,-1
 907 696 l 1,9,-1
 398 696 l 1,10,-1
 398 138 l 1,11,-1
 1050 138 l 1,12,-1
 996 22 l 1,13,-1
 200 22 l 1,14,-1
 200 1402 l 1,15,-1
 398 1491 l 1,16,-1
 958 1490 l 1,17,-1
 903 1373 l 1,18,-1
 398 1374 l 1,6,-1
EndSplineSet
Validated: 1
EndChar

StartChar: Edieresis
Encoding: 203 203 141
Width: 1100
GlyphClass: 2
Flags: W
HStem: 22 116<398 996> 696 118<398 907> 1374 117<398 903> 1641 264<394.191 575.809 828.191 1009.81>
VStem: 200 198<138 696 814 1374> 355 260<1680.71 1865.29> 789 260<1683.71 1868.29>
LayerCount: 2
Fore
SplineSet
789 1776 m 128,-1,1
 789 1831 789 1831 827 1869.5 c 128,-1,2
 865 1908 865 1908 919 1908 c 128,-1,3
 973 1908 973 1908 1011 1869.5 c 128,-1,4
 1049 1831 1049 1831 1049 1776 c 128,-1,5
 1049 1721 1049 1721 1011 1682.5 c 128,-1,6
 973 1644 973 1644 919 1644 c 128,-1,7
 865 1644 865 1644 827 1682.5 c 128,-1,0
 789 1721 789 1721 789 1776 c 128,-1,1
355 1773 m 128,-1,9
 355 1828 355 1828 393 1866.5 c 128,-1,10
 431 1905 431 1905 485 1905 c 128,-1,11
 539 1905 539 1905 577 1866.5 c 128,-1,12
 615 1828 615 1828 615 1773 c 128,-1,13
 615 1718 615 1718 577 1679.5 c 128,-1,14
 539 1641 539 1641 485 1641 c 128,-1,15
 431 1641 431 1641 393 1679.5 c 128,-1,8
 355 1718 355 1718 355 1773 c 128,-1,9
398 1374 m 1,16,-1
 398 814 l 1,17,-1
 958 814 l 1,18,-1
 907 696 l 1,19,-1
 398 696 l 1,20,-1
 398 138 l 1,21,-1
 1050 138 l 1,22,-1
 996 22 l 1,23,-1
 200 22 l 1,24,-1
 200 1402 l 1,25,-1
 398 1491 l 1,26,-1
 958 1490 l 1,27,-1
 903 1373 l 1,28,-1
 398 1374 l 1,16,-1
EndSplineSet
Validated: 1
EndChar

StartChar: Igrave
Encoding: 204 204 142
Width: 637
GlyphClass: 2
Flags: W
HStem: 0 21G<218 262.545> 1492 20G<372 415.972>
VStem: 218 196<88 1422>
DStem2: 135 2010 5 1884 0.770645 -0.637264<0 384.967>
LayerCount: 2
Fore
SplineSet
135 2010 m 1,0,-1
 447 1752 l 1,1,-1
 317 1626 l 1,2,-1
 5 1884 l 1,3,-1
 135 2010 l 1,0,-1
414 88 m 1,4,-1
 218 0 l 1,5,-1
 218 1422 l 1,6,-1
 416 1512 l 1,7,-1
 414 88 l 1,4,-1
EndSplineSet
Validated: 1
EndChar

StartChar: Iacute
Encoding: 205 205 143
Width: 637
GlyphClass: 2
Flags: W
HStem: 0 21G<224 268.545> 1492 20G<378 421.972>
VStem: 224 196<88 1422>
DStem2: 190 1719 320 1593 0.770645 0.637264<19.8886 404.856>
LayerCount: 2
Fore
SplineSet
502 1977 m 1,0,-1
 632 1851 l 1,1,-1
 320 1593 l 1,2,-1
 190 1719 l 1,3,-1
 502 1977 l 1,0,-1
420 88 m 1,4,-1
 224 0 l 1,5,-1
 224 1422 l 1,6,-1
 422 1512 l 1,7,-1
 420 88 l 1,4,-1
EndSplineSet
Validated: 1
EndChar

StartChar: Icircumflex
Encoding: 206 206 144
Width: 634
GlyphClass: 2
Flags: W
HStem: 0 21G<217 261.545> 1492 20G<371 414.972> 1749 234<200 434>
VStem: 217 196<88 1422>
LayerCount: 2
Fore
SplineSet
317 1749 m 1,0,-1
 135 1599 l 1,1,-1
 5 1725 l 1,2,-1
 317 1983 l 1,3,-1
 629 1725 l 1,4,-1
 499 1599 l 1,5,-1
 317 1749 l 1,0,-1
413 88 m 1,6,-1
 217 0 l 1,7,-1
 217 1422 l 1,8,-1
 415 1512 l 1,9,-1
 413 88 l 1,6,-1
EndSplineSet
Validated: 1
EndChar

StartChar: Idieresis
Encoding: 207 207 145
Width: 720
GlyphClass: 2
Flags: W
HStem: 0 21G<261 305.545> 1492 20G<415 458.972> 1644 264<44.1914 225.809 494.191 675.809>
VStem: 5 260<1683.71 1868.29> 261 196<88 1422> 455 260<1686.71 1871.29>
LayerCount: 2
Fore
SplineSet
455 1779 m 128,-1,1
 455 1834 455 1834 493 1872.5 c 128,-1,2
 531 1911 531 1911 585 1911 c 128,-1,3
 639 1911 639 1911 677 1872.5 c 128,-1,4
 715 1834 715 1834 715 1779 c 128,-1,5
 715 1724 715 1724 677 1685.5 c 128,-1,6
 639 1647 639 1647 585 1647 c 128,-1,7
 531 1647 531 1647 493 1685.5 c 128,-1,0
 455 1724 455 1724 455 1779 c 128,-1,1
5 1776 m 128,-1,9
 5 1831 5 1831 43 1869.5 c 128,-1,10
 81 1908 81 1908 135 1908 c 128,-1,11
 189 1908 189 1908 227 1869.5 c 128,-1,12
 265 1831 265 1831 265 1776 c 128,-1,13
 265 1721 265 1721 227 1682.5 c 128,-1,14
 189 1644 189 1644 135 1644 c 128,-1,15
 81 1644 81 1644 43 1682.5 c 128,-1,8
 5 1721 5 1721 5 1776 c 128,-1,9
457 88 m 1,16,-1
 261 0 l 1,17,-1
 261 1422 l 1,18,-1
 459 1512 l 1,19,-1
 457 88 l 1,16,-1
EndSplineSet
Validated: 1
EndChar

StartChar: Eth
Encoding: 208 208 146
Width: 1408
GlyphClass: 2
Flags: W
HStem: 22 116<398 869.016> 672 117<109 200 398 746> 1375 115<397 879.791>
VStem: 200 198<138 672 789 1374> 1001 206<298.883 1223.78>
LayerCount: 2
Fore
SplineSet
397 1492 m 1,0,-1
 713 1490 l 2,1,2
 939 1489 939 1489 1063 1365 c 0,3,4
 1208 1220 1208 1220 1208 1016 c 2,5,-1
 1207 494 l 1,6,7
 1204 287 1204 287 1063 146 c 0,8,9
 940 23 940 23 714 23 c 2,10,-1
 200 22 l 1,11,-1
 200 672 l 1,12,-1
 44 672 l 1,13,-1
 109 789 l 1,14,-1
 200 789 l 1,15,-1
 200 1402 l 1,16,-1
 397 1492 l 1,0,-1
708 1375 m 1,17,-1
 397 1374 l 1,18,-1
 397 789 l 1,19,-1
 813 789 l 1,20,-1
 746 672 l 1,21,-1
 398 672 l 1,22,-1
 398 138 l 1,23,-1
 709 138 l 2,24,25
 874 138 874 138 940 264 c 0,26,27
 998 375 998 375 1001 494 c 1,28,-1
 1003 1015 l 2,29,30
 1003 1138 1003 1138 952 1248 c 0,31,32
 893 1375 893 1375 710 1375 c 2,33,-1
 708 1375 l 1,17,-1
EndSplineSet
Validated: 1
EndChar

StartChar: Ntilde
Encoding: 209 209 147
Width: 1290
GlyphClass: 2
Flags: W
HStem: 0 21G<150.02 193.043 936 979.871> 1410 100<492.34 800.895> 1613 204<768.095 868.253> 1779 185<500.554 627.676>
VStem: 150 198<92 1219.38> 936 204<93 1216.1>
DStem2: 622 1938 574 1767 0.859047 -0.511898<0.354202 250.577>
LayerCount: 2
Fore
SplineSet
842 1817 m 1,0,1
 866 1818 866 1818 869 1871 c 0,2,3
 870 1889 870 1889 870 1892 c 1,4,-1
 1072 1964 l 1,5,-1
 1071 1929 l 1,6,-1
 1067 1879 l 2,7,8
 1046 1613 1046 1613 881 1613 c 0,9,10
 843 1613 843 1613 785 1646 c 0,11,12
 601 1750 601 1750 574 1767 c 0,13,14
 550 1782 550 1782 527 1779 c 0,15,16
 503 1776 503 1776 490 1685 c 1,17,-1
 285 1611 l 1,18,-1
 288 1646 l 1,19,-1
 291 1676 l 1,20,21
 318 1964 318 1964 533 1964 c 2,22,-1
 534 1964 l 2,23,24
 576 1964 576 1964 622 1938 c 1,25,-1
 768 1851 l 1,26,27
 830 1818 830 1818 842 1817 c 1,0,1
348 1010 m 2,28,-1
 348 92 l 1,29,-1
 150 0 l 1,30,-1
 151 1016 l 2,31,32
 151 1220 151 1220 296 1365 c 256,33,34
 441 1510 441 1510 645 1510 c 128,-1,35
 849 1510 849 1510 994 1365 c 0,36,37
 1138 1220 1138 1220 1138 1016 c 2,38,-1
 1140 93 l 1,39,-1
 936 0 l 1,40,-1
 936 1010 l 2,41,42
 936 1240 936 1240 852 1324 c 0,43,44
 766 1410 766 1410 644 1410 c 0,45,46
 529 1410 529 1410 436 1324 c 0,47,48
 348 1243 348 1243 348 1010 c 2,28,-1
EndSplineSet
Validated: 1
EndChar

StartChar: Ograve
Encoding: 210 210 148
Width: 1388
GlyphClass: 2
Flags: W
HStem: 0 94<536.605 846.979> 1410 100<541.878 850.395>
VStem: 200 198<288.97 1218.89> 986 201<288.129 1226.65>
DStem2: 486 1980 356 1854 0.770645 -0.637264<0 384.967>
LayerCount: 2
Fore
SplineSet
486 1980 m 1,0,-1
 798 1722 l 1,1,-1
 668 1596 l 1,2,-1
 356 1854 l 1,3,-1
 486 1980 l 1,0,-1
398 500 m 2,4,5
 398 267 398 267 484 180.5 c 128,-1,6
 570 94 570 94 692 94 c 0,7,8
 816 94 816 94 900 181 c 0,9,10
 980 265 980 265 986 500 c 1,11,-1
 986 1010 l 2,12,13
 986 1239 986 1239 902 1324 c 0,14,15
 816 1410 816 1410 694 1410 c 0,16,17
 579 1410 579 1410 486 1324 c 0,18,19
 398 1242 398 1242 398 1010 c 2,20,-1
 398 500 l 2,4,5
200 494 m 2,21,-1
 201 1016 l 2,22,23
 201 1220 201 1220 345.5 1365 c 128,-1,24
 490 1510 490 1510 694 1510 c 128,-1,25
 898 1510 898 1510 1043 1365 c 256,26,27
 1188 1220 1188 1220 1188 1016 c 2,28,-1
 1187 494 l 1,29,30
 1184 287 1184 287 1043 145 c 0,31,32
 898 0 898 0 694 0 c 128,-1,33
 490 0 490 0 345 145 c 128,-1,34
 200 290 200 290 200 494 c 2,21,-1
EndSplineSet
Validated: 1
EndChar

StartChar: Oacute
Encoding: 211 211 149
Width: 1388
GlyphClass: 2
Flags: W
HStem: 0 94<536.605 846.979> 1410 100<541.878 850.395>
VStem: 200 198<288.97 1218.89> 986 201<288.129 1226.65>
DStem2: 586 1722 716 1596 0.770645 0.637264<19.8886 404.856>
LayerCount: 2
Fore
SplineSet
398 500 m 2,0,1
 398 267 398 267 484 180.5 c 128,-1,2
 570 94 570 94 692 94 c 0,3,4
 816 94 816 94 900 181 c 0,5,6
 980 265 980 265 986 500 c 1,7,-1
 986 1010 l 2,8,9
 986 1239 986 1239 902 1324 c 0,10,11
 816 1410 816 1410 694 1410 c 0,12,13
 579 1410 579 1410 486 1324 c 0,14,15
 398 1242 398 1242 398 1010 c 2,16,-1
 398 500 l 2,0,1
200 494 m 2,17,-1
 201 1016 l 2,18,19
 201 1220 201 1220 345.5 1365 c 128,-1,20
 490 1510 490 1510 694 1510 c 128,-1,21
 898 1510 898 1510 1043 1365 c 256,22,23
 1188 1220 1188 1220 1188 1016 c 2,24,-1
 1187 494 l 1,25,26
 1184 287 1184 287 1043 145 c 0,27,28
 898 0 898 0 694 0 c 128,-1,29
 490 0 490 0 345 145 c 128,-1,30
 200 290 200 290 200 494 c 2,17,-1
898 1980 m 1,31,-1
 1028 1854 l 1,32,-1
 716 1596 l 1,33,-1
 586 1722 l 1,34,-1
 898 1980 l 1,31,-1
EndSplineSet
Validated: 1
EndChar

StartChar: Ocircumflex
Encoding: 212 212 150
Width: 1388
GlyphClass: 2
Flags: W
HStem: 0 94<536.605 846.979> 1410 100<541.878 850.395> 1752 234<591 825>
VStem: 200 198<288.97 1218.89> 986 201<288.129 1226.65>
LayerCount: 2
Fore
SplineSet
708 1752 m 1,0,-1
 526 1602 l 1,1,-1
 396 1728 l 1,2,-1
 708 1986 l 1,3,-1
 1020 1728 l 1,4,-1
 890 1602 l 1,5,-1
 708 1752 l 1,0,-1
398 500 m 2,6,7
 398 267 398 267 484 180.5 c 128,-1,8
 570 94 570 94 692 94 c 0,9,10
 816 94 816 94 900 181 c 0,11,12
 980 265 980 265 986 500 c 1,13,-1
 986 1010 l 2,14,15
 986 1239 986 1239 902 1324 c 0,16,17
 816 1410 816 1410 694 1410 c 0,18,19
 579 1410 579 1410 486 1324 c 0,20,21
 398 1242 398 1242 398 1010 c 2,22,-1
 398 500 l 2,6,7
200 494 m 2,23,-1
 201 1016 l 2,24,25
 201 1220 201 1220 345.5 1365 c 128,-1,26
 490 1510 490 1510 694 1510 c 128,-1,27
 898 1510 898 1510 1043 1365 c 256,28,29
 1188 1220 1188 1220 1188 1016 c 2,30,-1
 1187 494 l 1,31,32
 1184 287 1184 287 1043 145 c 0,33,34
 898 0 898 0 694 0 c 128,-1,35
 490 0 490 0 345 145 c 128,-1,36
 200 290 200 290 200 494 c 2,23,-1
EndSplineSet
Validated: 1
EndChar

StartChar: Otilde
Encoding: 213 213 151
Width: 1388
GlyphClass: 2
Flags: W
HStem: 0 94<536.605 846.979> 1410 100<541.878 850.395> 1613 204<818.095 918.253> 1779 185<550.554 677.676>
VStem: 200 198<288.97 1218.89> 986 201<288.129 1226.65>
DStem2: 672 1938 624 1767 0.859047 -0.511898<0.354202 250.577>
LayerCount: 2
Fore
SplineSet
892 1817 m 1,0,1
 916 1818 916 1818 919 1871 c 0,2,3
 920 1889 920 1889 920 1892 c 1,4,-1
 1122 1964 l 1,5,-1
 1121 1929 l 1,6,-1
 1117 1879 l 2,7,8
 1096 1613 1096 1613 931 1613 c 0,9,10
 893 1613 893 1613 835 1646 c 0,11,12
 651 1750 651 1750 624 1767 c 0,13,14
 600 1782 600 1782 577 1779 c 0,15,16
 553 1776 553 1776 540 1685 c 1,17,-1
 335 1611 l 1,18,-1
 338 1646 l 1,19,-1
 341 1676 l 1,20,21
 368 1964 368 1964 583 1964 c 2,22,-1
 584 1964 l 2,23,24
 626 1964 626 1964 672 1938 c 1,25,-1
 818 1851 l 1,26,27
 880 1818 880 1818 892 1817 c 1,0,1
398 500 m 2,28,29
 398 267 398 267 484 180.5 c 128,-1,30
 570 94 570 94 692 94 c 0,31,32
 816 94 816 94 900 181 c 0,33,34
 980 265 980 265 986 500 c 1,35,-1
 986 1010 l 2,36,37
 986 1239 986 1239 902 1324 c 0,38,39
 816 1410 816 1410 694 1410 c 0,40,41
 579 1410 579 1410 486 1324 c 0,42,43
 398 1242 398 1242 398 1010 c 2,44,-1
 398 500 l 2,28,29
200 494 m 2,45,-1
 201 1016 l 2,46,47
 201 1220 201 1220 345.5 1365 c 128,-1,48
 490 1510 490 1510 694 1510 c 128,-1,49
 898 1510 898 1510 1043 1365 c 256,50,51
 1188 1220 1188 1220 1188 1016 c 2,52,-1
 1187 494 l 1,53,54
 1184 287 1184 287 1043 145 c 0,55,56
 898 0 898 0 694 0 c 128,-1,57
 490 0 490 0 345 145 c 128,-1,58
 200 290 200 290 200 494 c 2,45,-1
EndSplineSet
Validated: 1
EndChar

StartChar: Odieresis
Encoding: 214 214 152
Width: 1388
GlyphClass: 2
Flags: W
HStem: 0 94<536.605 846.979> 1410 100<541.878 850.395> 1641 264<394.191 575.809 844.191 1025.81>
VStem: 200 198<288.97 1218.89> 355 260<1680.71 1865.29> 805 260<1683.71 1868.29> 986 201<288.129 1226.65>
LayerCount: 2
Fore
SplineSet
805 1776 m 128,-1,1
 805 1831 805 1831 843 1869.5 c 128,-1,2
 881 1908 881 1908 935 1908 c 128,-1,3
 989 1908 989 1908 1027 1869.5 c 128,-1,4
 1065 1831 1065 1831 1065 1776 c 128,-1,5
 1065 1721 1065 1721 1027 1682.5 c 128,-1,6
 989 1644 989 1644 935 1644 c 128,-1,7
 881 1644 881 1644 843 1682.5 c 128,-1,0
 805 1721 805 1721 805 1776 c 128,-1,1
355 1773 m 128,-1,9
 355 1828 355 1828 393 1866.5 c 128,-1,10
 431 1905 431 1905 485 1905 c 128,-1,11
 539 1905 539 1905 577 1866.5 c 128,-1,12
 615 1828 615 1828 615 1773 c 128,-1,13
 615 1718 615 1718 577 1679.5 c 128,-1,14
 539 1641 539 1641 485 1641 c 128,-1,15
 431 1641 431 1641 393 1679.5 c 128,-1,8
 355 1718 355 1718 355 1773 c 128,-1,9
398 500 m 2,16,17
 398 267 398 267 484 180.5 c 128,-1,18
 570 94 570 94 692 94 c 0,19,20
 816 94 816 94 900 181 c 0,21,22
 980 265 980 265 986 500 c 1,23,-1
 986 1010 l 2,24,25
 986 1239 986 1239 902 1324 c 0,26,27
 816 1410 816 1410 694 1410 c 0,28,29
 579 1410 579 1410 486 1324 c 0,30,31
 398 1242 398 1242 398 1010 c 2,32,-1
 398 500 l 2,16,17
200 494 m 2,33,-1
 201 1016 l 2,34,35
 201 1220 201 1220 345.5 1365 c 128,-1,36
 490 1510 490 1510 694 1510 c 128,-1,37
 898 1510 898 1510 1043 1365 c 256,38,39
 1188 1220 1188 1220 1188 1016 c 2,40,-1
 1187 494 l 1,41,42
 1184 287 1184 287 1043 145 c 0,43,44
 898 0 898 0 694 0 c 128,-1,45
 490 0 490 0 345 145 c 128,-1,46
 200 290 200 290 200 494 c 2,33,-1
EndSplineSet
Validated: 1
EndChar

StartChar: multiply
Encoding: 215 215 153
Width: 1092
GlyphClass: 2
Flags: W
HStem: 366 666
VStem: 406 280<559 839>
DStem2: 354 1032 150 955 0.707107 -0.707107<0 272.236 470.226 741.048> 150 443 354 366 0.707107 0.707107<89.8026 362.039 560.029 830.85>
LayerCount: 2
Fore
SplineSet
354 366 m 1,0,-1
 150 443 l 1,1,-1
 406 699 l 1,2,-1
 150 955 l 1,3,-1
 354 1032 l 1,4,-1
 546 839 l 1,5,-1
 738 1030 l 1,6,-1
 943 955 l 1,7,-1
 686 699 l 1,8,-1
 943 443 l 1,9,-1
 738 368 l 1,10,-1
 546 559 l 1,11,-1
 354 366 l 1,0,-1
EndSplineSet
Validated: 16385
EndChar

StartChar: Oslash
Encoding: 216 216 154
Width: 1388
GlyphClass: 2
Flags: W
HStem: 0 94<578.967 846.979> 1410 100<541.878 808.639>
VStem: 200 198<288.52 1218.89> 986 201<288.129 1216.1>
DStem2: 297 -93 476 -177 0.327638 0.944803<0 193.274 394.677 1456.81 1669.72 1868.57>
LayerCount: 2
Fore
SplineSet
200 494 m 2,0,-1
 201 1016 l 2,1,2
 201 1220 201 1220 345.5 1365 c 128,-1,3
 490 1510 490 1510 694 1510 c 0,4,5
 774 1510 774 1510 845 1488 c 1,6,-1
 915 1690 l 1,7,-1
 1095 1608 l 1,8,-1
 1019 1388 l 1,9,10
 1031 1377 1031 1377 1043 1365 c 0,11,12
 1188 1220 1188 1220 1188 1016 c 2,13,-1
 1187 494 l 1,14,15
 1184 286 1184 286 1043 145 c 0,16,17
 898 0 898 0 694 0 c 0,18,19
 615 0 615 0 545 22 c 1,20,-1
 476 -177 l 1,21,-1
 297 -93 l 1,22,-1
 371 121 l 1,23,24
 358 132 358 132 345 145 c 0,25,26
 200 290 200 290 200 494 c 2,0,-1
960 1219 m 1,27,-1
 578 116 l 1,28,29
 630 94 630 94 692 94 c 0,30,31
 816 94 816 94 900 181 c 0,32,33
 980 265 980 265 986 500 c 1,34,-1
 986 1010 l 2,35,36
 986 1137 986 1137 960 1219 c 1,27,-1
810 1387 m 1,37,38
 757 1410 757 1410 694 1410 c 0,39,40
 579 1410 579 1410 486 1324 c 0,41,42
 398 1242 398 1242 398 1010 c 2,43,-1
 398 500 l 2,44,45
 398 366 398 366 426 280 c 1,46,-1
 810 1387 l 1,37,38
EndSplineSet
Validated: 1
EndChar

StartChar: Ugrave
Encoding: 217 217 155
Width: 1388
GlyphClass: 2
Flags: W
HStem: -2 94<539.403 852.717> 1491 20G<359.652 403.98 1142.56 1187.02>
VStem: 201 202<286.821 1419> 991 197<287.016 1421>
DStem2: 486 1980 356 1854 0.770645 -0.637264<0 384.967>
LayerCount: 2
Fore
SplineSet
486 1980 m 1,0,-1
 798 1722 l 1,1,-1
 668 1596 l 1,2,-1
 356 1854 l 1,3,-1
 486 1980 l 1,0,-1
991 498 m 1,4,-1
 987 1421 l 1,5,-1
 1187 1511 l 1,6,-1
 1188 492 l 2,7,8
 1188 289 1188 289 1043 143 c 0,9,10
 899 -2 899 -2 695 -2 c 128,-1,11
 491 -2 491 -2 346 143 c 0,12,13
 201 287 201 287 201 492 c 2,14,-1
 200 1419 l 1,15,-1
 404 1511 l 1,16,-1
 403 498 l 2,17,18
 403 265 403 265 489 178 c 0,19,20
 574 92 574 92 697 92 c 0,21,22
 821 92 821 92 905 179 c 0,23,24
 985 263 985 263 991 498 c 1,4,-1
EndSplineSet
Validated: 1
EndChar

StartChar: Uacute
Encoding: 218 218 156
Width: 1388
GlyphClass: 2
Flags: W
HStem: -2 94<539.403 852.717> 1491 20G<359.652 403.98 1142.56 1187.02>
VStem: 201 202<286.821 1419> 991 197<287.016 1421>
DStem2: 586 1722 716 1596 0.770645 0.637264<19.8886 404.856>
LayerCount: 2
Fore
SplineSet
898 1980 m 1,0,-1
 1028 1854 l 1,1,-1
 716 1596 l 1,2,-1
 586 1722 l 1,3,-1
 898 1980 l 1,0,-1
991 498 m 1,4,-1
 987 1421 l 1,5,-1
 1187 1511 l 1,6,-1
 1188 492 l 2,7,8
 1188 289 1188 289 1043 143 c 0,9,10
 899 -2 899 -2 695 -2 c 128,-1,11
 491 -2 491 -2 346 143 c 0,12,13
 201 287 201 287 201 492 c 2,14,-1
 200 1419 l 1,15,-1
 404 1511 l 1,16,-1
 403 498 l 2,17,18
 403 265 403 265 489 178 c 0,19,20
 574 92 574 92 697 92 c 0,21,22
 821 92 821 92 905 179 c 0,23,24
 985 263 985 263 991 498 c 1,4,-1
EndSplineSet
Validated: 1
EndChar

StartChar: Ucircumflex
Encoding: 219 219 157
Width: 1388
GlyphClass: 2
Flags: W
HStem: -2 94<539.403 852.717> 1491 20G<359.652 403.98 1142.56 1187.02> 1752 234<591 825>
VStem: 201 202<286.821 1419> 991 197<287.016 1421>
LayerCount: 2
Fore
SplineSet
708 1752 m 1,0,-1
 526 1602 l 1,1,-1
 396 1728 l 1,2,-1
 708 1986 l 1,3,-1
 1020 1728 l 1,4,-1
 890 1602 l 1,5,-1
 708 1752 l 1,0,-1
991 498 m 1,6,-1
 987 1421 l 1,7,-1
 1187 1511 l 1,8,-1
 1188 492 l 2,9,10
 1188 289 1188 289 1043 143 c 0,11,12
 899 -2 899 -2 695 -2 c 128,-1,13
 491 -2 491 -2 346 143 c 0,14,15
 201 287 201 287 201 492 c 2,16,-1
 200 1419 l 1,17,-1
 404 1511 l 1,18,-1
 403 498 l 2,19,20
 403 265 403 265 489 178 c 0,21,22
 574 92 574 92 697 92 c 0,23,24
 821 92 821 92 905 179 c 0,25,26
 985 263 985 263 991 498 c 1,6,-1
EndSplineSet
Validated: 1
EndChar

StartChar: Udieresis
Encoding: 220 220 158
Width: 1388
GlyphClass: 2
Flags: W
HStem: -2 94<539.403 852.717> 1491 20G<359.652 403.98 1142.56 1187.02> 1641 264<394.191 575.809 844.191 1025.81>
VStem: 201 202<286.821 1419> 355 260<1680.71 1865.29> 805 260<1683.71 1868.29> 991 197<287.016 1421>
LayerCount: 2
Fore
SplineSet
805 1776 m 128,-1,1
 805 1831 805 1831 843 1869.5 c 128,-1,2
 881 1908 881 1908 935 1908 c 128,-1,3
 989 1908 989 1908 1027 1869.5 c 128,-1,4
 1065 1831 1065 1831 1065 1776 c 128,-1,5
 1065 1721 1065 1721 1027 1682.5 c 128,-1,6
 989 1644 989 1644 935 1644 c 128,-1,7
 881 1644 881 1644 843 1682.5 c 128,-1,0
 805 1721 805 1721 805 1776 c 128,-1,1
355 1773 m 128,-1,9
 355 1828 355 1828 393 1866.5 c 128,-1,10
 431 1905 431 1905 485 1905 c 128,-1,11
 539 1905 539 1905 577 1866.5 c 128,-1,12
 615 1828 615 1828 615 1773 c 128,-1,13
 615 1718 615 1718 577 1679.5 c 128,-1,14
 539 1641 539 1641 485 1641 c 128,-1,15
 431 1641 431 1641 393 1679.5 c 128,-1,8
 355 1718 355 1718 355 1773 c 128,-1,9
991 498 m 1,16,-1
 987 1421 l 1,17,-1
 1187 1511 l 1,18,-1
 1188 492 l 2,19,20
 1188 289 1188 289 1043 143 c 0,21,22
 899 -2 899 -2 695 -2 c 128,-1,23
 491 -2 491 -2 346 143 c 0,24,25
 201 287 201 287 201 492 c 2,26,-1
 200 1419 l 1,27,-1
 404 1511 l 1,28,-1
 403 498 l 2,29,30
 403 265 403 265 489 178 c 0,31,32
 574 92 574 92 697 92 c 0,33,34
 821 92 821 92 905 179 c 0,35,36
 985 263 985 263 991 498 c 1,16,-1
EndSplineSet
Validated: 1
EndChar

StartChar: Yacute
Encoding: 221 221 159
Width: 1392
GlyphClass: 2
Flags: W
HStem: 0 21G<598.957 643.545> 1491 21G<360.596 404 1146.61 1191.82>
VStem: 200 204<739.033 1418> 599 196<88 471.196> 992 195<739.529 1422>
DStem2: 586 1722 716 1596 0.770645 0.637264<19.8886 404.856>
LayerCount: 2
Fore
SplineSet
898 1980 m 1,0,-1
 1028 1854 l 1,1,-1
 716 1596 l 1,2,-1
 586 1722 l 1,3,-1
 898 1980 l 1,0,-1
992 956 m 1,4,-1
 990 1422 l 1,5,-1
 1192 1511 l 1,6,-1
 1187 946 l 2,7,8
 1185 740 1185 740 1042 597 c 0,9,10
 934 489 934 489 795 462 c 1,11,-1
 795 88 l 1,12,-1
 599 0 l 1,13,-1
 598 461 l 1,14,15
 457 488 457 488 345 597 c 0,16,17
 200 739 200 739 200 946 c 2,18,-1
 200 1418 l 1,19,-1
 404 1512 l 1,20,-1
 404 956 l 2,21,22
 404 723 404 723 490 636.5 c 128,-1,23
 576 550 576 550 698 550 c 0,24,25
 822 550 822 550 906 637 c 0,26,27
 986 721 986 721 992 956 c 1,4,-1
EndSplineSet
Validated: 1
EndChar

StartChar: Thorn
Encoding: 222 222 160
Width: 1191
GlyphClass: 2
Flags: W
HStem: 0 21G<200 244.545> 303 113<396 731.013> 1155 111<398 717.047> 1492 20G<354 398>
VStem: 200 196<88 303 416 1154 1266 1422> 869 202<592.365 976.75>
LayerCount: 2
Fore
SplineSet
396 88 m 1,0,-1
 200 0 l 1,1,-1
 200 1422 l 1,2,-1
 398 1512 l 1,3,-1
 398 1266 l 1,4,-1
 575 1266 l 1,5,-1
 578 1266 l 2,6,7
 794 1266 794 1266 930 1131 c 1,8,9
 1071 989 1071 989 1071 798 c 2,10,-1
 1071 790 l 2,11,12
 1071 597 1071 597 924 449 c 1,13,14
 779 305 779 305 575 304 c 2,15,-1
 396 303 l 1,16,-1
 396 88 l 1,0,-1
397 1154 m 1,17,-1
 396 416 l 1,18,-1
 571 417 l 2,19,20
 736 418 736 418 810 544 c 0,21,22
 869 647 869 647 869 780 c 2,23,-1
 869 789 l 1,24,25
 866 926 866 926 796 1030 c 0,26,27
 712 1155 712 1155 570 1155 c 0,28,-1
 568 1155 l 2,29,-1
 397 1154 l 1,17,-1
EndSplineSet
Validated: 1
EndChar

StartChar: germandbls
Encoding: 223 223 161
Width: 1308
GlyphClass: 2
Flags: W
HStem: 0 21G<200 243.043> 23 114<572 874.789> 765 112<589 779.606> 1367 122<477.766 813.094>
VStem: 200 197<92 1289.03> 888 191<1001.74 1288.82> 988 200<249.988 623.633>
LayerCount: 2
Fore
SplineSet
397 1160 m 2,0,-1
 398 92 l 1,1,-1
 200 0 l 1,2,-1
 200 1168 l 2,3,4
 200 1292 200 1292 298 1378 c 0,5,6
 424 1489 424 1489 607 1489 c 2,7,-1
 623 1489 l 1,8,-1
 672 1488 l 2,9,10
 877 1484 877 1484 992 1370 c 0,11,12
 1079 1284 1079 1284 1079 1167 c 0,13,14
 1079 1153 1079 1153 1078 1138 c 0,15,16
 1067 980 1067 980 912 876 c 1,17,-1
 836 832 l 1,18,19
 928 814 928 814 1030 752 c 0,20,21
 1188 656 1188 656 1188 429 c 0,22,23
 1188 264 1188 264 1064 149 c 1,24,25
 938 23 938 23 716 23 c 2,26,-1
 503 23 l 1,27,-1
 572 137 l 1,28,-1
 709 137 l 2,29,30
 848 137 848 137 924 223 c 0,31,32
 988 295 988 295 988 419 c 0,33,34
 988 442 988 442 986 464 c 0,35,36
 974 593 974 593 921 658 c 1,37,38
 831 765 831 765 711 765 c 2,39,-1
 709 765 l 1,40,-1
 530 764 l 1,41,-1
 589 877 l 1,42,-1
 685 877 l 1,43,44
 760 884 760 884 838 981 c 0,45,46
 888 1043 888 1043 888 1156 c 0,47,48
 888 1158 888 1158 888 1160 c 0,49,50
 888 1242 888 1242 842 1291 c 1,51,52
 791 1367 791 1367 664 1367 c 2,53,-1
 629 1367 l 1,54,-1
 621 1367 l 2,55,56
 510 1367 510 1367 443 1291 c 1,57,58
 398 1228 398 1228 397 1175 c 0,59,60
 397 1168 397 1168 397 1160 c 2,0,-1
EndSplineSet
Validated: 1
EndChar

StartChar: agrave
Encoding: 224 224 162
Width: 1083
GlyphClass: 2
Flags: W
HStem: -4 84<414.375 651.277> 1032 88<411.028 675.978>
VStem: 130 194<230.302 892.42> 762 191<90 898.155>
DStem2: 340 1584 210 1458 0.770645 -0.637264<0 384.967>
LayerCount: 2
Fore
SplineSet
340 1584 m 1,0,-1
 652 1326 l 1,1,-1
 522 1200 l 1,2,-1
 210 1458 l 1,3,-1
 340 1584 l 1,0,-1
760 397 m 2,4,-1
 758 719 l 2,5,6
 757 905 757 905 698 968 c 1,7,8
 640 1032 640 1032 542 1032 c 0,9,10
 457 1032 457 1032 394 976 c 0,11,12
 324 913 324 913 324 721 c 2,13,-1
 324 567 l 1,14,-1
 326 395 l 2,15,16
 328 199 328 199 396 136 c 0,17,18
 456 80 456 80 544 80 c 0,19,20
 636 80 636 80 730 183 c 1,21,-1
 644 0 l 1,22,23
 605 -4 605 -4 535 -4 c 0,24,25
 374 -4 374 -4 253 119 c 0,26,27
 133 241 133 241 132 410 c 2,28,-1
 130 706 l 1,29,30
 130 874 130 874 251 997 c 128,-1,31
 372 1120 372 1120 542 1120 c 0,32,33
 709 1120 709 1120 832 1001 c 0,34,35
 952 886 952 886 952 714 c 2,36,-1
 953 90 l 1,37,-1
 762 0 l 1,38,39
 762 0 762 0 760 397 c 2,4,-1
EndSplineSet
Validated: 16385
EndChar

StartChar: aacute
Encoding: 225 225 163
Width: 1083
GlyphClass: 2
Flags: W
HStem: -4 84<414.375 651.277> 1032 88<411.028 675.978>
VStem: 130 194<230.302 892.42> 762 191<90 898.155>
DStem2: 424 1318 554 1192 0.770645 0.637264<19.8886 404.856>
LayerCount: 2
Fore
SplineSet
736 1576 m 1,0,-1
 866 1450 l 1,1,-1
 554 1192 l 1,2,-1
 424 1318 l 1,3,-1
 736 1576 l 1,0,-1
760 397 m 2,4,-1
 758 719 l 2,5,6
 757 905 757 905 698 968 c 1,7,8
 640 1032 640 1032 542 1032 c 0,9,10
 457 1032 457 1032 394 976 c 0,11,12
 324 913 324 913 324 721 c 2,13,-1
 324 567 l 1,14,-1
 326 395 l 2,15,16
 328 199 328 199 396 136 c 0,17,18
 456 80 456 80 544 80 c 0,19,20
 636 80 636 80 730 183 c 1,21,-1
 644 0 l 1,22,23
 605 -4 605 -4 535 -4 c 0,24,25
 374 -4 374 -4 253 119 c 0,26,27
 133 241 133 241 132 410 c 2,28,-1
 130 706 l 1,29,30
 130 874 130 874 251 997 c 128,-1,31
 372 1120 372 1120 542 1120 c 0,32,33
 709 1120 709 1120 832 1001 c 0,34,35
 952 886 952 886 952 714 c 2,36,-1
 953 90 l 1,37,-1
 762 0 l 1,38,39
 762 0 762 0 760 397 c 2,4,-1
EndSplineSet
Validated: 16385
EndChar

StartChar: acircumflex
Encoding: 226 226 164
Width: 1083
GlyphClass: 2
Flags: W
HStem: -4 84<414.375 651.277> 1032 88<411.028 675.978> 1342 234<429 663>
VStem: 130 194<230.302 892.42> 762 191<90 898.155>
LayerCount: 2
Fore
SplineSet
546 1342 m 1,0,-1
 364 1192 l 1,1,-1
 234 1318 l 1,2,-1
 546 1576 l 1,3,-1
 858 1318 l 1,4,-1
 728 1192 l 1,5,-1
 546 1342 l 1,0,-1
760 397 m 2,6,-1
 758 719 l 2,7,8
 757 905 757 905 698 968 c 1,9,10
 640 1032 640 1032 542 1032 c 0,11,12
 457 1032 457 1032 394 976 c 0,13,14
 324 913 324 913 324 721 c 2,15,-1
 324 567 l 1,16,-1
 326 395 l 2,17,18
 328 199 328 199 396 136 c 0,19,20
 456 80 456 80 544 80 c 0,21,22
 636 80 636 80 730 183 c 1,23,-1
 644 0 l 1,24,25
 605 -4 605 -4 535 -4 c 0,26,27
 374 -4 374 -4 253 119 c 0,28,29
 133 241 133 241 132 410 c 2,30,-1
 130 706 l 1,31,32
 130 874 130 874 251 997 c 128,-1,33
 372 1120 372 1120 542 1120 c 0,34,35
 709 1120 709 1120 832 1001 c 0,36,37
 952 886 952 886 952 714 c 2,38,-1
 953 90 l 1,39,-1
 762 0 l 1,40,41
 762 0 762 0 760 397 c 2,6,-1
EndSplineSet
Validated: 16385
EndChar

StartChar: atilde
Encoding: 227 227 165
Width: 1083
GlyphClass: 2
Flags: W
HStem: -4 84<414.375 651.277> 1032 88<411.028 675.978> 1214 204<649.095 749.253> 1380 185<381.554 508.676>
VStem: 130 194<230.302 892.42> 758 194<90 900.013 1480 1493>
DStem2: 503 1539 455 1368 0.859047 -0.511898<0.354202 250.577>
LayerCount: 2
Fore
SplineSet
723 1418 m 1,0,1
 747 1419 747 1419 750 1472 c 0,2,3
 751 1490 751 1490 751 1493 c 1,4,-1
 953 1565 l 1,5,-1
 952 1530 l 1,6,-1
 948 1480 l 2,7,8
 927 1214 927 1214 762 1214 c 0,9,10
 724 1214 724 1214 666 1247 c 0,11,12
 482 1351 482 1351 455 1368 c 0,13,14
 431 1383 431 1383 408 1380 c 0,15,16
 384 1377 384 1377 371 1286 c 1,17,-1
 166 1212 l 1,18,-1
 169 1247 l 1,19,-1
 172 1277 l 1,20,21
 199 1565 199 1565 414 1565 c 2,22,-1
 415 1565 l 2,23,24
 457 1565 457 1565 503 1539 c 1,25,-1
 649 1452 l 1,26,27
 711 1419 711 1419 723 1418 c 1,0,1
760 397 m 2,28,-1
 758 719 l 2,29,30
 757 905 757 905 698 968 c 1,31,32
 640 1032 640 1032 542 1032 c 0,33,34
 457 1032 457 1032 394 976 c 0,35,36
 324 913 324 913 324 721 c 2,37,-1
 324 567 l 1,38,-1
 326 395 l 2,39,40
 328 199 328 199 396 136 c 0,41,42
 456 80 456 80 544 80 c 0,43,44
 636 80 636 80 730 183 c 1,45,-1
 644 0 l 1,46,47
 605 -4 605 -4 535 -4 c 0,48,49
 374 -4 374 -4 253 119 c 0,50,51
 133 241 133 241 132 410 c 2,52,-1
 130 706 l 1,53,54
 130 874 130 874 251 997 c 128,-1,55
 372 1120 372 1120 542 1120 c 0,56,57
 709 1120 709 1120 832 1001 c 0,58,59
 952 886 952 886 952 714 c 2,60,-1
 953 90 l 1,61,-1
 762 0 l 1,62,63
 760 397 l 2,28,-1
EndSplineSet
Validated: 16385
EndChar

StartChar: adieresis
Encoding: 228 228 166
Width: 1083
GlyphClass: 2
Flags: W
HStem: -4 84<414.375 651.277> 1032 88<411.028 675.978> 1243 264<231.191 412.809 681.191 862.809>
VStem: 130 194<230.302 892.42> 192 260<1282.71 1467.29> 642 260<1285.71 1470.29> 762 191<90 898.155>
LayerCount: 2
Fore
SplineSet
642 1378 m 128,-1,1
 642 1433 642 1433 680 1471.5 c 128,-1,2
 718 1510 718 1510 772 1510 c 128,-1,3
 826 1510 826 1510 864 1471.5 c 128,-1,4
 902 1433 902 1433 902 1378 c 128,-1,5
 902 1323 902 1323 864 1284.5 c 128,-1,6
 826 1246 826 1246 772 1246 c 128,-1,7
 718 1246 718 1246 680 1284.5 c 128,-1,0
 642 1323 642 1323 642 1378 c 128,-1,1
192 1375 m 128,-1,9
 192 1430 192 1430 230 1468.5 c 128,-1,10
 268 1507 268 1507 322 1507 c 128,-1,11
 376 1507 376 1507 414 1468.5 c 128,-1,12
 452 1430 452 1430 452 1375 c 128,-1,13
 452 1320 452 1320 414 1281.5 c 128,-1,14
 376 1243 376 1243 322 1243 c 128,-1,15
 268 1243 268 1243 230 1281.5 c 128,-1,8
 192 1320 192 1320 192 1375 c 128,-1,9
760 397 m 2,16,-1
 758 719 l 2,17,18
 757 905 757 905 698 968 c 1,19,20
 640 1032 640 1032 542 1032 c 0,21,22
 457 1032 457 1032 394 976 c 0,23,24
 324 913 324 913 324 721 c 2,25,-1
 324 567 l 1,26,-1
 326 395 l 2,27,28
 328 199 328 199 396 136 c 0,29,30
 456 80 456 80 544 80 c 0,31,32
 636 80 636 80 730 183 c 1,33,-1
 644 0 l 1,34,35
 605 -4 605 -4 535 -4 c 0,36,37
 374 -4 374 -4 253 119 c 0,38,39
 133 241 133 241 132 410 c 2,40,-1
 130 706 l 1,41,42
 130 874 130 874 251 997 c 128,-1,43
 372 1120 372 1120 542 1120 c 0,44,45
 709 1120 709 1120 832 1001 c 0,46,47
 952 886 952 886 952 714 c 2,48,-1
 953 90 l 1,49,-1
 762 0 l 1,50,51
 760 397 l 2,16,-1
EndSplineSet
Validated: 16385
EndChar

StartChar: aring
Encoding: 229 229 167
Width: 1083
GlyphClass: 2
Flags: W
HStem: -4 84<414.375 651.277> 1032 88<411.028 675.978> 1218 141<464.808 617.366> 1548 142<457.25 616.975>
VStem: 130 194<230.302 892.42> 294 148<1381.34 1534.17> 640 152<1380.89 1525.83> 762 191<90 898.155>
LayerCount: 2
Fore
SplineSet
533 1548 m 0,0,1
 497 1548 497 1548 470 1520 c 0,2,3
 442 1491 442 1491 442 1454 c 0,4,5
 442 1415 442 1415 471 1387 c 128,-1,6
 500 1359 500 1359 541 1359 c 128,-1,7
 582 1359 582 1359 611 1386.5 c 128,-1,8
 640 1414 640 1414 640 1453 c 0,9,10
 640 1489 640 1489 611 1520 c 0,11,12
 585 1548 585 1548 533 1548 c 0,0,1
294 1461 m 0,13,14
 294 1521 294 1521 327 1572 c 0,15,16
 363 1628 363 1628 418 1658 c 1,17,18
 474 1690 474 1690 543 1690 c 0,19,20
 607 1690 607 1690 668 1658 c 0,21,22
 713 1635 713 1635 755 1571 c 0,23,24
 792 1514 792 1514 792 1448 c 0,25,26
 792 1388 792 1388 759 1336 c 0,27,28
 723 1280 723 1280 668 1249 c 128,-1,29
 613 1218 613 1218 543 1218 c 0,30,31
 482 1218 482 1218 418 1250 c 0,32,33
 355 1282 355 1282 322 1334 c 0,34,35
 294 1379 294 1379 294 1461 c 0,13,14
760 397 m 2,36,-1
 758 719 l 2,37,38
 757 905 757 905 698 968 c 1,39,40
 640 1032 640 1032 542 1032 c 0,41,42
 457 1032 457 1032 394 976 c 0,43,44
 324 913 324 913 324 721 c 2,45,-1
 324 567 l 1,46,-1
 326 395 l 2,47,48
 328 199 328 199 396 136 c 0,49,50
 456 80 456 80 544 80 c 0,51,52
 636 80 636 80 730 183 c 1,53,-1
 644 0 l 1,54,55
 605 -4 605 -4 535 -4 c 0,56,57
 374 -4 374 -4 253 119 c 0,58,59
 133 241 133 241 132 410 c 2,60,-1
 130 706 l 1,61,62
 130 874 130 874 251 997 c 128,-1,63
 372 1120 372 1120 542 1120 c 0,64,65
 709 1120 709 1120 832 1001 c 0,66,67
 952 886 952 886 952 714 c 2,68,-1
 953 90 l 1,69,-1
 762 0 l 1,70,71
 760 397 l 2,36,-1
EndSplineSet
Validated: 16385
EndChar

StartChar: ae
Encoding: 230 230 168
Width: 1712
GlyphClass: 2
Flags: W
HStem: -4 84<414.375 651.277 1058.19 1301.83> 1026 98<401.292 683.085 1034.76 1303.08>
VStem: 130 194<230.302 892.42> 758 194<532 940.051> 1388 194<219.302 410 726 904.845>
DStem2: 953 532 953 414 0.909819 0.415005<0 482.816>
LayerCount: 2
Fore
SplineSet
1376 726 m 1,0,1
 1376 890 1376 890 1324 962 c 1,2,3
 1266 1026 1266 1026 1168 1026 c 0,4,5
 1079 1026 1079 1026 1020 970 c 0,6,7
 952 905 952 905 952 730 c 2,8,-1
 952 725 l 1,9,-1
 953 532 l 1,10,-1
 1376 726 l 1,0,1
762 0 m 1,11,-1
 758 710 l 1,12,13
 758 710 758 710 758 714 c 0,14,15
 758 717 758 717 758 718 c 2,16,-1
 758 719 l 1,17,18
 757 905 757 905 698 968 c 1,19,20
 640 1032 640 1032 542 1032 c 0,21,22
 457 1032 457 1032 394 976 c 0,23,24
 324 913 324 913 324 721 c 2,25,-1
 324 567 l 1,26,-1
 326 395 l 2,27,28
 328 199 328 199 396 136 c 0,29,30
 456 80 456 80 544 80 c 0,31,32
 636 80 636 80 730 183 c 1,33,-1
 644 0 l 1,34,35
 605 -4 605 -4 535 -4 c 0,36,37
 374 -4 374 -4 253 119 c 0,38,39
 133 241 133 241 132 410 c 2,40,-1
 130 706 l 1,41,42
 130 874 130 874 251 997 c 128,-1,43
 372 1120 372 1120 542 1120 c 0,44,45
 703 1120 703 1120 832 1001 c 0,46,47
 845 989 845 989 856 976 c 1,48,49
 867 989 867 989 879 1001 c 0,50,51
 1002 1124 1002 1124 1170 1124 c 0,52,53
 1328 1124 1328 1124 1460 1005 c 0,54,55
 1580 896 1580 896 1580 718 c 2,56,-1
 1580 700 l 1,57,-1
 953 414 l 1,58,-1
 954 399 l 2,59,60
 967 201 967 201 1026 146 c 0,61,62
 1087 90 1087 90 1174 90 c 0,63,64
 1287 90 1287 90 1340 154 c 0,65,66
 1388 212 1388 212 1388 401 c 2,67,-1
 1388 410 l 1,68,-1
 1582 499 l 1,69,-1
 1582 406 l 2,70,71
 1582 235 1582 235 1462 119 c 0,72,73
 1339 0 1339 0 1172 0 c 0,74,75
 1035 0 1035 0 930 79 c 1,76,-1
 762 0 l 1,11,-1
EndSplineSet
Validated: 16385
EndChar

StartChar: ccedilla
Encoding: 231 231 169
Width: 1084
GlyphClass: 2
Flags: W
HStem: -398 21G<511.615 549.361> 1034 86<407.251 671.764>
VStem: 130 194<230.302 893.018> 760 194<215.243 404 704 900.28>
LayerCount: 2
Fore
SplineSet
760 404 m 1,0,-1
 954 490 l 1,1,-1
 954 402 l 2,2,3
 954 231 954 231 834 115 c 0,4,5
 733 17 733 17 602 0 c 1,6,-1
 755 -154 l 1,7,-1
 531 -398 l 1,8,-1
 405 -268 l 1,9,-1
 521 -154 l 1,10,-1
 431 -62 l 1,11,-1
 492 -1 l 1,12,13
 355 15 355 15 253 119 c 0,14,15
 133 241 133 241 132 410 c 2,16,-1
 130 706 l 1,17,18
 130 874 130 874 251 997 c 128,-1,19
 372 1120 372 1120 542 1120 c 0,20,21
 700 1120 700 1120 832 1001 c 0,22,23
 952 892 952 892 952 714 c 2,24,-1
 952 704 l 1,25,-1
 758 617 l 1,26,-1
 758 719 l 2,27,28
 758 904 758 904 696 970 c 1,29,30
 638 1034 638 1034 540 1034 c 0,31,32
 451 1034 451 1034 392 978 c 0,33,34
 324 913 324 913 324 721 c 2,35,-1
 324 567 l 1,36,-1
 326 395 l 2,37,38
 328 205 328 205 398 140 c 0,39,40
 459 84 459 84 546 84 c 0,41,42
 646 84 646 84 712 148 c 0,43,44
 760 195 760 195 760 397 c 2,45,-1
 760 404 l 1,0,-1
EndSplineSet
Validated: 16385
EndChar

StartChar: egrave
Encoding: 232 232 170
Width: 1084
GlyphClass: 2
Flags: W
HStem: -4 90<412.808 691.452> 1022 98<406.274 675.077>
VStem: 130 194<528 891.579> 760 194<215.302 406 722 900.845>
DStem2: 340 1584 210 1458 0.770645 -0.637264<0 384.967> 325 528 325 410 0.909819 0.415005<0 482.816>
LayerCount: 2
Fore
SplineSet
340 1584 m 1,0,-1
 652 1326 l 1,1,-1
 522 1200 l 1,2,-1
 210 1458 l 1,3,-1
 340 1584 l 1,0,-1
952 696 m 1,4,-1
 325 410 l 1,5,-1
 326 395 l 2,6,7
 339 197 339 197 398 142 c 0,8,9
 459 86 459 86 546 86 c 0,10,11
 659 86 659 86 712 150 c 0,12,13
 760 208 760 208 760 397 c 2,14,-1
 760 406 l 1,15,-1
 954 495 l 1,16,-1
 954 402 l 2,17,18
 954 231 954 231 834 115 c 0,19,20
 711 -4 711 -4 544 -4 c 0,21,22
 374 -4 374 -4 253 119 c 0,23,24
 133 241 133 241 132 410 c 2,25,-1
 130 706 l 1,26,27
 130 874 130 874 251 997 c 128,-1,28
 372 1120 372 1120 542 1120 c 0,29,30
 700 1120 700 1120 832 1001 c 0,31,32
 952 892 952 892 952 714 c 2,33,-1
 952 696 l 1,4,-1
748 722 m 1,34,35
 748 886 748 886 696 958 c 1,36,37
 638 1022 638 1022 540 1022 c 0,38,39
 451 1022 451 1022 392 966 c 0,40,41
 324 901 324 901 324 726 c 0,42,43
 324 724 324 724 324 721 c 2,44,-1
 325 528 l 1,45,-1
 748 722 l 1,34,35
EndSplineSet
Validated: 16385
EndChar

StartChar: eacute
Encoding: 233 233 171
Width: 1084
GlyphClass: 2
Flags: W
HStem: -4 90<412.808 691.452> 1022 98<406.274 675.077>
VStem: 130 194<528 891.579> 760 194<215.302 406 722 900.845>
DStem2: 325 528 325 410 0.909819 0.415005<0 482.816> 424 1318 554 1192 0.770645 0.637264<19.8886 404.856>
LayerCount: 2
Fore
SplineSet
736 1576 m 1,0,-1
 866 1450 l 1,1,-1
 554 1192 l 1,2,-1
 424 1318 l 1,3,-1
 736 1576 l 1,0,-1
952 696 m 1,4,-1
 325 410 l 1,5,-1
 326 395 l 2,6,7
 339 197 339 197 398 142 c 0,8,9
 459 86 459 86 546 86 c 0,10,11
 659 86 659 86 712 150 c 0,12,13
 760 208 760 208 760 397 c 2,14,-1
 760 406 l 1,15,-1
 954 495 l 1,16,-1
 954 402 l 2,17,18
 954 231 954 231 834 115 c 0,19,20
 711 -4 711 -4 544 -4 c 0,21,22
 374 -4 374 -4 253 119 c 0,23,24
 133 241 133 241 132 410 c 2,25,-1
 130 706 l 1,26,27
 130 874 130 874 251 997 c 128,-1,28
 372 1120 372 1120 542 1120 c 0,29,30
 700 1120 700 1120 832 1001 c 0,31,32
 952 892 952 892 952 714 c 2,33,-1
 952 696 l 1,4,-1
748 722 m 1,34,35
 748 886 748 886 696 958 c 1,36,37
 638 1022 638 1022 540 1022 c 0,38,39
 451 1022 451 1022 392 966 c 0,40,41
 324 901 324 901 324 726 c 0,42,43
 324 724 324 724 324 721 c 2,44,-1
 325 528 l 1,45,-1
 748 722 l 1,34,35
EndSplineSet
Validated: 16385
EndChar

StartChar: ecircumflex
Encoding: 234 234 172
Width: 1084
GlyphClass: 2
Flags: W
HStem: -4 90<412.808 691.452> 1022 98<406.274 675.077> 1342 234<429 663>
VStem: 130 194<528 891.579> 760 194<215.302 406 722 900.845>
DStem2: 325 528 325 410 0.909819 0.415005<0 482.816>
LayerCount: 2
Fore
SplineSet
546 1342 m 1,0,-1
 364 1192 l 1,1,-1
 234 1318 l 1,2,-1
 546 1576 l 1,3,-1
 858 1318 l 1,4,-1
 728 1192 l 1,5,-1
 546 1342 l 1,0,-1
952 696 m 1,6,-1
 325 410 l 1,7,-1
 326 395 l 2,8,9
 339 197 339 197 398 142 c 0,10,11
 459 86 459 86 546 86 c 0,12,13
 659 86 659 86 712 150 c 0,14,15
 760 208 760 208 760 397 c 2,16,-1
 760 406 l 1,17,-1
 954 495 l 1,18,-1
 954 402 l 2,19,20
 954 231 954 231 834 115 c 0,21,22
 711 -4 711 -4 544 -4 c 0,23,24
 374 -4 374 -4 253 119 c 0,25,26
 133 241 133 241 132 410 c 2,27,-1
 130 706 l 1,28,29
 130 874 130 874 251 997 c 128,-1,30
 372 1120 372 1120 542 1120 c 0,31,32
 700 1120 700 1120 832 1001 c 0,33,34
 952 892 952 892 952 714 c 2,35,-1
 952 696 l 1,6,-1
748 722 m 1,36,37
 748 886 748 886 696 958 c 1,38,39
 638 1022 638 1022 540 1022 c 0,40,41
 451 1022 451 1022 392 966 c 0,42,43
 324 901 324 901 324 726 c 0,44,45
 324 724 324 724 324 721 c 2,46,-1
 325 528 l 1,47,-1
 748 722 l 1,36,37
EndSplineSet
Validated: 16385
EndChar

StartChar: edieresis
Encoding: 235 235 173
Width: 1084
GlyphClass: 2
Flags: W
HStem: -4 90<412.808 691.452> 1022 98<406.274 675.077> 1243 264<231.191 412.809 681.191 862.809>
VStem: 130 194<528 891.579> 192 260<1282.71 1467.29> 642 260<1285.71 1470.29> 760 194<215.302 406 722 900.845>
DStem2: 325 528 325 410 0.909819 0.415005<0 482.816>
LayerCount: 2
Fore
SplineSet
642 1378 m 128,-1,1
 642 1433 642 1433 680 1471.5 c 128,-1,2
 718 1510 718 1510 772 1510 c 128,-1,3
 826 1510 826 1510 864 1471.5 c 128,-1,4
 902 1433 902 1433 902 1378 c 128,-1,5
 902 1323 902 1323 864 1284.5 c 128,-1,6
 826 1246 826 1246 772 1246 c 128,-1,7
 718 1246 718 1246 680 1284.5 c 128,-1,0
 642 1323 642 1323 642 1378 c 128,-1,1
192 1375 m 128,-1,9
 192 1430 192 1430 230 1468.5 c 128,-1,10
 268 1507 268 1507 322 1507 c 128,-1,11
 376 1507 376 1507 414 1468.5 c 128,-1,12
 452 1430 452 1430 452 1375 c 128,-1,13
 452 1320 452 1320 414 1281.5 c 128,-1,14
 376 1243 376 1243 322 1243 c 128,-1,15
 268 1243 268 1243 230 1281.5 c 128,-1,8
 192 1320 192 1320 192 1375 c 128,-1,9
952 696 m 1,16,-1
 325 410 l 1,17,-1
 326 395 l 2,18,19
 339 197 339 197 398 142 c 0,20,21
 459 86 459 86 546 86 c 0,22,23
 659 86 659 86 712 150 c 0,24,25
 760 208 760 208 760 397 c 2,26,-1
 760 406 l 1,27,-1
 954 495 l 1,28,-1
 954 402 l 2,29,30
 954 231 954 231 834 115 c 0,31,32
 711 -4 711 -4 544 -4 c 0,33,34
 374 -4 374 -4 253 119 c 0,35,36
 133 241 133 241 132 410 c 2,37,-1
 130 706 l 1,38,39
 130 874 130 874 251 997 c 128,-1,40
 372 1120 372 1120 542 1120 c 0,41,42
 700 1120 700 1120 832 1001 c 0,43,44
 952 892 952 892 952 714 c 2,45,-1
 952 696 l 1,16,-1
748 722 m 1,46,47
 748 886 748 886 696 958 c 1,48,49
 638 1022 638 1022 540 1022 c 0,50,51
 451 1022 451 1022 392 966 c 0,52,53
 324 901 324 901 324 726 c 0,54,55
 324 724 324 724 324 721 c 2,56,-1
 325 528 l 1,57,-1
 748 722 l 1,46,47
EndSplineSet
Validated: 16385
EndChar

StartChar: igrave
Encoding: 236 236 174
Width: 498
GlyphClass: 2
Flags: W
HStem: 0 21G<151.019 194.043> 1100 20G<301.333 348.019>
VStem: 151 198<92 1036>
DStem2: 136 1590 6 1464 0.770645 -0.637264<0 384.967>
LayerCount: 2
Fore
SplineSet
136 1590 m 1,0,-1
 448 1332 l 1,1,-1
 318 1206 l 1,2,-1
 6 1464 l 1,3,-1
 136 1590 l 1,0,-1
349 92 m 1,4,-1
 151 0 l 1,5,-1
 152 1036 l 1,6,-1
 348 1120 l 1,7,-1
 349 92 l 1,4,-1
EndSplineSet
Validated: 1
EndChar

StartChar: iacute
Encoding: 237 237 175
Width: 498
GlyphClass: 2
Flags: W
HStem: 0 21G<152.019 195.043> 1100 20G<302.333 349.019>
VStem: 152 198<92 1036>
DStem2: 50 1326 180 1200 0.770645 0.637264<19.8886 404.856>
LayerCount: 2
Fore
SplineSet
362 1584 m 1,0,-1
 492 1458 l 1,1,-1
 180 1200 l 1,2,-1
 50 1326 l 1,3,-1
 362 1584 l 1,0,-1
350 92 m 1,4,-1
 152 0 l 1,5,-1
 153 1036 l 1,6,-1
 349 1120 l 1,7,-1
 350 92 l 1,4,-1
EndSplineSet
Validated: 1
EndChar

StartChar: icircumflex
Encoding: 238 238 176
Width: 634
GlyphClass: 2
Flags: W
HStem: 0 21G<211.019 254.043> 1100 20G<361.333 408.019> 1347 234<200 434>
VStem: 211 198<92 1036>
LayerCount: 2
Fore
SplineSet
317 1347 m 1,0,-1
 135 1197 l 1,1,-1
 5 1323 l 1,2,-1
 317 1581 l 1,3,-1
 629 1323 l 1,4,-1
 499 1197 l 1,5,-1
 317 1347 l 1,0,-1
409 92 m 1,6,-1
 211 0 l 1,7,-1
 212 1036 l 1,8,-1
 408 1120 l 1,9,-1
 409 92 l 1,6,-1
EndSplineSet
Validated: 1
EndChar

StartChar: idieresis
Encoding: 239 239 177
Width: 720
GlyphClass: 2
Flags: W
HStem: 0 21G<261.019 304.043> 1100 20G<411.333 458.019> 1245 264<44.1914 225.809 494.191 675.809>
VStem: 5 260<1284.71 1469.29> 261 198<92 1036> 455 260<1287.71 1472.29>
LayerCount: 2
Fore
SplineSet
455 1380 m 128,-1,1
 455 1435 455 1435 493 1473.5 c 128,-1,2
 531 1512 531 1512 585 1512 c 128,-1,3
 639 1512 639 1512 677 1473.5 c 128,-1,4
 715 1435 715 1435 715 1380 c 128,-1,5
 715 1325 715 1325 677 1286.5 c 128,-1,6
 639 1248 639 1248 585 1248 c 128,-1,7
 531 1248 531 1248 493 1286.5 c 128,-1,0
 455 1325 455 1325 455 1380 c 128,-1,1
5 1377 m 128,-1,9
 5 1432 5 1432 43 1470.5 c 128,-1,10
 81 1509 81 1509 135 1509 c 128,-1,11
 189 1509 189 1509 227 1470.5 c 128,-1,12
 265 1432 265 1432 265 1377 c 128,-1,13
 265 1322 265 1322 227 1283.5 c 128,-1,14
 189 1245 189 1245 135 1245 c 128,-1,15
 81 1245 81 1245 43 1283.5 c 128,-1,8
 5 1322 5 1322 5 1377 c 128,-1,9
459 92 m 1,16,-1
 261 0 l 1,17,-1
 262 1036 l 1,18,-1
 458 1120 l 1,19,-1
 459 92 l 1,16,-1
EndSplineSet
Validated: 1
EndChar

StartChar: eth
Encoding: 240 240 178
Width: 1104
GlyphClass: 2
Flags: W
HStem: -4 84<413.816 673.606> 1032 88<411.028 676.636> 1122 21G<621.667 655.895> 1427 84<410.213 662.405>
VStem: 130 194<230.302 892.42> 759 194<212.158 945.31 1059 1213.93>
DStem2: 585 1230 630 1122 0.77516 0.631765<0 122.014 286.177 421.743>
LayerCount: 2
Fore
SplineSet
958 1534 m 1,0,-1
 984 1408 l 1,1,-1
 884 1325 l 1,2,3
 953 1224 953 1224 953 1097 c 2,4,-1
 954 393 l 1,5,6
 951 228 951 228 834 115 c 0,7,8
 711 -4 711 -4 544 -4 c 0,9,10
 374 -4 374 -4 253 119 c 0,11,12
 133 241 133 241 132 410 c 2,13,-1
 130 706 l 1,14,15
 130 874 130 874 251 997 c 128,-1,16
 372 1120 372 1120 542 1120 c 0,17,18
 662 1120 662 1120 759 1059 c 1,19,-1
 759 1089 l 1,20,-1
 759 1112 l 2,21,22
 759 1170 759 1170 753 1217 c 1,23,-1
 630 1122 l 1,24,-1
 585 1230 l 1,25,-1
 716 1338 l 1,26,27
 637 1427 637 1427 543 1427 c 2,28,-1
 541 1427 l 2,29,30
 443 1427 443 1427 385 1363 c 1,31,32
 338 1307 338 1307 330 1209 c 1,33,-1
 251 1390 l 1,34,35
 366 1496 366 1496 541 1511 c 1,36,-1
 549 1511 l 2,37,38
 691 1511 691 1511 797 1405 c 1,39,-1
 958 1534 l 1,0,-1
326 395 m 2,40,41
 328 199 328 199 396 136 c 0,42,43
 457 80 457 80 544 80 c 0,44,45
 642 80 642 80 700 144 c 1,46,47
 760 208 760 208 760 391 c 2,48,-1
 760 397 l 1,49,-1
 758 719 l 2,50,51
 757 905 757 905 698 968 c 1,52,53
 640 1032 640 1032 542 1032 c 0,54,55
 457 1032 457 1032 394 976 c 0,56,57
 324 913 324 913 324 721 c 2,58,-1
 324 567 l 1,59,-1
 326 395 l 2,40,41
EndSplineSet
Validated: 16385
EndChar

StartChar: ntilde
Encoding: 241 241 179
Width: 1085
GlyphClass: 2
Flags: W
HStem: 0 21G<135.83 178.667 758.972 802.077> 1032 88<410.918 675.978> 1214 204<649.095 749.253> 1380 185<381.554 508.676>
VStem: 130 194<90 893.446> 758 194<91 900.013 1480 1493>
DStem2: 503 1539 455 1368 0.859047 -0.511898<0.354202 250.577>
LayerCount: 2
Fore
SplineSet
723 1418 m 1,0,1
 747 1419 747 1419 750 1472 c 0,2,3
 751 1490 751 1490 751 1493 c 1,4,-1
 953 1565 l 1,5,-1
 952 1530 l 1,6,-1
 948 1480 l 2,7,8
 927 1214 927 1214 762 1214 c 0,9,10
 724 1214 724 1214 666 1247 c 0,11,12
 482 1351 482 1351 455 1368 c 0,13,14
 431 1383 431 1383 408 1380 c 0,15,16
 384 1377 384 1377 371 1286 c 1,17,-1
 166 1212 l 1,18,-1
 169 1247 l 1,19,-1
 172 1277 l 1,20,21
 199 1565 199 1565 414 1565 c 2,22,-1
 415 1565 l 2,23,24
 457 1565 457 1565 503 1539 c 1,25,-1
 649 1452 l 1,26,27
 711 1419 711 1419 723 1418 c 1,0,1
955 91 m 1,28,-1
 759 0 l 1,29,-1
 758 719 l 2,30,31
 758 905 758 905 698 968 c 1,32,33
 640 1032 640 1032 542 1032 c 0,34,35
 456 1032 456 1032 394 976 c 0,36,37
 324 913 324 913 324 726 c 0,38,39
 324 724 324 724 324 721 c 2,40,-1
 328 90 l 1,41,-1
 136 0 l 1,42,-1
 130 706 l 1,43,44
 130 874 130 874 251 997 c 128,-1,45
 372 1120 372 1120 542 1120 c 0,46,47
 709 1120 709 1120 832 1001 c 0,48,49
 951 886 951 886 952 714 c 2,50,-1
 955 91 l 1,28,-1
EndSplineSet
Validated: 16385
EndChar

StartChar: ograve
Encoding: 242 242 180
Width: 1084
GlyphClass: 2
Flags: W
HStem: -4 84<413.816 673.606> 1032 88<411.028 675.978>
VStem: 130 194<228.236 892.42> 760 194<215.64 896.513>
DStem2: 340 1584 210 1458 0.770645 -0.637264<0 384.967>
LayerCount: 2
Fore
SplineSet
340 1584 m 1,0,-1
 652 1326 l 1,1,-1
 522 1200 l 1,2,-1
 210 1458 l 1,3,-1
 340 1584 l 1,0,-1
326 395 m 2,4,5
 328 199 328 199 396 136 c 0,6,7
 457 80 457 80 544 80 c 0,8,9
 642 80 642 80 700 144 c 1,10,11
 760 208 760 208 760 391 c 0,12,13
 760 394 760 394 760 397 c 2,14,-1
 758 719 l 2,15,16
 757 905 757 905 698 968 c 1,17,18
 640 1032 640 1032 542 1032 c 0,19,20
 457 1032 457 1032 394 976 c 0,21,22
 324 913 324 913 324 721 c 2,23,-1
 324 567 l 1,24,-1
 326 395 l 2,4,5
954 402 m 1,25,26
 954 231 954 231 834 115 c 0,27,28
 711 -4 711 -4 544 -4 c 0,29,30
 374 -4 374 -4 253 119 c 128,-1,31
 132 242 132 242 132 410 c 1,32,-1
 130 706 l 1,33,34
 130 874 130 874 251 997 c 128,-1,35
 372 1120 372 1120 542 1120 c 0,36,37
 709 1120 709 1120 832 1001 c 0,38,39
 951 886 951 886 952 714 c 2,40,-1
 954 402 l 1,25,26
EndSplineSet
Validated: 16385
EndChar

StartChar: oacute
Encoding: 243 243 181
Width: 1084
GlyphClass: 2
Flags: W
HStem: -4 84<413.816 673.606> 1032 88<411.028 675.978>
VStem: 130 194<228.236 892.42> 760 194<215.64 896.513>
DStem2: 424 1318 554 1192 0.770645 0.637264<19.8886 404.856>
LayerCount: 2
Fore
SplineSet
326 395 m 2,0,1
 328 199 328 199 396 136 c 0,2,3
 457 80 457 80 544 80 c 0,4,5
 642 80 642 80 700 144 c 1,6,7
 760 208 760 208 760 391 c 0,8,9
 760 394 760 394 760 397 c 2,10,-1
 758 719 l 2,11,12
 757 905 757 905 698 968 c 1,13,14
 640 1032 640 1032 542 1032 c 0,15,16
 457 1032 457 1032 394 976 c 0,17,18
 324 913 324 913 324 721 c 2,19,-1
 324 567 l 1,20,-1
 326 395 l 2,0,1
954 402 m 1,21,22
 954 231 954 231 834 115 c 0,23,24
 711 -4 711 -4 544 -4 c 0,25,26
 374 -4 374 -4 253 119 c 128,-1,27
 132 242 132 242 132 410 c 1,28,-1
 130 706 l 1,29,30
 130 874 130 874 251 997 c 128,-1,31
 372 1120 372 1120 542 1120 c 0,32,33
 709 1120 709 1120 832 1001 c 0,34,35
 951 886 951 886 952 714 c 2,36,-1
 954 402 l 1,21,22
736 1576 m 1,37,-1
 866 1450 l 1,38,-1
 554 1192 l 1,39,-1
 424 1318 l 1,40,-1
 736 1576 l 1,37,-1
EndSplineSet
Validated: 16385
EndChar

StartChar: ocircumflex
Encoding: 244 244 182
Width: 1084
GlyphClass: 2
Flags: W
HStem: -4 84<413.816 673.606> 1032 88<411.028 675.978> 1342 234<429 663>
VStem: 130 194<228.236 892.42> 760 194<215.64 896.513>
LayerCount: 2
Fore
SplineSet
546 1342 m 1,0,-1
 364 1192 l 1,1,-1
 234 1318 l 1,2,-1
 546 1576 l 1,3,-1
 858 1318 l 1,4,-1
 728 1192 l 1,5,-1
 546 1342 l 1,0,-1
326 395 m 2,6,7
 328 199 328 199 396 136 c 0,8,9
 457 80 457 80 544 80 c 0,10,11
 642 80 642 80 700 144 c 1,12,13
 760 208 760 208 760 391 c 0,14,15
 760 394 760 394 760 397 c 2,16,-1
 758 719 l 2,17,18
 757 905 757 905 698 968 c 1,19,20
 640 1032 640 1032 542 1032 c 0,21,22
 457 1032 457 1032 394 976 c 0,23,24
 324 913 324 913 324 721 c 2,25,-1
 324 567 l 1,26,-1
 326 395 l 2,6,7
954 402 m 1,27,28
 954 231 954 231 834 115 c 0,29,30
 711 -4 711 -4 544 -4 c 0,31,32
 374 -4 374 -4 253 119 c 128,-1,33
 132 242 132 242 132 410 c 1,34,-1
 130 706 l 1,35,36
 130 874 130 874 251 997 c 128,-1,37
 372 1120 372 1120 542 1120 c 0,38,39
 709 1120 709 1120 832 1001 c 0,40,41
 951 886 951 886 952 714 c 2,42,-1
 954 402 l 1,27,28
EndSplineSet
Validated: 16385
EndChar

StartChar: otilde
Encoding: 245 245 183
Width: 1084
GlyphClass: 2
Flags: W
HStem: -4 84<413.816 673.606> 1032 88<411.028 675.978> 1214 204<649.095 749.253> 1380 185<381.554 508.676>
VStem: 130 194<228.236 892.42> 760 194<215.64 896.513 1480 1493>
DStem2: 503 1539 455 1368 0.859047 -0.511898<0.354202 250.577>
LayerCount: 2
Fore
SplineSet
723 1418 m 1,0,1
 747 1419 747 1419 750 1472 c 0,2,3
 751 1490 751 1490 751 1493 c 1,4,-1
 953 1565 l 1,5,-1
 952 1530 l 1,6,-1
 948 1480 l 2,7,8
 927 1214 927 1214 762 1214 c 0,9,10
 724 1214 724 1214 666 1247 c 0,11,12
 482 1351 482 1351 455 1368 c 0,13,14
 431 1383 431 1383 408 1380 c 0,15,16
 384 1377 384 1377 371 1286 c 1,17,-1
 166 1212 l 1,18,-1
 169 1247 l 1,19,-1
 172 1277 l 1,20,21
 199 1565 199 1565 414 1565 c 2,22,-1
 415 1565 l 2,23,24
 457 1565 457 1565 503 1539 c 1,25,-1
 649 1452 l 1,26,27
 711 1419 711 1419 723 1418 c 1,0,1
326 395 m 2,28,29
 328 199 328 199 396 136 c 0,30,31
 457 80 457 80 544 80 c 0,32,33
 642 80 642 80 700 144 c 1,34,35
 760 208 760 208 760 391 c 0,36,37
 760 394 760 394 760 397 c 2,38,-1
 758 719 l 2,39,40
 757 905 757 905 698 968 c 1,41,42
 640 1032 640 1032 542 1032 c 0,43,44
 457 1032 457 1032 394 976 c 0,45,46
 324 913 324 913 324 721 c 2,47,-1
 324 567 l 1,48,-1
 326 395 l 2,28,29
954 402 m 1,49,50
 954 231 954 231 834 115 c 0,51,52
 711 -4 711 -4 544 -4 c 0,53,54
 374 -4 374 -4 253 119 c 128,-1,55
 132 242 132 242 132 410 c 1,56,-1
 130 706 l 1,57,58
 130 874 130 874 251 997 c 128,-1,59
 372 1120 372 1120 542 1120 c 0,60,61
 709 1120 709 1120 832 1001 c 0,62,63
 951 886 951 886 952 714 c 2,64,-1
 954 402 l 1,49,50
EndSplineSet
Validated: 16385
EndChar

StartChar: odieresis
Encoding: 246 246 184
Width: 1084
GlyphClass: 2
Flags: W
HStem: -4 84<413.816 673.606> 1032 88<411.028 675.978> 1243 264<231.191 412.809 681.191 862.809>
VStem: 130 194<228.236 892.42> 192 260<1282.71 1467.29> 642 260<1285.71 1470.29> 760 194<215.64 896.513>
LayerCount: 2
Fore
SplineSet
642 1378 m 128,-1,1
 642 1433 642 1433 680 1471.5 c 128,-1,2
 718 1510 718 1510 772 1510 c 128,-1,3
 826 1510 826 1510 864 1471.5 c 128,-1,4
 902 1433 902 1433 902 1378 c 128,-1,5
 902 1323 902 1323 864 1284.5 c 128,-1,6
 826 1246 826 1246 772 1246 c 128,-1,7
 718 1246 718 1246 680 1284.5 c 128,-1,0
 642 1323 642 1323 642 1378 c 128,-1,1
192 1375 m 128,-1,9
 192 1430 192 1430 230 1468.5 c 128,-1,10
 268 1507 268 1507 322 1507 c 128,-1,11
 376 1507 376 1507 414 1468.5 c 128,-1,12
 452 1430 452 1430 452 1375 c 128,-1,13
 452 1320 452 1320 414 1281.5 c 128,-1,14
 376 1243 376 1243 322 1243 c 128,-1,15
 268 1243 268 1243 230 1281.5 c 128,-1,8
 192 1320 192 1320 192 1375 c 128,-1,9
326 395 m 2,16,17
 328 199 328 199 396 136 c 0,18,19
 457 80 457 80 544 80 c 0,20,21
 642 80 642 80 700 144 c 1,22,23
 760 208 760 208 760 391 c 0,24,25
 760 394 760 394 760 397 c 2,26,-1
 758 719 l 2,27,28
 757 905 757 905 698 968 c 1,29,30
 640 1032 640 1032 542 1032 c 0,31,32
 457 1032 457 1032 394 976 c 0,33,34
 324 913 324 913 324 721 c 2,35,-1
 324 567 l 1,36,-1
 326 395 l 2,16,17
954 402 m 1,37,38
 954 231 954 231 834 115 c 0,39,40
 711 -4 711 -4 544 -4 c 0,41,42
 374 -4 374 -4 253 119 c 128,-1,43
 132 242 132 242 132 410 c 1,44,-1
 130 706 l 1,45,46
 130 874 130 874 251 997 c 128,-1,47
 372 1120 372 1120 542 1120 c 0,48,49
 709 1120 709 1120 832 1001 c 0,50,51
 951 886 951 886 952 714 c 2,52,-1
 954 402 l 1,37,38
EndSplineSet
Validated: 16385
EndChar

StartChar: divide
Encoding: 247 247 185
Width: 1083
GlyphClass: 2
Flags: W
HStem: 153 264<437.191 618.809> 600 198<170 911> 996 264<452.191 633.809>
VStem: 398 260<192.707 377.293> 413 260<1035.71 1220.29>
LayerCount: 2
Fore
SplineSet
170 798 m 1,0,-1
 1003 798 l 1,1,-1
 911 600 l 1,2,-1
 80 600 l 1,3,-1
 170 798 l 1,0,-1
398 285 m 128,-1,5
 398 340 398 340 436 378.5 c 128,-1,6
 474 417 474 417 528 417 c 128,-1,7
 582 417 582 417 620 378.5 c 128,-1,8
 658 340 658 340 658 285 c 128,-1,9
 658 230 658 230 620 191.5 c 128,-1,10
 582 153 582 153 528 153 c 128,-1,11
 474 153 474 153 436 191.5 c 128,-1,4
 398 230 398 230 398 285 c 128,-1,5
413 1128 m 128,-1,13
 413 1183 413 1183 451 1221.5 c 128,-1,14
 489 1260 489 1260 543 1260 c 128,-1,15
 597 1260 597 1260 635 1221.5 c 128,-1,16
 673 1183 673 1183 673 1128 c 128,-1,17
 673 1073 673 1073 635 1034.5 c 128,-1,18
 597 996 597 996 543 996 c 128,-1,19
 489 996 489 996 451 1034.5 c 128,-1,12
 413 1073 413 1073 413 1128 c 128,-1,13
EndSplineSet
Validated: 16385
EndChar

StartChar: oslash
Encoding: 248 248 186
Width: 1084
GlyphClass: 2
Flags: W
HStem: -4 84<506 673.606> 1032 88<411.028 592>
VStem: 130 194<231.766 892.42> 760 194<215.64 856.189>
DStem2: 247 -93 426 -177 0.294576 0.955628<0 167.52 335.92 1057.71 1254.26 1405.02>
LayerCount: 2
Fore
SplineSet
954 402 m 1,0,1
 954 231 954 231 834 115 c 0,2,3
 711 -4 711 -4 544 -4 c 0,4,5
 511 -4 511 -4 481 1 c 1,6,-1
 426 -177 l 1,7,-1
 247 -93 l 1,8,-1
 300 78 l 1,9,10
 275 96 275 96 253 119 c 0,11,12
 133 244 133 244 132 410 c 2,13,-1
 130 706 l 1,14,15
 130 874 130 874 251 997 c 128,-1,16
 372 1120 372 1120 542 1120 c 0,17,18
 581 1120 581 1120 619 1113 c 1,19,-1
 668 1274 l 1,20,-1
 848 1192 l 1,21,-1
 798 1031 l 1,22,23
 816 1017 816 1017 832 1001 c 0,24,25
 951 882 951 882 952 714 c 2,26,-1
 954 402 l 1,0,1
746 860 m 1,27,-1
 506 83 l 1,28,29
 524 80 524 80 544 80 c 0,30,31
 642 80 642 80 700 144 c 1,32,33
 760 208 760 208 760 391 c 2,34,-1
 760 397 l 1,35,-1
 758 719 l 2,36,37
 757 802 757 802 746 860 c 1,27,-1
592 1027 m 1,38,39
 568 1032 568 1032 542 1032 c 0,40,41
 457 1032 457 1032 394 976 c 0,42,43
 324 913 324 913 324 721 c 2,44,-1
 324 567 l 1,45,-1
 326 395 l 2,46,47
 327 293 327 293 346 228 c 1,48,-1
 592 1027 l 1,38,39
EndSplineSet
Validated: 16385
EndChar

StartChar: ugrave
Encoding: 249 249 187
Width: 1084
GlyphClass: 2
Flags: W
HStem: 0 82<416.708 673.413> 1100 20G<277.439 325.028 906.857 954>
VStem: 132 194<220.059 1038> 760 194<228.433 1036>
DStem2: 340 1584 210 1458 0.770645 -0.637264<0 384.967>
LayerCount: 2
Fore
SplineSet
340 1584 m 1,0,-1
 652 1326 l 1,1,-1
 522 1200 l 1,2,-1
 210 1458 l 1,3,-1
 340 1584 l 1,0,-1
130 1038 m 1,4,-1
 325 1120 l 1,5,-1
 326 397 l 2,6,7
 326 204 326 204 396 138 c 0,8,9
 455 82 455 82 544 82 c 0,10,11
 642 82 642 82 700 146 c 1,12,13
 760 210 760 210 760 393 c 0,14,15
 760 396 760 396 760 399 c 2,16,-1
 756 1036 l 1,17,-1
 954 1120 l 1,18,-1
 954 414 l 2,19,20
 954 246 954 246 833 123 c 128,-1,21
 712 0 712 0 542 0 c 0,22,23
 375 0 375 0 252 119 c 0,24,25
 132 235 132 235 132 406 c 2,26,-1
 130 1038 l 1,4,-1
EndSplineSet
Validated: 16385
EndChar

StartChar: uacute
Encoding: 250 250 188
Width: 1084
GlyphClass: 2
Flags: W
HStem: 0 82<416.708 673.413> 1100 20G<277.439 325.028 906.857 954>
VStem: 132 194<220.059 1038> 760 194<228.433 1036>
DStem2: 424 1318 554 1192 0.770645 0.637264<19.8886 404.856>
LayerCount: 2
Fore
SplineSet
736 1576 m 1,0,-1
 866 1450 l 1,1,-1
 554 1192 l 1,2,-1
 424 1318 l 1,3,-1
 736 1576 l 1,0,-1
130 1038 m 1,4,-1
 325 1120 l 1,5,-1
 326 397 l 2,6,7
 326 204 326 204 396 138 c 0,8,9
 455 82 455 82 544 82 c 0,10,11
 642 82 642 82 700 146 c 1,12,13
 760 210 760 210 760 393 c 0,14,15
 760 396 760 396 760 399 c 2,16,-1
 756 1036 l 1,17,-1
 954 1120 l 1,18,-1
 954 414 l 2,19,20
 954 246 954 246 833 123 c 128,-1,21
 712 0 712 0 542 0 c 0,22,23
 375 0 375 0 252 119 c 0,24,25
 132 235 132 235 132 406 c 2,26,-1
 130 1038 l 1,4,-1
EndSplineSet
Validated: 16385
EndChar

StartChar: ucircumflex
Encoding: 251 251 189
Width: 1084
GlyphClass: 2
Flags: W
HStem: 0 82<416.708 673.413> 1100 20G<277.439 325.028 906.857 954> 1342 234<429 663>
VStem: 132 194<220.059 1038> 760 194<228.433 1036>
LayerCount: 2
Fore
SplineSet
546 1342 m 1,0,-1
 364 1192 l 1,1,-1
 234 1318 l 1,2,-1
 546 1576 l 1,3,-1
 858 1318 l 1,4,-1
 728 1192 l 1,5,-1
 546 1342 l 1,0,-1
130 1038 m 1,6,-1
 325 1120 l 1,7,-1
 326 397 l 2,8,9
 326 204 326 204 396 138 c 0,10,11
 455 82 455 82 544 82 c 0,12,13
 642 82 642 82 700 146 c 1,14,15
 760 210 760 210 760 393 c 0,16,17
 760 396 760 396 760 399 c 2,18,-1
 756 1036 l 1,19,-1
 954 1120 l 1,20,-1
 954 414 l 2,21,22
 954 246 954 246 833 123 c 128,-1,23
 712 0 712 0 542 0 c 0,24,25
 375 0 375 0 252 119 c 0,26,27
 132 235 132 235 132 406 c 2,28,-1
 130 1038 l 1,6,-1
EndSplineSet
Validated: 16385
EndChar

StartChar: udieresis
Encoding: 252 252 190
Width: 1084
GlyphClass: 2
Flags: W
HStem: 0 82<416.708 673.413> 1100 20G<277.439 325.028 906.857 954> 1243 264<231.191 412.809 681.191 862.809>
VStem: 132 194<220.059 1038> 192 260<1282.71 1467.29> 642 260<1285.71 1470.29> 760 194<228.433 1036>
LayerCount: 2
Fore
SplineSet
642 1378 m 128,-1,1
 642 1433 642 1433 680 1471.5 c 128,-1,2
 718 1510 718 1510 772 1510 c 128,-1,3
 826 1510 826 1510 864 1471.5 c 128,-1,4
 902 1433 902 1433 902 1378 c 128,-1,5
 902 1323 902 1323 864 1284.5 c 128,-1,6
 826 1246 826 1246 772 1246 c 128,-1,7
 718 1246 718 1246 680 1284.5 c 128,-1,0
 642 1323 642 1323 642 1378 c 128,-1,1
192 1375 m 128,-1,9
 192 1430 192 1430 230 1468.5 c 128,-1,10
 268 1507 268 1507 322 1507 c 128,-1,11
 376 1507 376 1507 414 1468.5 c 128,-1,12
 452 1430 452 1430 452 1375 c 128,-1,13
 452 1320 452 1320 414 1281.5 c 128,-1,14
 376 1243 376 1243 322 1243 c 128,-1,15
 268 1243 268 1243 230 1281.5 c 128,-1,8
 192 1320 192 1320 192 1375 c 128,-1,9
130 1038 m 1,16,-1
 325 1120 l 1,17,-1
 326 397 l 2,18,19
 326 204 326 204 396 138 c 0,20,21
 455 82 455 82 544 82 c 0,22,23
 642 82 642 82 700 146 c 1,24,25
 760 210 760 210 760 393 c 0,26,27
 760 396 760 396 760 399 c 2,28,-1
 756 1036 l 1,29,-1
 954 1120 l 1,30,-1
 954 414 l 2,31,32
 954 246 954 246 833 123 c 128,-1,33
 712 0 712 0 542 0 c 0,34,35
 375 0 375 0 252 119 c 0,36,37
 132 235 132 235 132 406 c 2,38,-1
 130 1038 l 1,16,-1
EndSplineSet
Validated: 16385
EndChar

StartChar: yacute
Encoding: 253 253 191
Width: 1103
GlyphClass: 2
Flags: W
HStem: -394 84<407.213 665.83> 0 80<415.339 671.22> 1101 20G<281.402 325.892 908.682 952.945>
VStem: 130 195<216.607 1034> 756 194<-165.714 61 159.69 1032>
DStem2: 424 1318 554 1192 0.770645 0.637264<19.8886 404.856>
LayerCount: 2
Fore
SplineSet
736 1576 m 1,0,-1
 866 1450 l 1,1,-1
 554 1192 l 1,2,-1
 424 1318 l 1,3,-1
 736 1576 l 1,0,-1
756 5 m 2,4,-1
 756 24 l 1,5,-1
 756 61 l 1,6,7
 660 0 660 0 540 0 c 0,8,9
 373 0 373 0 250 119 c 1,10,11
 130 233 130 233 130 403 c 2,12,13
 130 403 130 403 130 406 c 2,14,-1
 132 1034 l 1,15,-1
 326 1121 l 1,16,-1
 323 567 l 1,17,-1
 325 395 l 2,18,19
 327 199 327 199 395 136 c 0,20,21
 455 80 455 80 543 80 c 0,22,23
 641 80 641 80 699 144 c 0,24,25
 759 209 759 209 759 397 c 2,26,-1
 758 1032 l 1,27,-1
 953 1120 l 1,28,-1
 950 20 l 2,29,30
 950 -149 950 -149 829 -271 c 0,31,32
 707 -394 707 -394 546 -394 c 0,33,34
 542 -394 542 -394 538 -394 c 0,35,36
 363 -379 363 -379 248 -273 c 1,37,-1
 327 -92 l 1,38,39
 335 -190 335 -190 382 -246 c 1,40,41
 440 -310 440 -310 538 -310 c 0,42,43
 625 -310 625 -310 686 -254 c 0,44,45
 756 -191 756 -191 756 5 c 2,4,-1
EndSplineSet
Validated: 16385
EndChar

StartChar: thorn
Encoding: 254 254 192
Width: 1104
GlyphClass: 2
Flags: W
HStem: -398 21G<150 194.494> -4 84<434.282 693.413> 1032 88<429.516 695.799> 1491 20G<300.889 343.956>
VStem: 150 194<-309 53 172.837 945.084 1059 1421> 780 194<222.777 885.698>
LayerCount: 2
Fore
SplineSet
346 395 m 2,0,1
 348 199 348 199 416 136 c 0,2,3
 477 80 477 80 564 80 c 0,4,5
 662 80 662 80 720 144 c 1,6,7
 780 208 780 208 780 391 c 2,8,-1
 780 397 l 1,9,-1
 778 719 l 2,10,11
 777 905 777 905 718 968 c 1,12,13
 660 1032 660 1032 562 1032 c 0,14,15
 477 1032 477 1032 414 976 c 0,16,17
 344 913 344 913 344 721 c 2,18,-1
 344 567 l 1,19,-1
 346 395 l 2,0,1
150 -398 m 1,20,-1
 150 1421 l 1,21,-1
 344 1511 l 1,22,-1
 343 1059 l 1,23,24
 440 1120 440 1120 560 1120 c 0,25,26
 730 1120 730 1120 851 997 c 0,27,28
 971 875 971 875 972 706 c 2,29,-1
 974 410 l 1,30,31
 974 242 974 242 853 119 c 128,-1,32
 732 -4 732 -4 562 -4 c 0,33,34
 446 -4 446 -4 351 53 c 1,35,-1
 348 -309 l 1,36,-1
 150 -398 l 1,20,-1
EndSplineSet
Validated: 16385
EndChar

StartChar: ydieresis
Encoding: 255 255 193
Width: 1103
GlyphClass: 2
Flags: W
HStem: -394 84<407.213 665.83> 0 80<415.339 671.22> 1101 20G<281.402 325.892 908.682 952.945> 1243 264<231.191 412.809 681.191 862.809>
VStem: 130 195<216.607 1034> 192 260<1282.71 1467.29> 642 260<1285.71 1470.29> 756 194<-165.714 61 159.69 1032>
LayerCount: 2
Fore
SplineSet
642 1378 m 128,-1,1
 642 1433 642 1433 680 1471.5 c 128,-1,2
 718 1510 718 1510 772 1510 c 128,-1,3
 826 1510 826 1510 864 1471.5 c 128,-1,4
 902 1433 902 1433 902 1378 c 128,-1,5
 902 1323 902 1323 864 1284.5 c 128,-1,6
 826 1246 826 1246 772 1246 c 128,-1,7
 718 1246 718 1246 680 1284.5 c 128,-1,0
 642 1323 642 1323 642 1378 c 128,-1,1
192 1375 m 128,-1,9
 192 1430 192 1430 230 1468.5 c 128,-1,10
 268 1507 268 1507 322 1507 c 128,-1,11
 376 1507 376 1507 414 1468.5 c 128,-1,12
 452 1430 452 1430 452 1375 c 128,-1,13
 452 1320 452 1320 414 1281.5 c 128,-1,14
 376 1243 376 1243 322 1243 c 128,-1,15
 268 1243 268 1243 230 1281.5 c 128,-1,8
 192 1320 192 1320 192 1375 c 128,-1,9
756 5 m 2,16,-1
 756 24 l 1,17,-1
 756 61 l 1,18,19
 660 0 660 0 540 0 c 0,20,21
 373 0 373 0 250 119 c 1,22,23
 130 233 130 233 130 403 c 2,24,25
 130 406 l 2,26,-1
 132 1034 l 1,27,-1
 326 1121 l 1,28,-1
 323 567 l 1,29,-1
 325 395 l 2,30,31
 327 199 327 199 395 136 c 0,32,33
 455 80 455 80 543 80 c 0,34,35
 641 80 641 80 699 144 c 0,36,37
 759 209 759 209 759 397 c 2,38,-1
 758 1032 l 1,39,-1
 953 1120 l 1,40,-1
 950 20 l 2,41,42
 950 -149 950 -149 829 -271 c 0,43,44
 707 -394 707 -394 546 -394 c 0,45,46
 542 -394 542 -394 538 -394 c 0,47,48
 363 -379 363 -379 248 -273 c 1,49,-1
 327 -92 l 1,50,51
 335 -190 335 -190 382 -246 c 1,52,53
 440 -310 440 -310 538 -310 c 0,54,55
 625 -310 625 -310 686 -254 c 0,56,57
 756 -191 756 -191 756 5 c 2,16,-1
EndSplineSet
Validated: 16385
EndChar

StartChar: Amacron
Encoding: 256 256 194
Width: 1387
GlyphClass: 2
Flags: W
HStem: 0 21G<200.98 244.043 985.96 1029.04> 506 116<399 984> 1410 100<541.34 850.097> 1686 198<391 1019>
VStem: 201 198<92 506 622 1224.03> 985 202<92 506 622 1222.59>
LayerCount: 2
Fore
SplineSet
391 1884 m 1,0,-1
 1111 1884 l 1,1,-1
 1019 1686 l 1,2,-1
 301 1686 l 1,3,-1
 391 1884 l 1,0,-1
397 1010 m 2,4,-1
 397 622 l 1,5,-1
 984 622 l 1,6,-1
 985 1010 l 1,7,8
 985 1010 985 1010 985 1015 c 0,9,10
 985 1239 985 1239 901 1324 c 0,11,12
 816 1410 816 1410 693 1410 c 0,13,14
 578 1410 578 1410 485 1324 c 0,15,16
 397 1243 397 1243 397 1010 c 2,4,-1
201 0 m 1,17,-1
 200 1016 l 2,18,19
 200 1220 200 1220 345 1365 c 128,-1,20
 490 1510 490 1510 694 1510 c 128,-1,21
 898 1510 898 1510 1043 1365 c 0,22,23
 1187 1221 1187 1221 1187 1019 c 2,24,-1
 1187 1016 l 1,25,-1
 1184 92 l 1,26,-1
 986 0 l 1,27,-1
 985 506 l 1,28,-1
 399 506 l 1,29,-1
 399 92 l 1,30,-1
 201 0 l 1,17,-1
EndSplineSet
Validated: 1
EndChar

StartChar: amacron
Encoding: 257 257 195
Width: 1083
GlyphClass: 2
Flags: W
HStem: -4 84<414.375 651.277> 1032 88<411.028 675.978> 1314 198<248 876>
VStem: 130 194<230.302 892.42> 762 191<90 898.155>
LayerCount: 2
Fore
SplineSet
248 1512 m 1,0,-1
 968 1512 l 1,1,-1
 876 1314 l 1,2,-1
 158 1314 l 1,3,-1
 248 1512 l 1,0,-1
760 397 m 2,4,-1
 758 719 l 2,5,6
 757 905 757 905 698 968 c 1,7,8
 640 1032 640 1032 542 1032 c 0,9,10
 457 1032 457 1032 394 976 c 0,11,12
 324 913 324 913 324 721 c 2,13,-1
 324 567 l 1,14,-1
 326 395 l 2,15,16
 328 199 328 199 396 136 c 0,17,18
 456 80 456 80 544 80 c 0,19,20
 636 80 636 80 730 183 c 1,21,-1
 644 0 l 1,22,23
 605 -4 605 -4 535 -4 c 0,24,25
 374 -4 374 -4 253 119 c 0,26,27
 133 241 133 241 132 410 c 2,28,-1
 130 706 l 1,29,30
 130 874 130 874 251 997 c 128,-1,31
 372 1120 372 1120 542 1120 c 0,32,33
 709 1120 709 1120 832 1001 c 0,34,35
 952 886 952 886 952 714 c 2,36,-1
 953 90 l 1,37,-1
 762 0 l 1,38,39
 762 0 762 0 760 397 c 2,4,-1
EndSplineSet
Validated: 16385
EndChar

StartChar: Abreve
Encoding: 258 258 196
Width: 1387
GlyphClass: 2
Flags: W
HStem: 0 21G<200.98 244.043 985.96 1029.04> 506 116<399 984> 1410 100<541.34 850.097> 1650 194<539.063 859.911>
VStem: 201 198<92 506 622 1224.03> 985 202<92 506 622 1222.59>
LayerCount: 2
Fore
SplineSet
1086 1812 m 1,0,1
 1019 1751 1019 1751 939 1710 c 0,2,3
 822 1650 822 1650 692 1650 c 0,4,5
 563 1650 563 1650 445 1710 c 0,6,7
 372 1747 372 1747 311 1800 c 1,8,-1
 470 1938 l 1,9,10
 479 1930 479 1930 492 1920 c 0,11,12
 592 1844 592 1844 699 1844 c 0,13,14
 810 1844 810 1844 904 1919 c 1,15,-1
 917 1930 l 1,16,-1
 1086 1812 l 1,0,1
397 1010 m 2,17,-1
 397 622 l 1,18,-1
 984 622 l 1,19,-1
 985 1010 l 1,20,21
 985 1010 985 1010 985 1015 c 0,22,23
 985 1239 985 1239 901 1324 c 0,24,25
 816 1410 816 1410 693 1410 c 0,26,27
 578 1410 578 1410 485 1324 c 0,28,29
 397 1243 397 1243 397 1010 c 2,17,-1
201 0 m 1,30,-1
 200 1016 l 2,31,32
 200 1220 200 1220 345 1365 c 128,-1,33
 490 1510 490 1510 694 1510 c 128,-1,34
 898 1510 898 1510 1043 1365 c 0,35,36
 1187 1221 1187 1221 1187 1019 c 2,37,-1
 1187 1016 l 1,38,-1
 1184 92 l 1,39,-1
 986 0 l 1,40,-1
 985 506 l 1,41,-1
 399 506 l 1,42,-1
 399 92 l 1,43,-1
 201 0 l 1,30,-1
EndSplineSet
Validated: 1
EndChar

StartChar: abreve
Encoding: 259 259 197
Width: 1083
GlyphClass: 2
Flags: W
HStem: -4 84<414.375 651.277> 1032 88<411.028 675.978> 1276 194<389.063 709.911>
VStem: 130 194<230.302 892.42> 762 191<90 898.155>
LayerCount: 2
Fore
SplineSet
936 1438 m 1,0,1
 869 1377 869 1377 789 1336 c 0,2,3
 672 1276 672 1276 542 1276 c 0,4,5
 413 1276 413 1276 295 1336 c 0,6,7
 222 1373 222 1373 161 1426 c 1,8,-1
 320 1564 l 1,9,10
 329 1556 329 1556 342 1546 c 0,11,12
 442 1470 442 1470 549 1470 c 0,13,14
 660 1470 660 1470 754 1545 c 1,15,-1
 767 1556 l 1,16,-1
 936 1438 l 1,0,1
760 397 m 2,17,-1
 758 719 l 2,18,19
 757 905 757 905 698 968 c 1,20,21
 640 1032 640 1032 542 1032 c 0,22,23
 457 1032 457 1032 394 976 c 0,24,25
 324 913 324 913 324 721 c 2,26,-1
 324 567 l 1,27,-1
 326 395 l 2,28,29
 328 199 328 199 396 136 c 0,30,31
 456 80 456 80 544 80 c 0,32,33
 636 80 636 80 730 183 c 1,34,-1
 644 0 l 1,35,36
 605 -4 605 -4 535 -4 c 0,37,38
 374 -4 374 -4 253 119 c 0,39,40
 133 241 133 241 132 410 c 2,41,-1
 130 706 l 1,42,43
 130 874 130 874 251 997 c 128,-1,44
 372 1120 372 1120 542 1120 c 0,45,46
 709 1120 709 1120 832 1001 c 0,47,48
 952 886 952 886 952 714 c 2,49,-1
 953 90 l 1,50,-1
 762 0 l 1,51,52
 762 0 762 0 760 397 c 2,17,-1
EndSplineSet
Validated: 16385
EndChar

StartChar: Aogonek
Encoding: 260 260 198
Width: 1397
GlyphClass: 2
Flags: W
HStem: -398 21G<1062.64 1100.38> 0 21G<200.98 244.043 985.96 1028.86> 506 116<399 985> 1410 100<541.84 850.597>
VStem: 201 198<92 506 622 1224.03> 986 201<92 506 622 1222.59>
LayerCount: 2
Fore
SplineSet
398 1010 m 2,0,-1
 398 622 l 1,1,-1
 985 622 l 1,2,-1
 986 1010 l 1,3,-1
 986 1015 l 2,4,5
 986 1239 986 1239 902 1324 c 0,6,7
 817 1410 817 1410 694 1410 c 0,8,9
 579 1410 579 1410 486 1324 c 0,10,11
 398 1243 398 1243 398 1010 c 2,0,-1
201 0 m 1,12,-1
 200 1016 l 2,13,14
 200 1220 200 1220 345 1365 c 128,-1,15
 490 1510 490 1510 694 1510 c 128,-1,16
 898 1510 898 1510 1043 1365 c 0,17,18
 1187 1221 1187 1221 1187 1019 c 2,19,-1
 1187 1016 l 1,20,-1
 1184 92 l 1,21,-1
 1076 42 l 1,22,-1
 1181 -62 l 1,23,-1
 1091 -154 l 1,24,-1
 1207 -268 l 1,25,-1
 1081 -398 l 1,26,-1
 857 -154 l 1,27,-1
 1031 21 l 1,28,-1
 986 0 l 1,29,-1
 985 506 l 1,30,-1
 399 506 l 1,31,-1
 399 92 l 1,32,-1
 201 0 l 1,12,-1
EndSplineSet
Validated: 1
EndChar

StartChar: aogonek
Encoding: 261 261 199
Width: 1083
GlyphClass: 2
Flags: W
HStem: -398 21G<840.639 878.385> -4 84<414.375 651.277> 1032 88<411.028 675.734>
VStem: 130 194<230.302 892.42> 762 191<90 898.155>
LayerCount: 2
Fore
SplineSet
760 397 m 1,0,-1
 758 719 l 2,1,2
 757 905 757 905 698 968 c 1,3,4
 640 1032 640 1032 542 1032 c 0,5,6
 457 1032 457 1032 394 976 c 0,7,8
 324 913 324 913 324 721 c 2,9,-1
 324 567 l 1,10,-1
 326 395 l 2,11,12
 328 199 328 199 396 136 c 0,13,14
 456 80 456 80 544 80 c 0,15,16
 636 80 636 80 730 183 c 1,17,-1
 644 0 l 1,18,19
 605 -4 605 -4 535 -4 c 0,20,21
 374 -4 374 -4 253 119 c 0,22,23
 133 241 133 241 132 410 c 2,24,-1
 130 706 l 1,25,26
 130 874 130 874 251 997 c 128,-1,27
 372 1120 372 1120 542 1120 c 0,28,29
 708 1120 708 1120 832 1001 c 0,30,31
 952 886 952 886 952 714 c 2,32,-1
 953 90 l 1,33,-1
 853 43 l 1,34,-1
 959 -62 l 1,35,-1
 869 -154 l 1,36,-1
 985 -268 l 1,37,-1
 859 -398 l 1,38,-1
 635 -154 l 1,39,-1
 811 23 l 1,40,-1
 762 0 l 1,41,-1
 760 397 l 1,0,-1
EndSplineSet
Validated: 16385
EndChar

StartChar: Cacute
Encoding: 262 262 200
Width: 1388
GlyphClass: 2
Flags: W
HStem: 0 99<542.745 856.775> 1410 100<542.155 851.001>
VStem: 200 199<288.52 1218.89> 986 202<292.905 506.671 992 1221.48>
DStem2: 586 1722 716 1596 0.770645 0.637264<19.8886 404.856>
LayerCount: 2
Fore
SplineSet
986 500 m 1,0,-1
 1188 594 l 1,1,-1
 1187 494 l 2,2,3
 1185 288 1185 288 1043 145 c 0,4,5
 899 0 899 0 694 0 c 0,6,7
 490 0 490 0 345 145 c 256,8,9
 200 290 200 290 200 494 c 2,10,-1
 201 1016 l 2,11,12
 201 1220 201 1220 346 1365 c 128,-1,13
 491 1510 491 1510 694 1510 c 0,14,15
 898 1510 898 1510 1043 1365 c 256,16,17
 1188 1220 1188 1220 1188 1016 c 2,18,-1
 1188 992 l 1,19,-1
 988 898 l 1,20,-1
 986 1010 l 2,21,22
 982 1241 982 1241 902 1324 c 0,23,24
 819 1410 819 1410 694 1410 c 0,25,26
 579 1410 579 1410 486 1324 c 0,27,28
 398 1242 398 1242 398 1010 c 2,29,-1
 399 499 l 2,30,31
 399 267 399 267 487 186 c 0,32,33
 582 99 582 99 695 99 c 0,34,35
 831 99 831 99 903 186 c 0,36,37
 988 287 988 287 988 468 c 0,38,39
 988 493 988 493 986 500 c 1,0,-1
898 1980 m 1,40,-1
 1028 1854 l 1,41,-1
 716 1596 l 1,42,-1
 586 1722 l 1,43,-1
 898 1980 l 1,40,-1
EndSplineSet
Validated: 1
EndChar

StartChar: cacute
Encoding: 263 263 201
Width: 1084
GlyphClass: 2
Flags: W
HStem: -4 88<413.809 687.309> 1034 86<407.251 671.764>
VStem: 130 194<228.403 893.018> 760 194<215.243 404 704 900.28>
DStem2: 424 1318 554 1192 0.770645 0.637264<19.8886 404.856>
LayerCount: 2
Fore
SplineSet
760 404 m 1,0,-1
 954 490 l 1,1,-1
 954 402 l 2,2,3
 954 231 954 231 834 115 c 0,4,5
 711 -4 711 -4 544 -4 c 0,6,7
 374 -4 374 -4 253 119 c 128,-1,8
 132 242 132 242 132 410 c 1,9,-1
 130 706 l 1,10,11
 130 874 130 874 251 997 c 128,-1,12
 372 1120 372 1120 542 1120 c 0,13,14
 700 1120 700 1120 832 1001 c 0,15,16
 952 892 952 892 952 714 c 2,17,-1
 952 704 l 1,18,-1
 758 617 l 1,19,-1
 758 719 l 2,20,21
 758 904 758 904 696 970 c 1,22,23
 638 1034 638 1034 540 1034 c 0,24,25
 451 1034 451 1034 392 978 c 0,26,27
 324 913 324 913 324 721 c 2,28,-1
 324 567 l 1,29,-1
 326 395 l 2,30,31
 328 205 328 205 398 140 c 0,32,33
 459 84 459 84 546 84 c 0,34,35
 646 84 646 84 712 148 c 0,36,37
 760 195 760 195 760 397 c 2,38,-1
 760 404 l 1,0,-1
736 1576 m 1,39,-1
 866 1450 l 1,40,-1
 554 1192 l 1,41,-1
 424 1318 l 1,42,-1
 736 1576 l 1,39,-1
EndSplineSet
Validated: 16385
EndChar

StartChar: Ccircumflex
Encoding: 264 264 202
Width: 1388
GlyphClass: 2
Flags: W
HStem: 0 99<542.745 856.775> 1410 100<542.155 851.001> 1752 234<591 825>
VStem: 200 199<288.52 1218.89> 986 202<292.905 506.671 992 1221.48>
LayerCount: 2
Fore
SplineSet
708 1752 m 1,0,-1
 526 1602 l 1,1,-1
 396 1728 l 1,2,-1
 708 1986 l 1,3,-1
 1020 1728 l 1,4,-1
 890 1602 l 1,5,-1
 708 1752 l 1,0,-1
986 500 m 1,6,-1
 1188 594 l 1,7,-1
 1187 494 l 2,8,9
 1185 288 1185 288 1043 145 c 0,10,11
 899 0 899 0 694 0 c 0,12,13
 490 0 490 0 345 145 c 256,14,15
 200 290 200 290 200 494 c 2,16,-1
 201 1016 l 2,17,18
 201 1220 201 1220 346 1365 c 128,-1,19
 491 1510 491 1510 694 1510 c 0,20,21
 898 1510 898 1510 1043 1365 c 256,22,23
 1188 1220 1188 1220 1188 1016 c 2,24,-1
 1188 992 l 1,25,-1
 988 898 l 1,26,-1
 986 1010 l 2,27,28
 982 1241 982 1241 902 1324 c 0,29,30
 819 1410 819 1410 694 1410 c 0,31,32
 579 1410 579 1410 486 1324 c 0,33,34
 398 1242 398 1242 398 1010 c 2,35,-1
 399 499 l 2,36,37
 399 267 399 267 487 186 c 0,38,39
 582 99 582 99 695 99 c 0,40,41
 831 99 831 99 903 186 c 0,42,43
 988 287 988 287 988 468 c 0,44,45
 988 493 988 493 986 500 c 1,6,-1
EndSplineSet
Validated: 1
EndChar

StartChar: ccircumflex
Encoding: 265 265 203
Width: 1084
GlyphClass: 2
Flags: W
HStem: -4 88<413.809 687.309> 1034 86<407.251 671.764> 1342 234<429 663>
VStem: 130 194<228.403 893.018> 760 194<215.243 404 704 900.28>
LayerCount: 2
Fore
SplineSet
546 1342 m 1,0,-1
 364 1192 l 1,1,-1
 234 1318 l 1,2,-1
 546 1576 l 1,3,-1
 858 1318 l 1,4,-1
 728 1192 l 1,5,-1
 546 1342 l 1,0,-1
760 404 m 1,6,-1
 954 490 l 1,7,-1
 954 402 l 2,8,9
 954 231 954 231 834 115 c 0,10,11
 711 -4 711 -4 544 -4 c 0,12,13
 374 -4 374 -4 253 119 c 128,-1,14
 132 242 132 242 132 410 c 1,15,-1
 130 706 l 1,16,17
 130 874 130 874 251 997 c 128,-1,18
 372 1120 372 1120 542 1120 c 0,19,20
 700 1120 700 1120 832 1001 c 0,21,22
 952 892 952 892 952 714 c 2,23,-1
 952 704 l 1,24,-1
 758 617 l 1,25,-1
 758 719 l 2,26,27
 758 904 758 904 696 970 c 1,28,29
 638 1034 638 1034 540 1034 c 0,30,31
 451 1034 451 1034 392 978 c 0,32,33
 324 913 324 913 324 721 c 2,34,-1
 324 567 l 1,35,-1
 326 395 l 2,36,37
 328 205 328 205 398 140 c 0,38,39
 459 84 459 84 546 84 c 0,40,41
 646 84 646 84 712 148 c 0,42,43
 760 195 760 195 760 397 c 2,44,-1
 760 404 l 1,6,-1
EndSplineSet
Validated: 16385
EndChar

StartChar: Cdotaccent
Encoding: 266 266 204
Width: 1388
GlyphClass: 2
Flags: W
HStem: 0 99<542.745 856.775> 1410 100<542.155 851.001> 1638 264<610.191 791.809>
VStem: 200 199<288.52 1218.89> 571 260<1677.71 1862.29> 986 202<292.905 506.671 992 1221.48>
LayerCount: 2
Fore
SplineSet
571 1770 m 128,-1,1
 571 1825 571 1825 609 1863.5 c 128,-1,2
 647 1902 647 1902 701 1902 c 128,-1,3
 755 1902 755 1902 793 1863.5 c 128,-1,4
 831 1825 831 1825 831 1770 c 128,-1,5
 831 1715 831 1715 793 1676.5 c 128,-1,6
 755 1638 755 1638 701 1638 c 128,-1,7
 647 1638 647 1638 609 1676.5 c 128,-1,0
 571 1715 571 1715 571 1770 c 128,-1,1
986 500 m 1,8,-1
 1188 594 l 1,9,-1
 1187 494 l 2,10,11
 1185 288 1185 288 1043 145 c 0,12,13
 899 0 899 0 694 0 c 0,14,15
 490 0 490 0 345 145 c 256,16,17
 200 290 200 290 200 494 c 2,18,-1
 201 1016 l 2,19,20
 201 1220 201 1220 346 1365 c 128,-1,21
 491 1510 491 1510 694 1510 c 0,22,23
 898 1510 898 1510 1043 1365 c 256,24,25
 1188 1220 1188 1220 1188 1016 c 2,26,-1
 1188 992 l 1,27,-1
 988 898 l 1,28,-1
 986 1010 l 2,29,30
 982 1241 982 1241 902 1324 c 0,31,32
 819 1410 819 1410 694 1410 c 0,33,34
 579 1410 579 1410 486 1324 c 0,35,36
 398 1242 398 1242 398 1010 c 2,37,-1
 399 499 l 2,38,39
 399 267 399 267 487 186 c 0,40,41
 582 99 582 99 695 99 c 0,42,43
 831 99 831 99 903 186 c 0,44,45
 988 287 988 287 988 468 c 0,46,47
 988 493 988 493 986 500 c 1,8,-1
EndSplineSet
Validated: 1
EndChar

StartChar: cdotaccent
Encoding: 267 267 205
Width: 1084
GlyphClass: 2
Flags: W
HStem: -4 88<413.809 687.309> 1034 86<407.251 671.764> 1250 264<453.191 634.809>
VStem: 130 194<228.403 893.018> 414 260<1289.71 1474.29> 760 194<215.243 404 704 900.28>
LayerCount: 2
Fore
SplineSet
414 1382 m 128,-1,1
 414 1437 414 1437 452 1475.5 c 128,-1,2
 490 1514 490 1514 544 1514 c 128,-1,3
 598 1514 598 1514 636 1475.5 c 128,-1,4
 674 1437 674 1437 674 1382 c 128,-1,5
 674 1327 674 1327 636 1288.5 c 128,-1,6
 598 1250 598 1250 544 1250 c 128,-1,7
 490 1250 490 1250 452 1288.5 c 128,-1,0
 414 1327 414 1327 414 1382 c 128,-1,1
760 404 m 1,8,-1
 954 490 l 1,9,-1
 954 402 l 2,10,11
 954 231 954 231 834 115 c 0,12,13
 711 -4 711 -4 544 -4 c 0,14,15
 374 -4 374 -4 253 119 c 128,-1,16
 132 242 132 242 132 410 c 1,17,-1
 130 706 l 1,18,19
 130 874 130 874 251 997 c 128,-1,20
 372 1120 372 1120 542 1120 c 0,21,22
 700 1120 700 1120 832 1001 c 0,23,24
 952 892 952 892 952 714 c 2,25,-1
 952 704 l 1,26,-1
 758 617 l 1,27,-1
 758 719 l 2,28,29
 758 904 758 904 696 970 c 1,30,31
 638 1034 638 1034 540 1034 c 0,32,33
 451 1034 451 1034 392 978 c 0,34,35
 324 913 324 913 324 721 c 2,36,-1
 324 567 l 1,37,-1
 326 395 l 2,38,39
 328 205 328 205 398 140 c 0,40,41
 459 84 459 84 546 84 c 0,42,43
 646 84 646 84 712 148 c 0,44,45
 760 195 760 195 760 397 c 2,46,-1
 760 404 l 1,8,-1
EndSplineSet
Validated: 16385
EndChar

StartChar: Ccaron
Encoding: 268 268 206
Width: 1388
GlyphClass: 2
Flags: W
HStem: 0 99<542.745 856.775> 1410 100<542.155 851.001> 1605 234<584 818>
VStem: 200 199<288.52 1218.89> 986 202<292.905 506.671 992 1221.48>
LayerCount: 2
Fore
SplineSet
701 1839 m 1,0,-1
 883 1989 l 1,1,-1
 1013 1863 l 1,2,-1
 701 1605 l 1,3,-1
 389 1863 l 1,4,-1
 519 1989 l 1,5,-1
 701 1839 l 1,0,-1
986 500 m 1,6,-1
 1188 594 l 1,7,-1
 1187 494 l 2,8,9
 1185 288 1185 288 1043 145 c 0,10,11
 899 0 899 0 694 0 c 0,12,13
 490 0 490 0 345 145 c 256,14,15
 200 290 200 290 200 494 c 2,16,-1
 201 1016 l 2,17,18
 201 1220 201 1220 346 1365 c 128,-1,19
 491 1510 491 1510 694 1510 c 0,20,21
 898 1510 898 1510 1043 1365 c 256,22,23
 1188 1220 1188 1220 1188 1016 c 2,24,-1
 1188 992 l 1,25,-1
 988 898 l 1,26,-1
 986 1010 l 2,27,28
 982 1241 982 1241 902 1324 c 0,29,30
 819 1410 819 1410 694 1410 c 0,31,32
 579 1410 579 1410 486 1324 c 0,33,34
 398 1242 398 1242 398 1010 c 2,35,-1
 399 499 l 2,36,37
 399 267 399 267 487 186 c 0,38,39
 582 99 582 99 695 99 c 0,40,41
 831 99 831 99 903 186 c 0,42,43
 988 287 988 287 988 468 c 0,44,45
 988 493 988 493 986 500 c 1,6,-1
EndSplineSet
Validated: 1
EndChar

StartChar: ccaron
Encoding: 269 269 207
Width: 1084
GlyphClass: 2
Flags: W
HStem: -4 88<413.809 687.309> 1034 86<407.251 671.764> 1192 234<429 663>
VStem: 130 194<228.403 893.018> 760 194<215.243 404 704 900.28>
LayerCount: 2
Fore
SplineSet
546 1426 m 1,0,-1
 728 1576 l 1,1,-1
 858 1450 l 1,2,-1
 546 1192 l 1,3,-1
 234 1450 l 1,4,-1
 364 1576 l 1,5,-1
 546 1426 l 1,0,-1
760 404 m 1,6,-1
 954 490 l 1,7,-1
 954 402 l 2,8,9
 954 231 954 231 834 115 c 0,10,11
 711 -4 711 -4 544 -4 c 0,12,13
 374 -4 374 -4 253 119 c 128,-1,14
 132 242 132 242 132 410 c 1,15,-1
 130 706 l 1,16,17
 130 874 130 874 251 997 c 128,-1,18
 372 1120 372 1120 542 1120 c 0,19,20
 700 1120 700 1120 832 1001 c 0,21,22
 952 892 952 892 952 714 c 2,23,-1
 952 704 l 1,24,-1
 758 617 l 1,25,-1
 758 719 l 2,26,27
 758 904 758 904 696 970 c 1,28,29
 638 1034 638 1034 540 1034 c 0,30,31
 451 1034 451 1034 392 978 c 0,32,33
 324 913 324 913 324 721 c 2,34,-1
 324 567 l 1,35,-1
 326 395 l 2,36,37
 328 205 328 205 398 140 c 0,38,39
 459 84 459 84 546 84 c 0,40,41
 646 84 646 84 712 148 c 0,42,43
 760 195 760 195 760 397 c 2,44,-1
 760 404 l 1,6,-1
EndSplineSet
Validated: 16385
EndChar

StartChar: Dcaron
Encoding: 270 270 208
Width: 1408
GlyphClass: 2
Flags: W
HStem: 22 116<398 869.016> 1375 115<397 879.309> 1605 234<584 818>
VStem: 200 198<138 1374> 1001 206<298.883 1223.78>
LayerCount: 2
Fore
SplineSet
701 1839 m 1,0,-1
 883 1989 l 1,1,-1
 1013 1863 l 1,2,-1
 701 1605 l 1,3,-1
 389 1863 l 1,4,-1
 519 1989 l 1,5,-1
 701 1839 l 1,0,-1
708 1375 m 1,6,-1
 397 1374 l 1,7,-1
 398 138 l 1,8,-1
 709 138 l 2,9,10
 874 138 874 138 940 264 c 0,11,12
 998 375 998 375 1001 494 c 1,13,-1
 1003 1015 l 2,14,15
 1003 1138 1003 1138 952 1248 c 0,16,17
 893 1375 893 1375 710 1375 c 2,18,-1
 708 1375 l 1,6,-1
397 1492 m 1,19,-1
 713 1490 l 1,20,21
 938 1490 938 1490 1063 1365 c 0,22,23
 1208 1220 1208 1220 1208 1016 c 2,24,-1
 1207 494 l 1,25,26
 1204 287 1204 287 1063 146 c 0,27,28
 940 23 940 23 714 23 c 2,29,-1
 200 22 l 1,30,-1
 200 1402 l 1,31,-1
 397 1492 l 1,19,-1
EndSplineSet
Validated: 1
EndChar

StartChar: dcaron
Encoding: 271 271 209
Width: 1349
GlyphClass: 2
Flags: W
HStem: -4 84<413.816 673.606> 1032 88<411.028 676.229> 1494 20G<909 954 1163.49 1230.97>
VStem: 130 194<230.302 892.42> 760 194<215.64 945.31 1063 1422>
DStem2: 999 1148 1170 1089 0.429359 0.903134<20.1354 405.255>
LayerCount: 2
Fore
SplineSet
1173 1514 m 1,0,-1
 1344 1455 l 1,1,-1
 1170 1089 l 1,2,-1
 999 1148 l 1,3,-1
 1173 1514 l 1,0,-1
326 395 m 2,4,5
 328 199 328 199 396 136 c 0,6,7
 457 80 457 80 544 80 c 0,8,9
 642 80 642 80 700 144 c 1,10,11
 760 208 760 208 760 391 c 0,12,13
 760 394 760 394 760 397 c 2,14,-1
 758 719 l 2,15,16
 757 905 757 905 698 968 c 1,17,18
 640 1032 640 1032 542 1032 c 0,19,20
 457 1032 457 1032 394 976 c 0,21,22
 324 913 324 913 324 721 c 2,23,-1
 324 567 l 1,24,-1
 326 395 l 2,4,5
753 1063 m 1,25,-1
 756 1422 l 1,26,-1
 954 1510 l 1,27,-1
 954 402 l 2,28,29
 954 231 954 231 834 115 c 0,30,31
 711 -4 711 -4 544 -4 c 0,32,33
 374 -4 374 -4 253 119 c 0,34,35
 133 241 133 241 132 410 c 2,36,-1
 130 706 l 1,37,38
 130 874 130 874 251 997 c 128,-1,39
 372 1120 372 1120 542 1120 c 0,40,41
 658 1120 658 1120 753 1063 c 1,25,-1
EndSplineSet
Validated: 16385
EndChar

StartChar: Dcroat
Encoding: 272 272 210
Width: 1408
GlyphClass: 2
Flags: W
HStem: 22 116<398 869.016> 672 117<109 200 398 746> 1375 115<397 879.791>
VStem: 200 198<138 672 789 1374> 1001 206<298.883 1223.78>
LayerCount: 2
Fore
SplineSet
397 1492 m 1,0,-1
 713 1490 l 2,1,2
 939 1489 939 1489 1063 1365 c 0,3,4
 1208 1220 1208 1220 1208 1016 c 2,5,-1
 1207 494 l 1,6,7
 1204 287 1204 287 1063 146 c 0,8,9
 940 23 940 23 714 23 c 2,10,-1
 200 22 l 1,11,-1
 200 672 l 1,12,-1
 44 672 l 1,13,-1
 109 789 l 1,14,-1
 200 789 l 1,15,-1
 200 1402 l 1,16,-1
 397 1492 l 1,0,-1
708 1375 m 1,17,-1
 397 1374 l 1,18,-1
 397 789 l 1,19,-1
 813 789 l 1,20,-1
 746 672 l 1,21,-1
 398 672 l 1,22,-1
 398 138 l 1,23,-1
 709 138 l 2,24,25
 874 138 874 138 940 264 c 0,26,27
 998 375 998 375 1001 494 c 1,28,-1
 1003 1015 l 2,29,30
 1003 1138 1003 1138 952 1248 c 0,31,32
 893 1375 893 1375 710 1375 c 2,33,-1
 708 1375 l 1,17,-1
EndSplineSet
Validated: 1
EndChar

StartChar: dcroat
Encoding: 273 273 211
Width: 1098
GlyphClass: 2
Flags: W
HStem: -4 84<413.816 673.606> 1032 88<411.028 676.229> 1204 126<384 754 954 1029> 1490 20G<909 954>
VStem: 130 194<230.302 892.42> 760 194<215.64 945.31 1063 1204 1330 1422>
LayerCount: 2
Fore
SplineSet
326 395 m 2,0,1
 328 199 328 199 396 136 c 0,2,3
 457 80 457 80 544 80 c 0,4,5
 642 80 642 80 700 144 c 1,6,7
 760 208 760 208 760 391 c 2,8,-1
 760 397 l 1,9,-1
 758 719 l 2,10,11
 757 905 757 905 698 968 c 1,12,13
 640 1032 640 1032 542 1032 c 0,14,15
 457 1032 457 1032 394 976 c 0,16,17
 324 913 324 913 324 721 c 2,18,-1
 324 567 l 1,19,-1
 326 395 l 2,0,1
954 1204 m 1,20,-1
 954 402 l 2,21,22
 954 231 954 231 834 115 c 0,23,24
 711 -4 711 -4 544 -4 c 0,25,26
 374 -4 374 -4 253 119 c 0,27,28
 133 241 133 241 132 410 c 2,29,-1
 130 706 l 1,30,31
 130 874 130 874 251 997 c 128,-1,32
 372 1120 372 1120 542 1120 c 0,33,34
 658 1120 658 1120 753 1063 c 1,35,-1
 754 1204 l 1,36,-1
 322 1204 l 1,37,-1
 384 1330 l 1,38,-1
 755 1330 l 1,39,-1
 756 1422 l 1,40,-1
 954 1510 l 1,41,-1
 954 1330 l 1,42,-1
 1093 1330 l 1,43,-1
 1029 1204 l 1,44,-1
 954 1204 l 1,20,-1
EndSplineSet
Validated: 1
EndChar

StartChar: Emacron
Encoding: 274 274 212
Width: 1100
GlyphClass: 2
Flags: W
HStem: 22 116<398 996> 696 118<398 907> 1374 117<398 903> 1686 198<391 954>
VStem: 200 198<138 696 814 1374>
LayerCount: 2
Fore
SplineSet
391 1884 m 1,0,-1
 1046 1884 l 1,1,-1
 954 1686 l 1,2,-1
 301 1686 l 1,3,-1
 391 1884 l 1,0,-1
398 1374 m 1,4,-1
 398 814 l 1,5,-1
 958 814 l 1,6,-1
 907 696 l 1,7,-1
 398 696 l 1,8,-1
 398 138 l 1,9,-1
 1050 138 l 1,10,-1
 996 22 l 1,11,-1
 200 22 l 1,12,-1
 200 1402 l 1,13,-1
 398 1491 l 1,14,-1
 958 1490 l 1,15,-1
 903 1373 l 1,16,-1
 398 1374 l 1,4,-1
EndSplineSet
Validated: 1
EndChar

